%TF.GenerationSoftware,KiCad,Pcbnew,6.0.7-f9a2dced07~116~ubuntu20.04.1*%
%TF.CreationDate,2022-11-29T22:38:19-05:00*%
%TF.ProjectId,Final_project_no_connector,46696e61-6c5f-4707-926f-6a6563745f6e,rev?*%
%TF.SameCoordinates,Original*%
%TF.FileFunction,Copper,L1,Top*%
%TF.FilePolarity,Positive*%
%FSLAX46Y46*%
G04 Gerber Fmt 4.6, Leading zero omitted, Abs format (unit mm)*
G04 Created by KiCad (PCBNEW 6.0.7-f9a2dced07~116~ubuntu20.04.1) date 2022-11-29 22:38:19*
%MOMM*%
%LPD*%
G01*
G04 APERTURE LIST*
G04 Aperture macros list*
%AMRoundRect*
0 Rectangle with rounded corners*
0 $1 Rounding radius*
0 $2 $3 $4 $5 $6 $7 $8 $9 X,Y pos of 4 corners*
0 Add a 4 corners polygon primitive as box body*
4,1,4,$2,$3,$4,$5,$6,$7,$8,$9,$2,$3,0*
0 Add four circle primitives for the rounded corners*
1,1,$1+$1,$2,$3*
1,1,$1+$1,$4,$5*
1,1,$1+$1,$6,$7*
1,1,$1+$1,$8,$9*
0 Add four rect primitives between the rounded corners*
20,1,$1+$1,$2,$3,$4,$5,0*
20,1,$1+$1,$4,$5,$6,$7,0*
20,1,$1+$1,$6,$7,$8,$9,0*
20,1,$1+$1,$8,$9,$2,$3,0*%
G04 Aperture macros list end*
%TA.AperFunction,SMDPad,CuDef*%
%ADD10RoundRect,0.225000X-0.225000X-0.250000X0.225000X-0.250000X0.225000X0.250000X-0.225000X0.250000X0*%
%TD*%
%TA.AperFunction,SMDPad,CuDef*%
%ADD11R,1.460500X0.533400*%
%TD*%
%TA.AperFunction,SMDPad,CuDef*%
%ADD12R,1.219200X0.584200*%
%TD*%
%TA.AperFunction,SMDPad,CuDef*%
%ADD13R,3.403600X3.987800*%
%TD*%
%TA.AperFunction,ComponentPad*%
%ADD14R,1.218000X1.218000*%
%TD*%
%TA.AperFunction,ComponentPad*%
%ADD15C,1.218000*%
%TD*%
%TA.AperFunction,SMDPad,CuDef*%
%ADD16RoundRect,0.200000X0.200000X0.275000X-0.200000X0.275000X-0.200000X-0.275000X0.200000X-0.275000X0*%
%TD*%
%TA.AperFunction,SMDPad,CuDef*%
%ADD17RoundRect,0.200000X-0.200000X-0.275000X0.200000X-0.275000X0.200000X0.275000X-0.200000X0.275000X0*%
%TD*%
%TA.AperFunction,SMDPad,CuDef*%
%ADD18RoundRect,0.200000X0.275000X-0.200000X0.275000X0.200000X-0.275000X0.200000X-0.275000X-0.200000X0*%
%TD*%
%TA.AperFunction,SMDPad,CuDef*%
%ADD19R,1.200000X1.200000*%
%TD*%
%TA.AperFunction,SMDPad,CuDef*%
%ADD20R,1.900000X0.400000*%
%TD*%
%TA.AperFunction,SMDPad,CuDef*%
%ADD21RoundRect,0.225000X0.225000X0.250000X-0.225000X0.250000X-0.225000X-0.250000X0.225000X-0.250000X0*%
%TD*%
%TA.AperFunction,SMDPad,CuDef*%
%ADD22R,1.150000X0.600000*%
%TD*%
%TA.AperFunction,SMDPad,CuDef*%
%ADD23R,1.150000X0.300000*%
%TD*%
%TA.AperFunction,ComponentPad*%
%ADD24O,2.100000X1.050000*%
%TD*%
%TA.AperFunction,ComponentPad*%
%ADD25O,2.000000X1.000000*%
%TD*%
%TA.AperFunction,SMDPad,CuDef*%
%ADD26RoundRect,0.055000X0.220000X0.695000X-0.220000X0.695000X-0.220000X-0.695000X0.220000X-0.695000X0*%
%TD*%
%TA.AperFunction,SMDPad,CuDef*%
%ADD27RoundRect,0.200000X-0.275000X0.200000X-0.275000X-0.200000X0.275000X-0.200000X0.275000X0.200000X0*%
%TD*%
%TA.AperFunction,SMDPad,CuDef*%
%ADD28RoundRect,0.055000X0.695000X-0.220000X0.695000X0.220000X-0.695000X0.220000X-0.695000X-0.220000X0*%
%TD*%
%TA.AperFunction,SMDPad,CuDef*%
%ADD29R,0.900000X2.000000*%
%TD*%
%TA.AperFunction,SMDPad,CuDef*%
%ADD30R,2.000000X0.900000*%
%TD*%
%TA.AperFunction,SMDPad,CuDef*%
%ADD31R,5.000000X5.000000*%
%TD*%
%TA.AperFunction,SMDPad,CuDef*%
%ADD32RoundRect,0.250000X0.262500X0.450000X-0.262500X0.450000X-0.262500X-0.450000X0.262500X-0.450000X0*%
%TD*%
%TA.AperFunction,SMDPad,CuDef*%
%ADD33R,1.320800X0.939800*%
%TD*%
%TA.AperFunction,ComponentPad*%
%ADD34R,1.270000X1.270000*%
%TD*%
%TA.AperFunction,ComponentPad*%
%ADD35C,1.270000*%
%TD*%
%TA.AperFunction,SMDPad,CuDef*%
%ADD36RoundRect,0.225000X-0.017678X0.335876X-0.335876X0.017678X0.017678X-0.335876X0.335876X-0.017678X0*%
%TD*%
%TA.AperFunction,ComponentPad*%
%ADD37R,1.700000X1.700000*%
%TD*%
%TA.AperFunction,ComponentPad*%
%ADD38O,1.700000X1.700000*%
%TD*%
%TA.AperFunction,SMDPad,CuDef*%
%ADD39RoundRect,0.045000X-0.045000X-0.392500X0.045000X-0.392500X0.045000X0.392500X-0.045000X0.392500X0*%
%TD*%
%TA.AperFunction,SMDPad,CuDef*%
%ADD40RoundRect,0.045000X0.392500X-0.045000X0.392500X0.045000X-0.392500X0.045000X-0.392500X-0.045000X0*%
%TD*%
%TA.AperFunction,SMDPad,CuDef*%
%ADD41RoundRect,0.045000X0.045000X0.392500X-0.045000X0.392500X-0.045000X-0.392500X0.045000X-0.392500X0*%
%TD*%
%TA.AperFunction,SMDPad,CuDef*%
%ADD42RoundRect,0.045000X-0.392500X0.045000X-0.392500X-0.045000X0.392500X-0.045000X0.392500X0.045000X0*%
%TD*%
%TA.AperFunction,SMDPad,CuDef*%
%ADD43RoundRect,0.160000X-1.440000X1.440000X-1.440000X-1.440000X1.440000X-1.440000X1.440000X1.440000X0*%
%TD*%
%TA.AperFunction,ComponentPad*%
%ADD44C,0.609600*%
%TD*%
%TA.AperFunction,ViaPad*%
%ADD45C,0.609600*%
%TD*%
%TA.AperFunction,ViaPad*%
%ADD46C,0.800000*%
%TD*%
%TA.AperFunction,Conductor*%
%ADD47C,0.381000*%
%TD*%
%TA.AperFunction,Conductor*%
%ADD48C,0.203200*%
%TD*%
%TA.AperFunction,Conductor*%
%ADD49C,0.200000*%
%TD*%
%TA.AperFunction,Conductor*%
%ADD50C,0.254000*%
%TD*%
%TA.AperFunction,Conductor*%
%ADD51C,0.508000*%
%TD*%
%TA.AperFunction,Conductor*%
%ADD52C,0.250000*%
%TD*%
%TA.AperFunction,Conductor*%
%ADD53C,0.152400*%
%TD*%
G04 APERTURE END LIST*
D10*
%TO.P,C1,1*%
%TO.N,GND*%
X140195000Y-73609200D03*
%TO.P,C1,2*%
%TO.N,+3V3*%
X141745000Y-73609200D03*
%TD*%
%TO.P,C3,1*%
%TO.N,+3V3*%
X129225000Y-74041000D03*
%TO.P,C3,2*%
%TO.N,GND*%
X130775000Y-74041000D03*
%TD*%
D11*
%TO.P,U5,1,+*%
%TO.N,/Light_Sensing/AO*%
X123225850Y-66745000D03*
%TO.P,U5,2,-*%
%TO.N,Net-(RV1-Pad2)*%
X123225850Y-68015000D03*
%TO.P,U5,3*%
%TO.N,/GPIO0*%
X123225850Y-69285000D03*
%TO.P,U5,4,V+*%
%TO.N,+3V3*%
X123225850Y-70555000D03*
%TO.P,U5,5,V-*%
%TO.N,GND*%
X128674150Y-70555000D03*
%TO.P,U5,6*%
%TO.N,N/C*%
X128674150Y-69285000D03*
%TO.P,U5,7*%
X128674150Y-68015000D03*
%TO.P,U5,8*%
X128674150Y-66745000D03*
%TD*%
D10*
%TO.P,C11,1*%
%TO.N,Net-(C10-Pad1)*%
X136409000Y-81400000D03*
%TO.P,C11,2*%
%TO.N,GND*%
X137959000Y-81400000D03*
%TD*%
%TO.P,C10,1*%
%TO.N,Net-(C10-Pad1)*%
X123075000Y-82450000D03*
%TO.P,C10,2*%
%TO.N,GND*%
X124625000Y-82450000D03*
%TD*%
%TO.P,C16,1*%
%TO.N,+3V3*%
X101166000Y-87900000D03*
%TO.P,C16,2*%
%TO.N,GND*%
X102716000Y-87900000D03*
%TD*%
D12*
%TO.P,U3,1,~{CS}*%
%TO.N,/BOOT*%
X136707600Y-75195000D03*
%TO.P,U3,2,DO/IO1*%
%TO.N,Net-(U1-Pad55)*%
X136707600Y-76465000D03*
%TO.P,U3,3,~{WP}/IO2*%
%TO.N,Net-(U1-Pad54)*%
X136707600Y-77735000D03*
%TO.P,U3,4,GND*%
%TO.N,GND*%
X136707600Y-79005000D03*
%TO.P,U3,5,DI/IO0*%
%TO.N,Net-(U1-Pad53)*%
X142092400Y-79005000D03*
%TO.P,U3,6,SCK*%
%TO.N,Net-(U1-Pad52)*%
X142092400Y-77735000D03*
%TO.P,U3,7,~{HOLD}/IO3*%
%TO.N,Net-(U1-Pad51)*%
X142092400Y-76465000D03*
%TO.P,U3,8,VDD*%
%TO.N,+3V3*%
X142092400Y-75195000D03*
D13*
%TO.P,U3,9,EP*%
%TO.N,GND*%
X139400000Y-77100000D03*
%TD*%
D14*
%TO.P,RV1,1,1*%
%TO.N,+3V3*%
X139270000Y-71640000D03*
D15*
%TO.P,RV1,2,2*%
%TO.N,Net-(RV1-Pad2)*%
X139270000Y-69100000D03*
%TO.P,RV1,3,3*%
%TO.N,GND*%
X139270000Y-66560000D03*
%TD*%
D16*
%TO.P,R11,1*%
%TO.N,/WiFi_Module/GREEN*%
X109360000Y-86000000D03*
%TO.P,R11,2*%
%TO.N,Net-(D4-Pad2)*%
X107710000Y-86000000D03*
%TD*%
%TO.P,R6,1*%
%TO.N,Net-(J1-PadA6)*%
X145274800Y-82931000D03*
%TO.P,R6,2*%
%TO.N,Net-(R6-Pad2)*%
X143624800Y-82931000D03*
%TD*%
D10*
%TO.P,C14,1*%
%TO.N,GND*%
X104325000Y-87900000D03*
%TO.P,C14,2*%
%TO.N,/GPIO15*%
X105875000Y-87900000D03*
%TD*%
D16*
%TO.P,R8,1*%
%TO.N,+3V3*%
X141290000Y-83000000D03*
%TO.P,R8,2*%
%TO.N,Net-(D2-Pad2)*%
X139640000Y-83000000D03*
%TD*%
D17*
%TO.P,R10,1*%
%TO.N,/WiFi_Module/RED*%
X110810000Y-86000000D03*
%TO.P,R10,2*%
%TO.N,Net-(D3-Pad2)*%
X112460000Y-86000000D03*
%TD*%
D18*
%TO.P,R3,1*%
%TO.N,/BOOT*%
X134239000Y-87185000D03*
%TO.P,R3,2*%
%TO.N,+3V3*%
X134239000Y-85535000D03*
%TD*%
D16*
%TO.P,R7,1*%
%TO.N,/GPIO25*%
X132625000Y-85852000D03*
%TO.P,R7,2*%
%TO.N,Net-(D1-Pad2)*%
X130975000Y-85852000D03*
%TD*%
D19*
%TO.P,D2,1,K*%
%TO.N,GND*%
X139400000Y-86750000D03*
%TO.P,D2,2,A*%
%TO.N,Net-(D2-Pad2)*%
X139400000Y-84650000D03*
%TD*%
%TO.P,D7,1,K*%
%TO.N,Net-(D7-Pad1)*%
X125150000Y-74300000D03*
%TO.P,D7,2,A*%
%TO.N,+3V3*%
X127250000Y-74300000D03*
%TD*%
D10*
%TO.P,C4,1*%
%TO.N,+3V3*%
X123325000Y-80200000D03*
%TO.P,C4,2*%
%TO.N,GND*%
X124875000Y-80200000D03*
%TD*%
D17*
%TO.P,R12,1*%
%TO.N,/WiFi_Module/BLUE*%
X113910000Y-86000000D03*
%TO.P,R12,2*%
%TO.N,Net-(D5-Pad2)*%
X115560000Y-86000000D03*
%TD*%
D20*
%TO.P,Y1,1,1*%
%TO.N,Net-(U1-Pad20)*%
X120777000Y-77286000D03*
%TO.P,Y1,2,2*%
%TO.N,GND*%
X120777000Y-78486000D03*
%TO.P,Y1,3,3*%
%TO.N,Net-(U1-Pad21)*%
X120777000Y-79686000D03*
%TD*%
D10*
%TO.P,C13,1*%
%TO.N,+3V3*%
X144614600Y-78257400D03*
%TO.P,C13,2*%
%TO.N,GND*%
X146164600Y-78257400D03*
%TD*%
D21*
%TO.P,C17,1*%
%TO.N,GND*%
X127775000Y-72390000D03*
%TO.P,C17,2*%
%TO.N,+3V3*%
X126225000Y-72390000D03*
%TD*%
D22*
%TO.P,J1,A1B12,GND*%
%TO.N,GND*%
X148248000Y-85800800D03*
%TO.P,J1,A4B9,VBUS*%
%TO.N,/VBUS*%
X148248000Y-85000800D03*
D23*
%TO.P,J1,A5,CC1*%
%TO.N,Net-(J1-PadA5)*%
X148248000Y-83850800D03*
%TO.P,J1,A6,D+*%
%TO.N,Net-(J1-PadA6)*%
X148248000Y-82850800D03*
%TO.P,J1,A7,D-*%
%TO.N,Net-(J1-PadA7)*%
X148248000Y-82350800D03*
%TO.P,J1,A8,SBU1*%
%TO.N,unconnected-(J1-PadA8)*%
X148248000Y-81350800D03*
D22*
%TO.P,J1,B1A12,GND*%
%TO.N,GND*%
X148248000Y-79400800D03*
%TO.P,J1,B4A9,VBUS*%
%TO.N,/VBUS*%
X148248000Y-80200800D03*
D23*
%TO.P,J1,B5,CC2*%
%TO.N,Net-(J1-PadB5)*%
X148248000Y-80850800D03*
%TO.P,J1,B6,D+*%
%TO.N,Net-(J1-PadA6)*%
X148248000Y-81850800D03*
%TO.P,J1,B7,D-*%
%TO.N,Net-(J1-PadA7)*%
X148248000Y-83350800D03*
%TO.P,J1,B8,SBU2*%
%TO.N,unconnected-(J1-PadB8)*%
X148248000Y-84350800D03*
D24*
%TO.P,J1,S1,SHELL*%
%TO.N,GND*%
X148823000Y-86920800D03*
D25*
%TO.P,J1,S2,SHELL*%
X153003000Y-86920800D03*
%TO.P,J1,S3,SHELL*%
X153003000Y-78280800D03*
D24*
%TO.P,J1,S4,SHELL*%
X148823000Y-78280800D03*
%TD*%
D10*
%TO.P,C8,1*%
%TO.N,+3V3*%
X136252800Y-84400000D03*
%TO.P,C8,2*%
%TO.N,GND*%
X137802800Y-84400000D03*
%TD*%
D26*
%TO.P,S2,1,1*%
%TO.N,GND*%
X137388000Y-89154000D03*
%TO.P,S2,2,2*%
%TO.N,/BOOT*%
X134138000Y-89154000D03*
%TD*%
D27*
%TO.P,R4,1*%
%TO.N,Net-(J1-PadA5)*%
X146507200Y-84519000D03*
%TO.P,R4,2*%
%TO.N,GND*%
X146507200Y-86169000D03*
%TD*%
D28*
%TO.P,S1,1,1*%
%TO.N,GND*%
X123650000Y-88875000D03*
%TO.P,S1,2,2*%
%TO.N,/RUN*%
X123650000Y-85625000D03*
%TD*%
D18*
%TO.P,R1,1*%
%TO.N,Net-(J1-PadB5)*%
X146558000Y-81444600D03*
%TO.P,R1,2*%
%TO.N,GND*%
X146558000Y-79794600D03*
%TD*%
D17*
%TO.P,R13,1*%
%TO.N,Net-(D5-Pad2)*%
X117060000Y-86050000D03*
%TO.P,R13,2*%
X118710000Y-86050000D03*
%TD*%
D29*
%TO.P,U4,1,GND*%
%TO.N,GND*%
X98940000Y-83700000D03*
%TO.P,U4,2,3V3*%
%TO.N,+3V3*%
X100210000Y-83700000D03*
%TO.P,U4,3,EN*%
%TO.N,/GPIO15*%
X101480000Y-83700000D03*
%TO.P,U4,4,SENSOR_VP*%
%TO.N,unconnected-(U4-Pad4)*%
X102750000Y-83700000D03*
%TO.P,U4,5,SENSOR_VN*%
%TO.N,unconnected-(U4-Pad5)*%
X104020000Y-83700000D03*
%TO.P,U4,6,IO34*%
%TO.N,unconnected-(U4-Pad6)*%
X105290000Y-83700000D03*
%TO.P,U4,7,IO35*%
%TO.N,unconnected-(U4-Pad7)*%
X106560000Y-83700000D03*
%TO.P,U4,8,IO32*%
%TO.N,unconnected-(U4-Pad8)*%
X107830000Y-83700000D03*
%TO.P,U4,9,IO33*%
%TO.N,/GPIO14*%
X109100000Y-83700000D03*
%TO.P,U4,10,IO25*%
%TO.N,/WiFi_Module/GREEN*%
X110370000Y-83700000D03*
%TO.P,U4,11,IO26*%
%TO.N,/WiFi_Module/RED*%
X111640000Y-83700000D03*
%TO.P,U4,12,IO27*%
%TO.N,/WiFi_Module/BLUE*%
X112910000Y-83700000D03*
%TO.P,U4,13,IO14*%
%TO.N,unconnected-(U4-Pad13)*%
X114180000Y-83700000D03*
%TO.P,U4,14,IO12*%
%TO.N,unconnected-(U4-Pad14)*%
X115450000Y-83700000D03*
D30*
%TO.P,U4,15,GND*%
%TO.N,GND*%
X116450000Y-80915000D03*
%TO.P,U4,16,IO13*%
%TO.N,unconnected-(U4-Pad16)*%
X116450000Y-79645000D03*
%TO.P,U4,17,SHD/SD2*%
%TO.N,unconnected-(U4-Pad17)*%
X116450000Y-78375000D03*
%TO.P,U4,18,SWP/SD3*%
%TO.N,unconnected-(U4-Pad18)*%
X116450000Y-77105000D03*
%TO.P,U4,19,SCS/CMD*%
%TO.N,unconnected-(U4-Pad19)*%
X116450000Y-75835000D03*
%TO.P,U4,20,SCK/CLK*%
%TO.N,unconnected-(U4-Pad20)*%
X116450000Y-74565000D03*
%TO.P,U4,21,SDO/SD0*%
%TO.N,unconnected-(U4-Pad21)*%
X116450000Y-73295000D03*
%TO.P,U4,22,SDI/SD1*%
%TO.N,unconnected-(U4-Pad22)*%
X116450000Y-72025000D03*
%TO.P,U4,23,IO15*%
%TO.N,unconnected-(U4-Pad23)*%
X116450000Y-70755000D03*
%TO.P,U4,24,IO2*%
%TO.N,unconnected-(U4-Pad24)*%
X116450000Y-69485000D03*
D29*
%TO.P,U4,25,IO0*%
%TO.N,unconnected-(U4-Pad25)*%
X115450000Y-66700000D03*
%TO.P,U4,26,IO4*%
%TO.N,unconnected-(U4-Pad26)*%
X114180000Y-66700000D03*
%TO.P,U4,27,IO16*%
%TO.N,unconnected-(U4-Pad27)*%
X112910000Y-66700000D03*
%TO.P,U4,28,IO17*%
%TO.N,unconnected-(U4-Pad28)*%
X111640000Y-66700000D03*
%TO.P,U4,29,IO5*%
%TO.N,/GPIO13*%
X110370000Y-66700000D03*
%TO.P,U4,30,IO18*%
%TO.N,/GPIO10*%
X109100000Y-66700000D03*
%TO.P,U4,31,IO19*%
%TO.N,unconnected-(U4-Pad31)*%
X107830000Y-66700000D03*
%TO.P,U4,32,NC*%
%TO.N,unconnected-(U4-Pad32)*%
X106560000Y-66700000D03*
%TO.P,U4,33,IO21*%
%TO.N,unconnected-(U4-Pad33)*%
X105290000Y-66700000D03*
%TO.P,U4,34,RXD0*%
%TO.N,/GPIO12*%
X104020000Y-66700000D03*
%TO.P,U4,35,TXD0*%
%TO.N,/GPIO11*%
X102750000Y-66700000D03*
%TO.P,U4,36,IO22*%
%TO.N,unconnected-(U4-Pad36)*%
X101480000Y-66700000D03*
%TO.P,U4,37,IO23*%
%TO.N,unconnected-(U4-Pad37)*%
X100210000Y-66700000D03*
%TO.P,U4,38,GND*%
%TO.N,GND*%
X98940000Y-66700000D03*
D31*
%TO.P,U4,39_1,GND*%
X106440000Y-76200000D03*
%TD*%
D19*
%TO.P,D6,1,K*%
%TO.N,Net-(D6-Pad1)*%
X131350000Y-72150000D03*
%TO.P,D6,2,A*%
%TO.N,+3V3*%
X129250000Y-72150000D03*
%TD*%
D32*
%TO.P,R16,1*%
%TO.N,+3V3*%
X121312500Y-71250000D03*
%TO.P,R16,2*%
%TO.N,/GPIO0*%
X119487500Y-71250000D03*
%TD*%
%TO.P,R9,1*%
%TO.N,+3.3V*%
X106112500Y-86000000D03*
%TO.P,R9,2*%
%TO.N,/GPIO15*%
X104287500Y-86000000D03*
%TD*%
D16*
%TO.P,R5,1*%
%TO.N,Net-(J1-PadA7)*%
X144970000Y-84531200D03*
%TO.P,R5,2*%
%TO.N,Net-(R5-Pad2)*%
X143320000Y-84531200D03*
%TD*%
D10*
%TO.P,C18,1*%
%TO.N,GND*%
X119798800Y-67284600D03*
%TO.P,C18,2*%
%TO.N,/Light_Sensing/AO*%
X121348800Y-67284600D03*
%TD*%
%TO.P,C12,1*%
%TO.N,GND*%
X142784000Y-81400000D03*
%TO.P,C12,2*%
%TO.N,/VBUS*%
X144334000Y-81400000D03*
%TD*%
D33*
%TO.P,U2,1,GND*%
%TO.N,GND*%
X143968600Y-88148201D03*
%TO.P,U2,2,VOUT*%
%TO.N,+3V3*%
X143968600Y-86248199D03*
%TO.P,U2,3,VIN*%
%TO.N,/VBUS*%
X141578200Y-87198200D03*
%TD*%
D16*
%TO.P,R17,1*%
%TO.N,Net-(D7-Pad1)*%
X124525000Y-72700000D03*
%TO.P,R17,2*%
%TO.N,/GPIO0*%
X122875000Y-72700000D03*
%TD*%
D21*
%TO.P,C15,1*%
%TO.N,+3V3*%
X102675000Y-86300000D03*
%TO.P,C15,2*%
%TO.N,GND*%
X101125000Y-86300000D03*
%TD*%
D10*
%TO.P,C9,1*%
%TO.N,Net-(C10-Pad1)*%
X136275000Y-82900000D03*
%TO.P,C9,2*%
%TO.N,GND*%
X137825000Y-82900000D03*
%TD*%
%TO.P,C6,1*%
%TO.N,+3V3*%
X136175000Y-85950000D03*
%TO.P,C6,2*%
%TO.N,GND*%
X137725000Y-85950000D03*
%TD*%
D34*
%TO.P,R18,1*%
%TO.N,/Light_Sensing/AO*%
X132638800Y-66268600D03*
D35*
%TO.P,R18,2*%
%TO.N,GND*%
X132638800Y-69668601D03*
%TD*%
D36*
%TO.P,C5,1*%
%TO.N,+3V3*%
X129098008Y-86301992D03*
%TO.P,C5,2*%
%TO.N,GND*%
X128001992Y-87398008D03*
%TD*%
D10*
%TO.P,C7,1*%
%TO.N,+3V3*%
X139458400Y-81400000D03*
%TO.P,C7,2*%
%TO.N,GND*%
X141008400Y-81400000D03*
%TD*%
D19*
%TO.P,D4,1,K*%
%TO.N,GND*%
X109889000Y-88011000D03*
%TO.P,D4,2,A*%
%TO.N,Net-(D4-Pad2)*%
X107789000Y-88011000D03*
%TD*%
D37*
%TO.P,J2,1,Pin_1*%
%TO.N,/GPIO3*%
X145000000Y-75650000D03*
D38*
%TO.P,J2,2,Pin_2*%
%TO.N,/GPIO2*%
X145000000Y-73110000D03*
%TO.P,J2,3,Pin_3*%
%TO.N,/VBUS*%
X145000000Y-70570000D03*
%TO.P,J2,4,Pin_4*%
%TO.N,GND*%
X145000000Y-68030000D03*
%TD*%
D19*
%TO.P,D3,1,K*%
%TO.N,GND*%
X111472000Y-88138000D03*
%TO.P,D3,2,A*%
%TO.N,Net-(D3-Pad2)*%
X113572000Y-88138000D03*
%TD*%
D32*
%TO.P,R15,1*%
%TO.N,+3V3*%
X121359300Y-69037200D03*
%TO.P,R15,2*%
%TO.N,/Light_Sensing/AO*%
X119534300Y-69037200D03*
%TD*%
D19*
%TO.P,D5,1,K*%
%TO.N,GND*%
X115688400Y-87528400D03*
%TO.P,D5,2,A*%
%TO.N,Net-(D5-Pad2)*%
X117788400Y-87528400D03*
%TD*%
D17*
%TO.P,R14,1*%
%TO.N,Net-(D6-Pad1)*%
X132975000Y-71755000D03*
%TO.P,R14,2*%
%TO.N,GND*%
X134625000Y-71755000D03*
%TD*%
D16*
%TO.P,R2,1*%
%TO.N,/RUN*%
X125025000Y-84150000D03*
%TO.P,R2,2*%
%TO.N,+3V3*%
X123375000Y-84150000D03*
%TD*%
D10*
%TO.P,C2,1*%
%TO.N,+3V3*%
X132575000Y-73660000D03*
%TO.P,C2,2*%
%TO.N,GND*%
X134125000Y-73660000D03*
%TD*%
D19*
%TO.P,D1,1,K*%
%TO.N,GND*%
X132495000Y-87503000D03*
%TO.P,D1,2,A*%
%TO.N,Net-(D1-Pad2)*%
X130395000Y-87503000D03*
%TD*%
D39*
%TO.P,U1,1,IOVDD*%
%TO.N,+3V3*%
X133400000Y-76962500D03*
%TO.P,U1,2,GPIO0*%
%TO.N,/GPIO0*%
X133000000Y-76962500D03*
%TO.P,U1,3,GPIO1*%
%TO.N,/GPIO1*%
X132600000Y-76962500D03*
%TO.P,U1,4,GPIO2*%
%TO.N,/GPIO2*%
X132200000Y-76962500D03*
%TO.P,U1,5,GPIO3*%
%TO.N,/GPIO3*%
X131800000Y-76962500D03*
%TO.P,U1,6,GPIO4*%
%TO.N,/GPIO4*%
X131400000Y-76962500D03*
%TO.P,U1,7,GPIO5*%
%TO.N,/GPIO5*%
X131000000Y-76962500D03*
%TO.P,U1,8,GPIO6*%
%TO.N,/GPIO6*%
X130600000Y-76962500D03*
%TO.P,U1,9,GPIO7*%
%TO.N,/GPIO7*%
X130200000Y-76962500D03*
%TO.P,U1,10,IOVDD*%
%TO.N,+3V3*%
X129800000Y-76962500D03*
%TO.P,U1,11,GPIO8*%
%TO.N,/GPIO8*%
X129400000Y-76962500D03*
%TO.P,U1,12,GPIO9*%
%TO.N,/GPIO9*%
X129000000Y-76962500D03*
%TO.P,U1,13,GPIO10*%
%TO.N,/GPIO10*%
X128600000Y-76962500D03*
%TO.P,U1,14,GPIO11*%
%TO.N,/GPIO11*%
X128200000Y-76962500D03*
D40*
%TO.P,U1,15,GPIO12*%
%TO.N,/GPIO12*%
X127362500Y-77800000D03*
%TO.P,U1,16,GPIO13*%
%TO.N,/GPIO13*%
X127362500Y-78200000D03*
%TO.P,U1,17,GPIO14*%
%TO.N,/GPIO14*%
X127362500Y-78600000D03*
%TO.P,U1,18,GPIO15*%
%TO.N,/GPIO15*%
X127362500Y-79000000D03*
%TO.P,U1,19,TESTEN*%
%TO.N,GND*%
X127362500Y-79400000D03*
%TO.P,U1,20,XIN*%
%TO.N,Net-(U1-Pad20)*%
X127362500Y-79800000D03*
%TO.P,U1,21,XOUT*%
%TO.N,Net-(U1-Pad21)*%
X127362500Y-80200000D03*
%TO.P,U1,22,IOVDD*%
%TO.N,+3V3*%
X127362500Y-80600000D03*
%TO.P,U1,23,DVDD*%
%TO.N,Net-(C10-Pad1)*%
X127362500Y-81000000D03*
%TO.P,U1,24,SWCLK*%
%TO.N,/SWCLK*%
X127362500Y-81400000D03*
%TO.P,U1,25,SWDIO*%
%TO.N,/SWDIO*%
X127362500Y-81800000D03*
%TO.P,U1,26,RUN*%
%TO.N,/RUN*%
X127362500Y-82200000D03*
%TO.P,U1,27,GPIO16*%
%TO.N,/GPIO16*%
X127362500Y-82600000D03*
%TO.P,U1,28,GPIO17*%
%TO.N,/GPIO17*%
X127362500Y-83000000D03*
D41*
%TO.P,U1,29,GPIO18*%
%TO.N,/GPIO18*%
X128200000Y-83837500D03*
%TO.P,U1,30,GPIO19*%
%TO.N,/GPIO19*%
X128600000Y-83837500D03*
%TO.P,U1,31,GPIO20*%
%TO.N,/GPIO20*%
X129000000Y-83837500D03*
%TO.P,U1,32,GPIO21*%
%TO.N,/GPIO21*%
X129400000Y-83837500D03*
%TO.P,U1,33,IOVDD*%
%TO.N,+3V3*%
X129800000Y-83837500D03*
%TO.P,U1,34,GPIO22*%
%TO.N,/GPIO22*%
X130200000Y-83837500D03*
%TO.P,U1,35,GPIO23*%
%TO.N,/GPIO23*%
X130600000Y-83837500D03*
%TO.P,U1,36,GPIO24*%
%TO.N,/GPIO24*%
X131000000Y-83837500D03*
%TO.P,U1,37,GPIO25*%
%TO.N,/GPIO25*%
X131400000Y-83837500D03*
%TO.P,U1,38,GPIO26/ADC0*%
%TO.N,/GPIO26*%
X131800000Y-83837500D03*
%TO.P,U1,39,GPIO27/ADC1*%
%TO.N,/GPIO27*%
X132200000Y-83837500D03*
%TO.P,U1,40,GPIO28/ADC2*%
%TO.N,/GPIO28*%
X132600000Y-83837500D03*
%TO.P,U1,41,GPIO29/ADC3*%
%TO.N,/GPIO29*%
X133000000Y-83837500D03*
%TO.P,U1,42,IOVDD*%
%TO.N,+3V3*%
X133400000Y-83837500D03*
D42*
%TO.P,U1,43,ADC_AVDD*%
X134237500Y-83000000D03*
%TO.P,U1,44,VREG_VIN*%
X134237500Y-82600000D03*
%TO.P,U1,45,VREG_VOUT*%
%TO.N,Net-(C10-Pad1)*%
X134237500Y-82200000D03*
%TO.P,U1,46,USB_D-*%
%TO.N,Net-(R5-Pad2)*%
X134237500Y-81800000D03*
%TO.P,U1,47,USB_D+*%
%TO.N,Net-(R6-Pad2)*%
X134237500Y-81400000D03*
%TO.P,U1,48,USB_VDD*%
%TO.N,+3V3*%
X134237500Y-81000000D03*
%TO.P,U1,49,IOVDD*%
X134237500Y-80600000D03*
%TO.P,U1,50,DVDD*%
%TO.N,Net-(C10-Pad1)*%
X134237500Y-80200000D03*
%TO.P,U1,51,QSPI_SD3*%
%TO.N,Net-(U1-Pad51)*%
X134237500Y-79800000D03*
%TO.P,U1,52,QSPI_SCLK*%
%TO.N,Net-(U1-Pad52)*%
X134237500Y-79400000D03*
%TO.P,U1,53,QSPI_SD0*%
%TO.N,Net-(U1-Pad53)*%
X134237500Y-79000000D03*
%TO.P,U1,54,QSPI_SD2*%
%TO.N,Net-(U1-Pad54)*%
X134237500Y-78600000D03*
%TO.P,U1,55,QSPI_SD1*%
%TO.N,Net-(U1-Pad55)*%
X134237500Y-78200000D03*
%TO.P,U1,56,~{QSPI_CS}*%
%TO.N,/BOOT*%
X134237500Y-77800000D03*
D43*
%TO.P,U1,57,GND*%
%TO.N,GND*%
X130800000Y-80400000D03*
D44*
X130000000Y-79600000D03*
X130000000Y-81200000D03*
X131600000Y-79600000D03*
X131600000Y-81200000D03*
%TD*%
D45*
%TO.N,GND*%
X105537000Y-78054200D03*
X138650000Y-82250000D03*
D46*
X138684000Y-89535000D03*
D45*
X104698800Y-77190600D03*
X144627600Y-79552800D03*
X145364200Y-87985600D03*
X99491800Y-85674200D03*
X104216200Y-89154000D03*
X135810034Y-78655423D03*
X125714852Y-82264852D03*
X145231486Y-80156686D03*
X105765600Y-74523600D03*
X139649200Y-87960200D03*
X128192397Y-71338058D03*
X128371600Y-79502000D03*
X124000071Y-79209429D03*
X111785400Y-88976200D03*
X102590600Y-89179400D03*
X108305600Y-75387200D03*
X143916400Y-80264000D03*
X131572000Y-88773000D03*
X106426000Y-75311000D03*
X131064000Y-75438000D03*
X110210600Y-88976200D03*
X114554000Y-87122000D03*
X107442000Y-74523600D03*
X141884400Y-82042000D03*
X119066700Y-78629900D03*
X108381800Y-77190600D03*
X146304000Y-87376000D03*
X119964200Y-66217800D03*
X106426000Y-76911200D03*
X127152400Y-88188800D03*
D46*
X123063000Y-90170000D03*
D45*
X104622600Y-75463400D03*
X139242800Y-73914000D03*
X117858100Y-80838426D03*
X99949000Y-86588600D03*
X135289098Y-70722298D03*
X135255000Y-72898000D03*
X105613200Y-76225400D03*
X107365800Y-76225400D03*
X129943800Y-71043800D03*
X99390200Y-64922400D03*
X138344000Y-87055600D03*
X107365800Y-78028800D03*
D46*
X137080885Y-85212219D03*
D45*
%TO.N,/GPIO15*%
X123631566Y-77458971D03*
X120700800Y-83870800D03*
X120700800Y-82448400D03*
X122986800Y-78638400D03*
D46*
%TO.N,/GPIO3*%
X142494000Y-72644000D03*
D45*
X131927600Y-78028800D03*
X134315200Y-76758800D03*
D46*
X137927017Y-72624656D03*
D45*
%TO.N,/GPIO2*%
X134242988Y-74698337D03*
X132791200Y-75285600D03*
D46*
%TO.N,/BOOT*%
X133311479Y-84873029D03*
D45*
X133049533Y-79706266D03*
%TO.N,Net-(R5-Pad2)*%
X141776757Y-84680599D03*
X135480282Y-82273876D03*
%TO.N,Net-(R6-Pad2)*%
X135502300Y-81508600D03*
X141857899Y-83875575D03*
%TO.N,/GPIO0*%
X129082800Y-75996800D03*
X128398196Y-77897483D03*
D46*
%TO.N,/GPIO12*%
X118047649Y-75062094D03*
X104902000Y-68724300D03*
X105029000Y-70075700D03*
X113411000Y-74930000D03*
%TO.N,/GPIO13*%
X113022302Y-68318302D03*
X113538000Y-70075700D03*
X118364000Y-76327000D03*
X114579400Y-76200000D03*
D45*
%TO.N,/GPIO14*%
X119888000Y-83566000D03*
X122326400Y-77978000D03*
X119735600Y-82245200D03*
X122982961Y-77059975D03*
%TD*%
D47*
%TO.N,GND*%
X128001992Y-87398008D02*
X127943192Y-87398008D01*
D48*
X130775000Y-75149000D02*
X131064000Y-75438000D01*
D47*
X117781526Y-80915000D02*
X117858100Y-80838426D01*
D49*
X139547600Y-73609200D02*
X139242800Y-73914000D01*
X107340400Y-76200000D02*
X107365800Y-76225400D01*
D50*
X144869200Y-79552800D02*
X144627600Y-79552800D01*
D49*
X98940000Y-65372600D02*
X99390200Y-64922400D01*
D51*
X137495000Y-79005000D02*
X136707600Y-79005000D01*
D48*
X111472000Y-88138000D02*
X111472000Y-88662800D01*
D49*
X105638600Y-76200000D02*
X105613200Y-76225400D01*
D52*
X104325000Y-87900000D02*
X104325000Y-89045200D01*
X124875000Y-80200000D02*
X124875000Y-80084358D01*
X124875000Y-80084358D02*
X124000071Y-79209429D01*
X104325000Y-89045200D02*
X104216200Y-89154000D01*
D51*
X131572000Y-88773000D02*
X132495000Y-87850000D01*
D52*
X134625000Y-71386396D02*
X135289098Y-70722298D01*
D51*
X132495000Y-87850000D02*
X132495000Y-87503000D01*
D49*
X137959000Y-81400000D02*
X137959000Y-81559000D01*
D48*
X130775000Y-74041000D02*
X130775000Y-75149000D01*
D50*
X148248000Y-86345800D02*
X148823000Y-86920800D01*
D49*
X106440000Y-75325000D02*
X106426000Y-75311000D01*
D52*
X129455000Y-70555000D02*
X129943800Y-71043800D01*
D49*
X146558000Y-79794600D02*
X145593572Y-79794600D01*
X140195000Y-73609200D02*
X139547600Y-73609200D01*
D47*
X137388000Y-89154000D02*
X138303000Y-89154000D01*
D50*
X146164600Y-78257400D02*
X144869200Y-79552800D01*
D47*
X127943192Y-87398008D02*
X127152400Y-88188800D01*
X116450000Y-80915000D02*
X117781526Y-80915000D01*
D49*
X128192397Y-71338058D02*
X127775000Y-71755455D01*
D50*
X146507200Y-86169000D02*
X146507200Y-87172800D01*
D52*
X134625000Y-71755000D02*
X134625000Y-71386396D01*
D51*
X136707600Y-79005000D02*
X136159611Y-79005000D01*
D50*
X148248000Y-78855800D02*
X148823000Y-78280800D01*
D52*
X100237600Y-86300000D02*
X99949000Y-86588600D01*
X101125000Y-86300000D02*
X100237600Y-86300000D01*
D49*
X127362500Y-79400000D02*
X128269600Y-79400000D01*
X145593572Y-79794600D02*
X145231486Y-80156686D01*
X141242400Y-81400000D02*
X141884400Y-82042000D01*
D50*
X148248000Y-79400800D02*
X148248000Y-78855800D01*
D47*
X120777000Y-78486000D02*
X119210600Y-78486000D01*
D49*
X137959000Y-81559000D02*
X138650000Y-82250000D01*
D51*
X139400000Y-77100000D02*
X137495000Y-79005000D01*
D52*
X128674150Y-70555000D02*
X129455000Y-70555000D01*
D49*
X127775000Y-71755455D02*
X127775000Y-72390000D01*
D47*
X137825000Y-82900000D02*
X138000000Y-82900000D01*
D52*
X102716000Y-89054000D02*
X102590600Y-89179400D01*
X125529704Y-82450000D02*
X124625000Y-82450000D01*
D49*
X143968600Y-88148201D02*
X145201599Y-88148201D01*
X137725000Y-86436600D02*
X138344000Y-87055600D01*
D48*
X110210600Y-88976200D02*
X110210600Y-88332600D01*
D49*
X137725000Y-85950000D02*
X137725000Y-86436600D01*
D48*
X111472000Y-88662800D02*
X111785400Y-88976200D01*
D47*
X137802800Y-84490304D02*
X137080885Y-85212219D01*
D50*
X114960400Y-87528400D02*
X115688400Y-87528400D01*
D52*
X119798800Y-66383200D02*
X119964200Y-66217800D01*
D50*
X148248000Y-85800800D02*
X148248000Y-86345800D01*
X114554000Y-87122000D02*
X114960400Y-87528400D01*
D51*
X139400000Y-86750000D02*
X139400000Y-87711000D01*
X98940000Y-85122400D02*
X99491800Y-85674200D01*
D47*
X138303000Y-89154000D02*
X138684000Y-89535000D01*
D50*
X123650000Y-88875000D02*
X123650000Y-89583000D01*
X123650000Y-89583000D02*
X123063000Y-90170000D01*
D49*
X142784000Y-81396400D02*
X143916400Y-80264000D01*
X98940000Y-66700000D02*
X98940000Y-65372600D01*
X134493000Y-73660000D02*
X134125000Y-73660000D01*
D51*
X104272200Y-87900000D02*
X102700000Y-87900000D01*
D47*
X137802800Y-84400000D02*
X137802800Y-84490304D01*
D49*
X142784000Y-81400000D02*
X142784000Y-81396400D01*
D52*
X102716000Y-87900000D02*
X102716000Y-89054000D01*
D51*
X139400000Y-87711000D02*
X139649200Y-87960200D01*
D47*
X119210600Y-78486000D02*
X119066700Y-78629900D01*
D49*
X145201599Y-88148201D02*
X145364200Y-87985600D01*
D51*
X137734000Y-84521600D02*
X137855600Y-84400000D01*
X136159611Y-79005000D02*
X135810034Y-78655423D01*
D50*
X146507200Y-87172800D02*
X146304000Y-87376000D01*
D53*
X138000000Y-82900000D02*
X138650000Y-82250000D01*
D51*
X98940000Y-83700000D02*
X98940000Y-85122400D01*
D49*
X141008400Y-81400000D02*
X141242400Y-81400000D01*
X135255000Y-72898000D02*
X134493000Y-73660000D01*
D47*
X137825000Y-84377800D02*
X137802800Y-84400000D01*
D49*
X128269600Y-79400000D02*
X128371600Y-79502000D01*
D52*
X125714852Y-82264852D02*
X125529704Y-82450000D01*
D49*
X106440000Y-76897200D02*
X106426000Y-76911200D01*
D52*
X119798800Y-67284600D02*
X119798800Y-66383200D01*
D47*
%TO.N,+3V3*%
X129225000Y-74615000D02*
X129921000Y-75311000D01*
D51*
X133347901Y-81213723D02*
X133761624Y-80800000D01*
X138934294Y-88719000D02*
X135650000Y-85434706D01*
D47*
X133765500Y-71262593D02*
X133765500Y-72469500D01*
X135577101Y-70026998D02*
X135001095Y-70026998D01*
X126225000Y-72250000D02*
X124530000Y-70555000D01*
X145542000Y-69291200D02*
X140893800Y-69291200D01*
D51*
X129945699Y-82954301D02*
X129900000Y-83000000D01*
D47*
X129225000Y-74041000D02*
X129225000Y-74615000D01*
X129098008Y-86301992D02*
X129800000Y-85600000D01*
X123325000Y-80200000D02*
X124142900Y-81017900D01*
X120437280Y-83200000D02*
X121681000Y-83200000D01*
X123225850Y-70555000D02*
X122530850Y-71250000D01*
X140893800Y-69291200D02*
X140085500Y-70099500D01*
X126225000Y-72390000D02*
X126225000Y-72250000D01*
X148564100Y-89002100D02*
X151482768Y-86083432D01*
X101182000Y-87900000D02*
X101182000Y-87818500D01*
X121690000Y-81835000D02*
X123325000Y-80200000D01*
X121681000Y-81835000D02*
X121690000Y-81835000D01*
D51*
X142092400Y-75195000D02*
X142740100Y-75195000D01*
X142740100Y-75195000D02*
X143560800Y-76015700D01*
D47*
X129098008Y-86301992D02*
X122849276Y-86301992D01*
X122849276Y-86301992D02*
X122557100Y-86009816D01*
X122557100Y-84967900D02*
X123375000Y-84150000D01*
X101182000Y-87818500D02*
X102684000Y-86316500D01*
X134464887Y-75406800D02*
X133480500Y-76391187D01*
D51*
X134062500Y-83537500D02*
X133762500Y-83837500D01*
D50*
X121359300Y-69037200D02*
X121869200Y-69037200D01*
D47*
X100210000Y-83700000D02*
X100210000Y-84510000D01*
X130090500Y-73175500D02*
X129225000Y-74041000D01*
D51*
X128666000Y-74300000D02*
X129216000Y-73750000D01*
D48*
X129800000Y-76962500D02*
X129800000Y-76300500D01*
D47*
X151482768Y-86083432D02*
X151482768Y-75231968D01*
D51*
X134062500Y-83537500D02*
X133346000Y-82821000D01*
X133346000Y-82821000D02*
X133347901Y-82819099D01*
D47*
X134239000Y-84836000D02*
X134887500Y-84187500D01*
D51*
X133346000Y-82821000D02*
X133212699Y-82954301D01*
D47*
X129800000Y-85600000D02*
X129800000Y-84677600D01*
X121681000Y-83200000D02*
X121681000Y-81835000D01*
X124530000Y-70555000D02*
X124530000Y-69005600D01*
X141290000Y-83000000D02*
X141058400Y-83000000D01*
X133533600Y-74978087D02*
X133533600Y-76338087D01*
X122530850Y-71250000D02*
X121312500Y-71250000D01*
X101806328Y-85400000D02*
X102684000Y-86277672D01*
X135122200Y-74579814D02*
X135122200Y-75037736D01*
D48*
X129800000Y-83837500D02*
X129800000Y-83100000D01*
D51*
X140462000Y-87884000D02*
X140462000Y-88220506D01*
D47*
X135001095Y-70026998D02*
X133765500Y-71262593D01*
D51*
X134237500Y-83537500D02*
X134062500Y-83537500D01*
D47*
X122950000Y-84150000D02*
X122200000Y-83400000D01*
D51*
X127250000Y-74300000D02*
X128666000Y-74300000D01*
D47*
X100210000Y-83700000D02*
X100210000Y-82319000D01*
X135649603Y-70099500D02*
X135577101Y-70026998D01*
D48*
X129800000Y-84677600D02*
X129800000Y-83837500D01*
D51*
X129216000Y-73750000D02*
X129250000Y-73716000D01*
D47*
X133480500Y-76391187D02*
X133480500Y-76962500D01*
D51*
X141350000Y-85650000D02*
X140462000Y-86538000D01*
D47*
X135122200Y-75037736D02*
X134753136Y-75406800D01*
X132090500Y-73175500D02*
X130090500Y-73175500D01*
X140085500Y-70099500D02*
X135649603Y-70099500D01*
D51*
X140462000Y-88220506D02*
X139963506Y-88719000D01*
D47*
X140462000Y-87884000D02*
X141580100Y-89002100D01*
D51*
X133761624Y-80800000D02*
X134400000Y-80800000D01*
X129250000Y-73716000D02*
X129250000Y-72150000D01*
X127250000Y-74300000D02*
X127250000Y-73415000D01*
X140650000Y-83550000D02*
X141200000Y-83000000D01*
D47*
X151482768Y-75231968D02*
X145542000Y-69291200D01*
D51*
X140093000Y-71640000D02*
X139340000Y-71640000D01*
D48*
X129800000Y-83100000D02*
X129900000Y-83000000D01*
D50*
X126664000Y-80600000D02*
X126644400Y-80619600D01*
X121869200Y-69037200D02*
X122298200Y-68608200D01*
D51*
X127250000Y-73415000D02*
X126225000Y-72390000D01*
D47*
X101100000Y-85400000D02*
X101806328Y-85400000D01*
D51*
X142100000Y-86250000D02*
X141500000Y-85650000D01*
D47*
X124530000Y-69005600D02*
X124155200Y-68630800D01*
X124530000Y-70555000D02*
X123225850Y-70555000D01*
X100210000Y-82319000D02*
X100371320Y-82157680D01*
X124142900Y-81017900D02*
X126093700Y-81017900D01*
D51*
X142092400Y-75195000D02*
X142092400Y-73956600D01*
X143560800Y-76015700D02*
X143560800Y-76810931D01*
X143560800Y-76810931D02*
X144614600Y-77864731D01*
X136200000Y-84400000D02*
X135650000Y-84950000D01*
X135650000Y-85434706D02*
X135650000Y-84950000D01*
D47*
X132575000Y-73660000D02*
X132090500Y-73175500D01*
D50*
X124132600Y-68608200D02*
X124155200Y-68630800D01*
D51*
X140462000Y-86538000D02*
X140462000Y-87884000D01*
X133212699Y-82954301D02*
X129945699Y-82954301D01*
D47*
X122000000Y-83200000D02*
X122200000Y-83400000D01*
X126093700Y-81017900D02*
X126492000Y-80619600D01*
X136525000Y-72771000D02*
X136525000Y-73177014D01*
X129921000Y-75311000D02*
X129921000Y-76179500D01*
D50*
X127362500Y-80600000D02*
X126664000Y-80600000D01*
X122298200Y-68608200D02*
X124132600Y-68608200D01*
D47*
X100371320Y-82157680D02*
X118732800Y-82157680D01*
X141058400Y-83000000D02*
X139458400Y-81400000D01*
X123475000Y-84150000D02*
X122950000Y-84150000D01*
D51*
X140650000Y-84800000D02*
X140650000Y-83550000D01*
D47*
X134239000Y-85535000D02*
X134239000Y-84836000D01*
X100210000Y-84510000D02*
X101100000Y-85400000D01*
D51*
X141500000Y-85650000D02*
X140650000Y-84800000D01*
D47*
X119493920Y-82918800D02*
X120156080Y-82918800D01*
D51*
X141500000Y-85650000D02*
X141350000Y-85650000D01*
D47*
X133533600Y-76338087D02*
X133480500Y-76391187D01*
D51*
X134887500Y-84187500D02*
X134237500Y-83537500D01*
D47*
X133765500Y-72469500D02*
X132575000Y-73660000D01*
X102684000Y-86277672D02*
X102684000Y-86300000D01*
D51*
X143968600Y-86248199D02*
X142098199Y-86248199D01*
X144614600Y-77864731D02*
X144614600Y-78257400D01*
D47*
X134753136Y-75406800D02*
X134464887Y-75406800D01*
X122557100Y-86009816D02*
X122557100Y-84967900D01*
D51*
X133347901Y-82819099D02*
X133347901Y-81213723D01*
X141745000Y-73292000D02*
X140093000Y-71640000D01*
D47*
X102684000Y-86316500D02*
X102684000Y-86300000D01*
X121681000Y-83200000D02*
X122000000Y-83200000D01*
X141580100Y-89002100D02*
X148564100Y-89002100D01*
X132575000Y-73660000D02*
X132575000Y-74019487D01*
D51*
X141745000Y-73609200D02*
X141745000Y-73292000D01*
D47*
X137656000Y-71640000D02*
X136525000Y-72771000D01*
D51*
X134237500Y-83537500D02*
X134237500Y-82754000D01*
X139963506Y-88719000D02*
X138934294Y-88719000D01*
D47*
X120156080Y-82918800D02*
X120437280Y-83200000D01*
D51*
X133762500Y-83837500D02*
X133554000Y-83837500D01*
D48*
X129800000Y-76300500D02*
X129921000Y-76179500D01*
D51*
X135650000Y-84950000D02*
X134887500Y-84187500D01*
D47*
X139270000Y-71640000D02*
X137656000Y-71640000D01*
X118732800Y-82157680D02*
X119493920Y-82918800D01*
X126492000Y-80619600D02*
X126644400Y-80619600D01*
D51*
X142092400Y-73956600D02*
X141745000Y-73609200D01*
D47*
X132575000Y-74019487D02*
X133533600Y-74978087D01*
X136525000Y-73177014D02*
X135122200Y-74579814D01*
D49*
%TO.N,Net-(C10-Pad1)*%
X132842000Y-82346800D02*
X132740400Y-82448400D01*
X135524310Y-80924400D02*
X135933400Y-80924400D01*
X134237500Y-80200000D02*
X133646172Y-80200000D01*
D53*
X126063592Y-81640000D02*
X123885000Y-81640000D01*
D49*
X135933400Y-80924400D02*
X136409000Y-81400000D01*
X128052400Y-81231813D02*
X127820587Y-81000000D01*
X134923582Y-82504469D02*
X135274713Y-82855600D01*
X135274713Y-82855600D02*
X136400000Y-82855600D01*
X134237500Y-80200000D02*
X134799910Y-80200000D01*
D53*
X123885000Y-81640000D02*
X123075000Y-82450000D01*
X126817790Y-81038201D02*
X126665391Y-81038201D01*
D49*
X134695313Y-82200000D02*
X134923582Y-82428269D01*
D53*
X127362500Y-81000000D02*
X126855991Y-81000000D01*
X126665391Y-81038201D02*
X126063592Y-81640000D01*
D49*
X134237500Y-82200000D02*
X134695313Y-82200000D01*
X134799910Y-80200000D02*
X135524310Y-80924400D01*
D53*
X126855991Y-81000000D02*
X126817790Y-81038201D01*
D49*
X129082800Y-82448400D02*
X128052400Y-81418000D01*
X132870972Y-80975200D02*
X132842000Y-80975200D01*
X128052400Y-81418000D02*
X128052400Y-81231813D01*
X134923582Y-82428269D02*
X134923582Y-82504469D01*
X136400000Y-82855600D02*
X136400000Y-81400000D01*
X132842000Y-80975200D02*
X132842000Y-82346800D01*
X133646172Y-80200000D02*
X132870972Y-80975200D01*
X132740400Y-82448400D02*
X129082800Y-82448400D01*
X127820587Y-81000000D02*
X127362500Y-81000000D01*
D50*
%TO.N,/VBUS*%
X148780800Y-80200800D02*
X148996400Y-80416400D01*
X148941600Y-84890800D02*
X149250400Y-84582000D01*
X148789200Y-84890800D02*
X148807999Y-84890800D01*
D51*
X150770700Y-79607300D02*
X149758400Y-80619600D01*
D47*
X145008600Y-87198200D02*
X141578200Y-87198200D01*
D51*
X150770700Y-79251700D02*
X150770700Y-83112500D01*
D47*
X147335493Y-85000800D02*
X147026793Y-85309500D01*
D51*
X150770700Y-83112500D02*
X149301200Y-84582000D01*
D47*
X148248000Y-85000800D02*
X147335493Y-85000800D01*
D50*
X148789200Y-84890800D02*
X148941600Y-84890800D01*
X148789200Y-84890800D02*
X148852700Y-84827300D01*
D47*
X145641700Y-86565100D02*
X145008600Y-87198200D01*
X148248000Y-85000800D02*
X148679200Y-85000800D01*
X145641700Y-85724407D02*
X145641700Y-86565100D01*
D50*
X149047200Y-80416400D02*
X149250400Y-80619600D01*
D47*
X146056607Y-85309500D02*
X145641700Y-85724407D01*
D50*
X147419000Y-80200800D02*
X147051000Y-80568800D01*
D51*
X150770700Y-79251700D02*
X150770700Y-79607300D01*
D50*
X148996400Y-80416400D02*
X149047200Y-80416400D01*
D51*
X150770700Y-76340700D02*
X150770700Y-79251700D01*
D50*
X148248000Y-80200800D02*
X148780800Y-80200800D01*
X149250400Y-84582000D02*
X149301200Y-84582000D01*
X148248000Y-80200800D02*
X147419000Y-80200800D01*
D51*
X145000000Y-70570000D02*
X150770700Y-76340700D01*
D47*
X146177000Y-80568800D02*
X145345800Y-81400000D01*
X147051000Y-80568800D02*
X146177000Y-80568800D01*
X145345800Y-81400000D02*
X144334000Y-81400000D01*
X148679200Y-85000800D02*
X148789200Y-84890800D01*
D51*
X149758400Y-80619600D02*
X149276500Y-80619600D01*
D47*
X147026793Y-85309500D02*
X146056607Y-85309500D01*
D49*
%TO.N,/GPIO15*%
X101480000Y-84380000D02*
X101480000Y-83700000D01*
X119574600Y-79233600D02*
X119574600Y-80138400D01*
X104000000Y-85000000D02*
X102100000Y-85000000D01*
X119814200Y-78994000D02*
X119574600Y-79233600D01*
X122732800Y-78994000D02*
X119814200Y-78994000D01*
X120700800Y-83870800D02*
X120700800Y-87344200D01*
X104287500Y-85287500D02*
X104000000Y-85000000D01*
X120700800Y-81264600D02*
X120700800Y-82448400D01*
X104287500Y-86000000D02*
X104287500Y-86259700D01*
X119574600Y-80138400D02*
X120700800Y-81264600D01*
X125820473Y-79000000D02*
X124279444Y-77458971D01*
X114427000Y-89662000D02*
X107637000Y-89662000D01*
X104287500Y-86259700D02*
X105927800Y-87900000D01*
X104287500Y-86000000D02*
X104287500Y-85287500D01*
X124279444Y-77458971D02*
X123631566Y-77458971D01*
X102100000Y-85000000D02*
X101480000Y-84380000D01*
X114457200Y-89631800D02*
X114427000Y-89662000D01*
X127362500Y-79000000D02*
X125820473Y-79000000D01*
X118413200Y-89631800D02*
X114457200Y-89631800D01*
X120700800Y-87344200D02*
X118413200Y-89631800D01*
X122986800Y-78638400D02*
X122986800Y-78740000D01*
X107637000Y-89662000D02*
X105875000Y-87900000D01*
X122986800Y-78740000D02*
X122732800Y-78994000D01*
%TO.N,/Light_Sensing/AO*%
X122155000Y-66745000D02*
X123225850Y-66745000D01*
X123225850Y-66745000D02*
X123880850Y-67400000D01*
X121348800Y-67284600D02*
X121286900Y-67284600D01*
X121348800Y-67284600D02*
X121615400Y-67284600D01*
X121286900Y-67284600D02*
X119534300Y-69037200D01*
X131507400Y-67400000D02*
X132638800Y-66268600D01*
X121615400Y-67284600D02*
X122155000Y-66745000D01*
X123880850Y-67400000D02*
X131507400Y-67400000D01*
D50*
%TO.N,Net-(D1-Pad2)*%
X130395000Y-87503000D02*
X130395000Y-86432000D01*
X130395000Y-86432000D02*
X130975000Y-85852000D01*
D49*
%TO.N,Net-(D2-Pad2)*%
X139730000Y-83000000D02*
X139730000Y-84320000D01*
X139730000Y-84320000D02*
X139400000Y-84650000D01*
%TO.N,Net-(D3-Pad2)*%
X113572000Y-87460800D02*
X113572000Y-88138000D01*
X112370000Y-86000000D02*
X112370000Y-86258800D01*
X112370000Y-86258800D02*
X113572000Y-87460800D01*
%TO.N,Net-(D4-Pad2)*%
X107800000Y-88000000D02*
X107789000Y-88011000D01*
X107800000Y-86000000D02*
X107800000Y-88000000D01*
%TO.N,Net-(D5-Pad2)*%
X118620000Y-86696800D02*
X117788400Y-87528400D01*
X117150000Y-86050000D02*
X118620000Y-86050000D01*
X118620000Y-86050000D02*
X118620000Y-86696800D01*
X115470000Y-86000000D02*
X117100000Y-86000000D01*
X117100000Y-86000000D02*
X117150000Y-86050000D01*
%TO.N,Net-(D6-Pad1)*%
X132975000Y-71755000D02*
X131745000Y-71755000D01*
X131745000Y-71755000D02*
X131350000Y-72150000D01*
%TO.N,Net-(D7-Pad1)*%
X124435000Y-73585000D02*
X124435000Y-72700000D01*
X125150000Y-74300000D02*
X124435000Y-73585000D01*
%TO.N,Net-(J1-PadA5)*%
X147175400Y-83850800D02*
X148248000Y-83850800D01*
X146507200Y-84519000D02*
X147175400Y-83850800D01*
%TO.N,Net-(J1-PadA6)*%
X148248000Y-82850800D02*
X147265200Y-82850800D01*
X146253706Y-82931000D02*
X145274800Y-82931000D01*
X147333907Y-81850800D02*
X146799553Y-82385153D01*
X146799553Y-82385153D02*
X146253706Y-82931000D01*
X147265200Y-82850800D02*
X146799553Y-82385153D01*
X148248000Y-81850800D02*
X147333907Y-81850800D01*
%TO.N,Net-(J1-PadA7)*%
X144970000Y-84531200D02*
X145218487Y-84531200D01*
D48*
X149124600Y-82399200D02*
X149124600Y-83302400D01*
X149124600Y-83302400D02*
X149076200Y-83350800D01*
X149076200Y-82350800D02*
X149124600Y-82399200D01*
X149076200Y-83350800D02*
X148248000Y-83350800D01*
D49*
X145218487Y-84531200D02*
X146398887Y-83350800D01*
D48*
X148248000Y-82350800D02*
X149076200Y-82350800D01*
D49*
X146398887Y-83350800D02*
X148248000Y-83350800D01*
%TO.N,Net-(J1-PadB5)*%
X146829200Y-81444600D02*
X147423000Y-80850800D01*
X147423000Y-80850800D02*
X148248000Y-80850800D01*
X146558000Y-81444600D02*
X146829200Y-81444600D01*
D53*
%TO.N,/GPIO3*%
X137753685Y-72624656D02*
X135763000Y-74615341D01*
X135763000Y-75311000D02*
X134315200Y-76758800D01*
X142494000Y-73144000D02*
X145000000Y-75650000D01*
X142494000Y-72644000D02*
X142494000Y-73144000D01*
X131800000Y-77901200D02*
X131927600Y-78028800D01*
X135763000Y-74615341D02*
X135763000Y-75311000D01*
X137927017Y-72624656D02*
X137753685Y-72624656D01*
X131800000Y-76962500D02*
X131800000Y-77901200D01*
%TO.N,/GPIO2*%
X135861132Y-72291868D02*
X135861132Y-73080193D01*
X132791200Y-75285600D02*
X132200000Y-75876800D01*
X145000000Y-73110000D02*
X142629000Y-70739000D01*
X142629000Y-70739000D02*
X137414000Y-70739000D01*
X137414000Y-70739000D02*
X135861132Y-72291868D01*
X132200000Y-75876800D02*
X132200000Y-76962500D01*
X135861132Y-73080193D02*
X134242988Y-74698337D01*
%TO.N,/RUN*%
X125679400Y-84150000D02*
X124925000Y-84150000D01*
X126142800Y-82691515D02*
X126142800Y-83686600D01*
X127362500Y-82200000D02*
X126634314Y-82200000D01*
X126634314Y-82200000D02*
X126142800Y-82691515D01*
D49*
X124925000Y-84150000D02*
X124925000Y-84640685D01*
X123940685Y-85625000D02*
X123650000Y-85625000D01*
D53*
X126142800Y-83686600D02*
X125679400Y-84150000D01*
D49*
X124925000Y-84640685D02*
X123940685Y-85625000D01*
%TO.N,/BOOT*%
X135744000Y-75841100D02*
X136390100Y-75195000D01*
X133350000Y-84911550D02*
X133350000Y-86296000D01*
X135744000Y-76251926D02*
X135744000Y-75841100D01*
X133311479Y-84873029D02*
X133350000Y-84911550D01*
X134237500Y-77758426D02*
X135744000Y-76251926D01*
X133049533Y-78405467D02*
X133049533Y-79706266D01*
X133600000Y-77855000D02*
X133350000Y-78105000D01*
D47*
X134239000Y-87185000D02*
X134239000Y-89053000D01*
D49*
X133350000Y-78105000D02*
X133049533Y-78405467D01*
D47*
X134239000Y-89053000D02*
X134138000Y-89154000D01*
D49*
X133600000Y-77800000D02*
X134237500Y-77800000D01*
X136390100Y-75195000D02*
X136707600Y-75195000D01*
X133350000Y-86296000D02*
X134239000Y-87185000D01*
X134237500Y-77800000D02*
X134237500Y-77758426D01*
X133600000Y-77800000D02*
X133600000Y-77855000D01*
%TO.N,Net-(R5-Pad2)*%
X135006406Y-81800000D02*
X135480282Y-82273876D01*
X143320000Y-84531200D02*
X141926156Y-84531200D01*
X134237500Y-81800000D02*
X135006406Y-81800000D01*
X141926156Y-84531200D02*
X141776757Y-84680599D01*
%TO.N,Net-(R6-Pad2)*%
X135502300Y-81508600D02*
X135393700Y-81400000D01*
X142802474Y-82931000D02*
X141857899Y-83875575D01*
X135393700Y-81400000D02*
X134237500Y-81400000D01*
X143624800Y-82931000D02*
X142802474Y-82931000D01*
%TO.N,/GPIO25*%
X132535000Y-86160646D02*
X131400002Y-85025648D01*
X131400002Y-85025648D02*
X131400000Y-83837500D01*
%TO.N,/WiFi_Module/RED*%
X111640000Y-85260000D02*
X110900000Y-86000000D01*
X111640000Y-83700000D02*
X111640000Y-85260000D01*
D53*
%TO.N,/WiFi_Module/GREEN*%
X110370000Y-83700000D02*
X110370000Y-84900000D01*
X110370000Y-84900000D02*
X109270000Y-86000000D01*
D49*
%TO.N,/WiFi_Module/BLUE*%
X112910000Y-84900000D02*
X114000000Y-85990000D01*
X112910000Y-83700000D02*
X112910000Y-84900000D01*
X114000000Y-85990000D02*
X114000000Y-86000000D01*
D53*
%TO.N,/GPIO0*%
X132949483Y-77760552D02*
X132949483Y-77595200D01*
X128398196Y-77897483D02*
X129062413Y-78561700D01*
D49*
X123225850Y-69285000D02*
X122762300Y-69285000D01*
X122875000Y-72700000D02*
X120937500Y-72700000D01*
X128270000Y-75184000D02*
X129082800Y-75996800D01*
X127965200Y-75184000D02*
X128270000Y-75184000D01*
X120487500Y-70250000D02*
X119487500Y-71250000D01*
X126542800Y-75184000D02*
X127965200Y-75184000D01*
D53*
X133000000Y-77545200D02*
X133000000Y-76962500D01*
D49*
X126034800Y-74523600D02*
X126034800Y-74676000D01*
X126034800Y-74676000D02*
X126542800Y-75184000D01*
X120937500Y-72700000D02*
X119487500Y-71250000D01*
X123693000Y-71882000D02*
X124968000Y-71882000D01*
X121797300Y-70250000D02*
X120487500Y-70250000D01*
X125522600Y-72967800D02*
X126034800Y-73480000D01*
X122762300Y-69285000D02*
X121797300Y-70250000D01*
X126034800Y-73480000D02*
X126034800Y-74523600D01*
X124968000Y-71882000D02*
X125522600Y-72436600D01*
D53*
X132148335Y-78561700D02*
X132949483Y-77760552D01*
D49*
X123225850Y-69285000D02*
X122752500Y-69285000D01*
X125522600Y-72436600D02*
X125522600Y-72967800D01*
D53*
X129062413Y-78561700D02*
X132148335Y-78561700D01*
D49*
X122875000Y-72700000D02*
X123693000Y-71882000D01*
D53*
X132950000Y-77595200D02*
X133000000Y-77545200D01*
D49*
%TO.N,Net-(RV1-Pad2)*%
X124333000Y-68072000D02*
X124276000Y-68015000D01*
X125096700Y-68581700D02*
X124587000Y-68072000D01*
X138751700Y-68581700D02*
X139270000Y-69100000D01*
X124587000Y-68072000D02*
X124333000Y-68072000D01*
X125096700Y-68581700D02*
X138751700Y-68581700D01*
X124276000Y-68015000D02*
X123225850Y-68015000D01*
D53*
%TO.N,/GPIO10*%
X114319314Y-69000000D02*
X114984314Y-68335000D01*
X118600000Y-69019315D02*
X118600000Y-72820310D01*
X114984314Y-68335000D02*
X117915685Y-68335000D01*
X128137504Y-75974600D02*
X128600000Y-76437096D01*
X125972595Y-75128599D02*
X126356097Y-75512101D01*
X126647441Y-75512101D02*
X127109940Y-75974600D01*
D49*
X109100000Y-67700000D02*
X109100000Y-66700000D01*
D53*
X126356097Y-75512101D02*
X126647441Y-75512101D01*
X110400000Y-69000000D02*
X114319314Y-69000000D01*
X118600000Y-72820310D02*
X120531890Y-74752200D01*
X124073144Y-74752200D02*
X124449543Y-75128599D01*
X124449543Y-75128599D02*
X125972595Y-75128599D01*
D49*
X128600000Y-76962500D02*
X128600000Y-76437096D01*
D53*
X117915685Y-68335000D02*
X118600000Y-69019315D01*
X120531890Y-74752200D02*
X124073144Y-74752200D01*
X127109940Y-75974600D02*
X128137504Y-75974600D01*
X109100000Y-67700000D02*
X110400000Y-69000000D01*
%TO.N,/GPIO11*%
X126521395Y-75816402D02*
X127667493Y-76962500D01*
X115150000Y-68735000D02*
X117692500Y-68735000D01*
X114485000Y-69400000D02*
X115150000Y-68735000D01*
X125846551Y-75432901D02*
X126230052Y-75816402D01*
X117692500Y-68735000D02*
X118200000Y-69242500D01*
X118200000Y-72918678D02*
X120714223Y-75432901D01*
X127667493Y-76962500D02*
X128200000Y-76962500D01*
X102750000Y-67550000D02*
X104600000Y-69400000D01*
D49*
X102750000Y-67550000D02*
X102750000Y-66700000D01*
D53*
X118200000Y-69242500D02*
X118200000Y-72918678D01*
X120714223Y-75432901D02*
X125846551Y-75432901D01*
X104600000Y-69400000D02*
X114485000Y-69400000D01*
X126230052Y-75816402D02*
X126521395Y-75816402D01*
D49*
%TO.N,/GPIO12*%
X104902000Y-68724300D02*
X104020000Y-67842300D01*
X104020000Y-67842300D02*
X104020000Y-66700000D01*
X113411000Y-74930000D02*
X108556700Y-70075700D01*
X119136929Y-76151374D02*
X123359317Y-76151374D01*
X125326967Y-76162903D02*
X126964064Y-77800000D01*
X123359317Y-76151374D02*
X123370846Y-76162903D01*
X118047649Y-75062094D02*
X119136929Y-76151374D01*
X108556700Y-70075700D02*
X105029000Y-70075700D01*
X126964064Y-77800000D02*
X127362500Y-77800000D01*
X123370846Y-76162903D02*
X125326967Y-76162903D01*
%TO.N,/GPIO13*%
X127362500Y-78200000D02*
X126134527Y-78200000D01*
X126134527Y-78200000D02*
X124449331Y-76514804D01*
X111208302Y-68318302D02*
X110370000Y-67480000D01*
X114452400Y-76073000D02*
X114452400Y-70990100D01*
X124449331Y-76514804D02*
X123225083Y-76514804D01*
X114452400Y-70990100D02*
X113538000Y-70075700D01*
X123213554Y-76503275D02*
X118540275Y-76503275D01*
X123225083Y-76514804D02*
X123213554Y-76503275D01*
X113022302Y-68318302D02*
X111208302Y-68318302D01*
X118540275Y-76503275D02*
X118364000Y-76327000D01*
X114579400Y-76200000D02*
X114452400Y-76073000D01*
X110370000Y-67480000D02*
X110370000Y-66700000D01*
%TO.N,/GPIO14*%
X118414800Y-78232000D02*
X118414800Y-80924400D01*
D53*
X114881023Y-88671400D02*
X114296823Y-89255600D01*
X111970000Y-86800000D02*
X108974200Y-86800000D01*
D49*
X124201969Y-76866705D02*
X123176231Y-76866705D01*
X122326400Y-77978000D02*
X118668800Y-77978000D01*
X123176231Y-76866705D02*
X122982961Y-77059975D01*
X119888000Y-87367718D02*
X119680659Y-87575059D01*
D53*
X112788000Y-89255600D02*
X112395000Y-88862600D01*
D49*
X127362500Y-78600000D02*
X125935264Y-78600000D01*
X125935264Y-78600000D02*
X124201969Y-76866705D01*
X118668800Y-77978000D02*
X118414800Y-78232000D01*
D53*
X108660000Y-84140000D02*
X109100000Y-83700000D01*
X118584317Y-88671400D02*
X117957600Y-88671400D01*
D49*
X119888000Y-83566000D02*
X119888000Y-87367718D01*
X118414800Y-80924400D02*
X119735600Y-82245200D01*
X119680659Y-87575059D02*
X118584317Y-88671400D01*
D53*
X108974200Y-86800000D02*
X108660000Y-86485800D01*
X112395000Y-88862600D02*
X112395000Y-87225000D01*
X108660000Y-86485800D02*
X108660000Y-84140000D01*
X112395000Y-87225000D02*
X111970000Y-86800000D01*
X117957600Y-88671400D02*
X114881023Y-88671400D01*
X114296823Y-89255600D02*
X112788000Y-89255600D01*
D49*
%TO.N,Net-(U1-Pad20)*%
X124338480Y-78015671D02*
X123151364Y-78015671D01*
X122421693Y-77286000D02*
X120777000Y-77286000D01*
X123151364Y-78015671D02*
X122421693Y-77286000D01*
X126122809Y-79800000D02*
X124338480Y-78015671D01*
X127362500Y-79800000D02*
X126122809Y-79800000D01*
%TO.N,Net-(U1-Pad21)*%
X126308751Y-80177199D02*
X126285950Y-80200000D01*
X123061638Y-79245900D02*
X122621538Y-79686000D01*
X126285950Y-80200000D02*
X126025146Y-80200000D01*
X122621538Y-79686000D02*
X120777000Y-79686000D01*
X124477375Y-78652229D02*
X123760264Y-78652229D01*
X123760264Y-78652229D02*
X123166593Y-79245900D01*
X126827648Y-80177199D02*
X126308751Y-80177199D01*
X127362500Y-80200000D02*
X126850449Y-80200000D01*
X126025146Y-80200000D02*
X124477375Y-78652229D01*
X126850449Y-80200000D02*
X126827648Y-80177199D01*
X123166593Y-79245900D02*
X123061638Y-79245900D01*
%TO.N,Net-(U1-Pad51)*%
X142740057Y-80451100D02*
X143455501Y-79735656D01*
X143455501Y-77510601D02*
X142409900Y-76465000D01*
X135619729Y-80451100D02*
X142740057Y-80451100D01*
X143455501Y-79735656D02*
X143455501Y-77510601D01*
X134237500Y-79800000D02*
X134968628Y-79800000D01*
X134968628Y-79800000D02*
X135619729Y-80451100D01*
X142409900Y-76465000D02*
X142092400Y-76465000D01*
%TO.N,Net-(U1-Pad52)*%
X142409900Y-77735000D02*
X142092400Y-77735000D01*
X142473477Y-80051100D02*
X143056000Y-79468577D01*
X134237500Y-79400000D02*
X135134314Y-79400000D01*
X143056000Y-79468577D02*
X143056000Y-78381100D01*
X135134314Y-79400000D02*
X135785414Y-80051100D01*
X135785414Y-80051100D02*
X142473477Y-80051100D01*
X143056000Y-78381100D02*
X142409900Y-77735000D01*
%TO.N,Net-(U1-Pad53)*%
X135951100Y-79651100D02*
X141446300Y-79651100D01*
X134237500Y-79000000D02*
X135300000Y-79000000D01*
X135300000Y-79000000D02*
X135951100Y-79651100D01*
X141446300Y-79651100D02*
X142092400Y-79005000D01*
%TO.N,Net-(U1-Pad54)*%
X135279800Y-78114155D02*
X134793955Y-78600000D01*
X136707600Y-77735000D02*
X136028000Y-77735000D01*
X135801452Y-77508452D02*
X135279800Y-78030104D01*
X134793955Y-78600000D02*
X134237500Y-78600000D01*
X135279800Y-78030104D02*
X135279800Y-78114155D01*
X136028000Y-77735000D02*
X135801452Y-77508452D01*
%TO.N,Net-(U1-Pad55)*%
X136346536Y-76465000D02*
X136707600Y-76465000D01*
X134611536Y-78200000D02*
X134669136Y-78142400D01*
X134927400Y-77968187D02*
X134927400Y-77884136D01*
X134927400Y-77884136D02*
X136346536Y-76465000D01*
X134753187Y-78142400D02*
X134927400Y-77968187D01*
X134669136Y-78142400D02*
X134753187Y-78142400D01*
X134237500Y-78200000D02*
X134611536Y-78200000D01*
%TD*%
M02*
