%TF.GenerationSoftware,KiCad,Pcbnew,6.0.7-f9a2dced07~116~ubuntu20.04.1*%
%TF.CreationDate,2022-11-29T22:38:20-05:00*%
%TF.ProjectId,Final_project_no_connector,46696e61-6c5f-4707-926f-6a6563745f6e,rev?*%
%TF.SameCoordinates,Original*%
%TF.FileFunction,Soldermask,Top*%
%TF.FilePolarity,Negative*%
%FSLAX46Y46*%
G04 Gerber Fmt 4.6, Leading zero omitted, Abs format (unit mm)*
G04 Created by KiCad (PCBNEW 6.0.7-f9a2dced07~116~ubuntu20.04.1) date 2022-11-29 22:38:20*
%MOMM*%
%LPD*%
G01*
G04 APERTURE LIST*
G04 Aperture macros list*
%AMRoundRect*
0 Rectangle with rounded corners*
0 $1 Rounding radius*
0 $2 $3 $4 $5 $6 $7 $8 $9 X,Y pos of 4 corners*
0 Add a 4 corners polygon primitive as box body*
4,1,4,$2,$3,$4,$5,$6,$7,$8,$9,$2,$3,0*
0 Add four circle primitives for the rounded corners*
1,1,$1+$1,$2,$3*
1,1,$1+$1,$4,$5*
1,1,$1+$1,$6,$7*
1,1,$1+$1,$8,$9*
0 Add four rect primitives between the rounded corners*
20,1,$1+$1,$2,$3,$4,$5,0*
20,1,$1+$1,$4,$5,$6,$7,0*
20,1,$1+$1,$6,$7,$8,$9,0*
20,1,$1+$1,$8,$9,$2,$3,0*%
G04 Aperture macros list end*
%ADD10RoundRect,0.225000X-0.225000X-0.250000X0.225000X-0.250000X0.225000X0.250000X-0.225000X0.250000X0*%
%ADD11R,1.460500X0.533400*%
%ADD12RoundRect,0.101600X-0.609600X-0.292100X0.609600X-0.292100X0.609600X0.292100X-0.609600X0.292100X0*%
%ADD13RoundRect,0.101600X-1.701800X1.993900X-1.701800X-1.993900X1.701800X-1.993900X1.701800X1.993900X0*%
%ADD14R,1.218000X1.218000*%
%ADD15C,1.218000*%
%ADD16RoundRect,0.200000X0.200000X0.275000X-0.200000X0.275000X-0.200000X-0.275000X0.200000X-0.275000X0*%
%ADD17RoundRect,0.200000X-0.200000X-0.275000X0.200000X-0.275000X0.200000X0.275000X-0.200000X0.275000X0*%
%ADD18RoundRect,0.200000X0.275000X-0.200000X0.275000X0.200000X-0.275000X0.200000X-0.275000X-0.200000X0*%
%ADD19R,1.200000X1.200000*%
%ADD20R,1.900000X0.400000*%
%ADD21RoundRect,0.225000X0.225000X0.250000X-0.225000X0.250000X-0.225000X-0.250000X0.225000X-0.250000X0*%
%ADD22C,0.650000*%
%ADD23R,1.150000X0.600000*%
%ADD24R,1.150000X0.300000*%
%ADD25O,2.100000X1.050000*%
%ADD26O,2.000000X1.000000*%
%ADD27RoundRect,0.055000X0.220000X0.695000X-0.220000X0.695000X-0.220000X-0.695000X0.220000X-0.695000X0*%
%ADD28RoundRect,0.200000X-0.275000X0.200000X-0.275000X-0.200000X0.275000X-0.200000X0.275000X0.200000X0*%
%ADD29RoundRect,0.055000X0.695000X-0.220000X0.695000X0.220000X-0.695000X0.220000X-0.695000X-0.220000X0*%
%ADD30R,0.900000X2.000000*%
%ADD31R,2.000000X0.900000*%
%ADD32R,5.000000X5.000000*%
%ADD33RoundRect,0.250000X0.262500X0.450000X-0.262500X0.450000X-0.262500X-0.450000X0.262500X-0.450000X0*%
%ADD34R,1.320800X0.939800*%
%ADD35R,1.270000X1.270000*%
%ADD36C,1.270000*%
%ADD37RoundRect,0.225000X-0.017678X0.335876X-0.335876X0.017678X0.017678X-0.335876X0.335876X-0.017678X0*%
%ADD38R,1.700000X1.700000*%
%ADD39O,1.700000X1.700000*%
%ADD40RoundRect,0.045000X-0.045000X-0.392500X0.045000X-0.392500X0.045000X0.392500X-0.045000X0.392500X0*%
%ADD41RoundRect,0.045000X0.392500X-0.045000X0.392500X0.045000X-0.392500X0.045000X-0.392500X-0.045000X0*%
%ADD42RoundRect,0.045000X0.045000X0.392500X-0.045000X0.392500X-0.045000X-0.392500X0.045000X-0.392500X0*%
%ADD43RoundRect,0.045000X-0.392500X0.045000X-0.392500X-0.045000X0.392500X-0.045000X0.392500X0.045000X0*%
%ADD44RoundRect,0.160000X-1.440000X1.440000X-1.440000X-1.440000X1.440000X-1.440000X1.440000X1.440000X0*%
%ADD45C,0.609600*%
G04 APERTURE END LIST*
D10*
%TO.C,C1*%
X140195000Y-73609200D03*
X141745000Y-73609200D03*
%TD*%
%TO.C,C3*%
X129225000Y-74041000D03*
X130775000Y-74041000D03*
%TD*%
D11*
%TO.C,U5*%
X123225850Y-66745000D03*
X123225850Y-68015000D03*
X123225850Y-69285000D03*
X123225850Y-70555000D03*
X128674150Y-70555000D03*
X128674150Y-69285000D03*
X128674150Y-68015000D03*
X128674150Y-66745000D03*
%TD*%
D10*
%TO.C,C11*%
X136409000Y-81400000D03*
X137959000Y-81400000D03*
%TD*%
%TO.C,C10*%
X123075000Y-82450000D03*
X124625000Y-82450000D03*
%TD*%
%TO.C,C16*%
X101166000Y-87900000D03*
X102716000Y-87900000D03*
%TD*%
D12*
%TO.C,U3*%
X136707600Y-75195000D03*
X136707600Y-76465000D03*
X136707600Y-77735000D03*
X136707600Y-79005000D03*
X142092400Y-79005000D03*
X142092400Y-77735000D03*
X142092400Y-76465000D03*
X142092400Y-75195000D03*
D13*
X139400000Y-77100000D03*
%TD*%
D14*
%TO.C,RV1*%
X139270000Y-71640000D03*
D15*
X139270000Y-69100000D03*
X139270000Y-66560000D03*
%TD*%
D16*
%TO.C,R11*%
X109360000Y-86000000D03*
X107710000Y-86000000D03*
%TD*%
%TO.C,R6*%
X145274800Y-82931000D03*
X143624800Y-82931000D03*
%TD*%
D10*
%TO.C,C14*%
X104325000Y-87900000D03*
X105875000Y-87900000D03*
%TD*%
D16*
%TO.C,R8*%
X141290000Y-83000000D03*
X139640000Y-83000000D03*
%TD*%
D17*
%TO.C,R10*%
X110810000Y-86000000D03*
X112460000Y-86000000D03*
%TD*%
D18*
%TO.C,R3*%
X134239000Y-87185000D03*
X134239000Y-85535000D03*
%TD*%
D16*
%TO.C,R7*%
X132625000Y-85852000D03*
X130975000Y-85852000D03*
%TD*%
D19*
%TO.C,D2*%
X139400000Y-86750000D03*
X139400000Y-84650000D03*
%TD*%
%TO.C,D7*%
X125150000Y-74300000D03*
X127250000Y-74300000D03*
%TD*%
D10*
%TO.C,C4*%
X123325000Y-80200000D03*
X124875000Y-80200000D03*
%TD*%
D17*
%TO.C,R12*%
X113910000Y-86000000D03*
X115560000Y-86000000D03*
%TD*%
D20*
%TO.C,Y1*%
X120777000Y-77286000D03*
X120777000Y-78486000D03*
X120777000Y-79686000D03*
%TD*%
D10*
%TO.C,C13*%
X144614600Y-78257400D03*
X146164600Y-78257400D03*
%TD*%
D21*
%TO.C,C17*%
X127775000Y-72390000D03*
X126225000Y-72390000D03*
%TD*%
D22*
%TO.C,J1*%
X149323000Y-85490800D03*
X149323000Y-79710800D03*
D23*
X148248000Y-85800800D03*
X148248000Y-85000800D03*
D24*
X148248000Y-83850800D03*
X148248000Y-82850800D03*
X148248000Y-82350800D03*
X148248000Y-81350800D03*
D23*
X148248000Y-79400800D03*
X148248000Y-80200800D03*
D24*
X148248000Y-80850800D03*
X148248000Y-81850800D03*
X148248000Y-83350800D03*
X148248000Y-84350800D03*
D25*
X148823000Y-86920800D03*
D26*
X153003000Y-86920800D03*
X153003000Y-78280800D03*
D25*
X148823000Y-78280800D03*
%TD*%
D10*
%TO.C,C8*%
X136252800Y-84400000D03*
X137802800Y-84400000D03*
%TD*%
D27*
%TO.C,S2*%
X137388000Y-89154000D03*
X134138000Y-89154000D03*
%TD*%
D28*
%TO.C,R4*%
X146507200Y-84519000D03*
X146507200Y-86169000D03*
%TD*%
D29*
%TO.C,S1*%
X123650000Y-88875000D03*
X123650000Y-85625000D03*
%TD*%
D18*
%TO.C,R1*%
X146558000Y-81444600D03*
X146558000Y-79794600D03*
%TD*%
D17*
%TO.C,R13*%
X117060000Y-86050000D03*
X118710000Y-86050000D03*
%TD*%
D30*
%TO.C,U4*%
X98940000Y-83700000D03*
X100210000Y-83700000D03*
X101480000Y-83700000D03*
X102750000Y-83700000D03*
X104020000Y-83700000D03*
X105290000Y-83700000D03*
X106560000Y-83700000D03*
X107830000Y-83700000D03*
X109100000Y-83700000D03*
X110370000Y-83700000D03*
X111640000Y-83700000D03*
X112910000Y-83700000D03*
X114180000Y-83700000D03*
X115450000Y-83700000D03*
D31*
X116450000Y-80915000D03*
X116450000Y-79645000D03*
X116450000Y-78375000D03*
X116450000Y-77105000D03*
X116450000Y-75835000D03*
X116450000Y-74565000D03*
X116450000Y-73295000D03*
X116450000Y-72025000D03*
X116450000Y-70755000D03*
X116450000Y-69485000D03*
D30*
X115450000Y-66700000D03*
X114180000Y-66700000D03*
X112910000Y-66700000D03*
X111640000Y-66700000D03*
X110370000Y-66700000D03*
X109100000Y-66700000D03*
X107830000Y-66700000D03*
X106560000Y-66700000D03*
X105290000Y-66700000D03*
X104020000Y-66700000D03*
X102750000Y-66700000D03*
X101480000Y-66700000D03*
X100210000Y-66700000D03*
X98940000Y-66700000D03*
D32*
X106440000Y-76200000D03*
%TD*%
D19*
%TO.C,D6*%
X131350000Y-72150000D03*
X129250000Y-72150000D03*
%TD*%
D33*
%TO.C,R16*%
X121312500Y-71250000D03*
X119487500Y-71250000D03*
%TD*%
%TO.C,R9*%
X106112500Y-86000000D03*
X104287500Y-86000000D03*
%TD*%
D16*
%TO.C,R5*%
X144970000Y-84531200D03*
X143320000Y-84531200D03*
%TD*%
D10*
%TO.C,C18*%
X119798800Y-67284600D03*
X121348800Y-67284600D03*
%TD*%
%TO.C,C12*%
X142784000Y-81400000D03*
X144334000Y-81400000D03*
%TD*%
D34*
%TO.C,U2*%
X143968600Y-88148201D03*
X143968600Y-86248199D03*
X141578200Y-87198200D03*
%TD*%
D16*
%TO.C,R17*%
X124525000Y-72700000D03*
X122875000Y-72700000D03*
%TD*%
D21*
%TO.C,C15*%
X102675000Y-86300000D03*
X101125000Y-86300000D03*
%TD*%
D10*
%TO.C,C9*%
X136275000Y-82900000D03*
X137825000Y-82900000D03*
%TD*%
%TO.C,C6*%
X136175000Y-85950000D03*
X137725000Y-85950000D03*
%TD*%
D35*
%TO.C,R18*%
X132638800Y-66268600D03*
D36*
X132638800Y-69668601D03*
%TD*%
D37*
%TO.C,C5*%
X129098008Y-86301992D03*
X128001992Y-87398008D03*
%TD*%
D10*
%TO.C,C7*%
X139458400Y-81400000D03*
X141008400Y-81400000D03*
%TD*%
D19*
%TO.C,D4*%
X109889000Y-88011000D03*
X107789000Y-88011000D03*
%TD*%
D38*
%TO.C,J2*%
X145000000Y-75650000D03*
D39*
X145000000Y-73110000D03*
X145000000Y-70570000D03*
X145000000Y-68030000D03*
%TD*%
D19*
%TO.C,D3*%
X111472000Y-88138000D03*
X113572000Y-88138000D03*
%TD*%
D33*
%TO.C,R15*%
X121359300Y-69037200D03*
X119534300Y-69037200D03*
%TD*%
D19*
%TO.C,D5*%
X115688400Y-87528400D03*
X117788400Y-87528400D03*
%TD*%
D17*
%TO.C,R14*%
X132975000Y-71755000D03*
X134625000Y-71755000D03*
%TD*%
D16*
%TO.C,R2*%
X125025000Y-84150000D03*
X123375000Y-84150000D03*
%TD*%
D10*
%TO.C,C2*%
X132575000Y-73660000D03*
X134125000Y-73660000D03*
%TD*%
D19*
%TO.C,D1*%
X132495000Y-87503000D03*
X130395000Y-87503000D03*
%TD*%
D40*
%TO.C,U1*%
X133400000Y-76962500D03*
X133000000Y-76962500D03*
X132600000Y-76962500D03*
X132200000Y-76962500D03*
X131800000Y-76962500D03*
X131400000Y-76962500D03*
X131000000Y-76962500D03*
X130600000Y-76962500D03*
X130200000Y-76962500D03*
X129800000Y-76962500D03*
X129400000Y-76962500D03*
X129000000Y-76962500D03*
X128600000Y-76962500D03*
X128200000Y-76962500D03*
D41*
X127362500Y-77800000D03*
X127362500Y-78200000D03*
X127362500Y-78600000D03*
X127362500Y-79000000D03*
X127362500Y-79400000D03*
X127362500Y-79800000D03*
X127362500Y-80200000D03*
X127362500Y-80600000D03*
X127362500Y-81000000D03*
X127362500Y-81400000D03*
X127362500Y-81800000D03*
X127362500Y-82200000D03*
X127362500Y-82600000D03*
X127362500Y-83000000D03*
D42*
X128200000Y-83837500D03*
X128600000Y-83837500D03*
X129000000Y-83837500D03*
X129400000Y-83837500D03*
X129800000Y-83837500D03*
X130200000Y-83837500D03*
X130600000Y-83837500D03*
X131000000Y-83837500D03*
X131400000Y-83837500D03*
X131800000Y-83837500D03*
X132200000Y-83837500D03*
X132600000Y-83837500D03*
X133000000Y-83837500D03*
X133400000Y-83837500D03*
D43*
X134237500Y-83000000D03*
X134237500Y-82600000D03*
X134237500Y-82200000D03*
X134237500Y-81800000D03*
X134237500Y-81400000D03*
X134237500Y-81000000D03*
X134237500Y-80600000D03*
X134237500Y-80200000D03*
X134237500Y-79800000D03*
X134237500Y-79400000D03*
X134237500Y-79000000D03*
X134237500Y-78600000D03*
X134237500Y-78200000D03*
X134237500Y-77800000D03*
D44*
X130800000Y-80400000D03*
D45*
X130000000Y-79600000D03*
X130000000Y-81200000D03*
X131600000Y-79600000D03*
X131600000Y-81200000D03*
%TD*%
M02*
