M48
; DRILL file {KiCad 6.0.7-f9a2dced07~116~ubuntu20.04.1} date Tue 29 Nov 2022 10:38:25 PM EST
; FORMAT={-:-/ absolute / inch / decimal}
; #@! TF.CreationDate,2022-11-29T22:38:25-05:00
; #@! TF.GenerationSoftware,Kicad,Pcbnew,6.0.7-f9a2dced07~116~ubuntu20.04.1
; #@! TF.FileFunction,Plated,1,2,PTH
FMAT,2
INCH
; #@! TA.AperFunction,Plated,PTH,ViaDrill
T1C0.0120
; #@! TA.AperFunction,Plated,PTH,ComponentDrill
T2C0.0120
; #@! TA.AperFunction,Plated,PTH,ViaDrill
T3C0.0157
; #@! TA.AperFunction,Plated,PTH,ComponentDrill
T4C0.0236
; #@! TA.AperFunction,Plated,PTH,ComponentDrill
T5C0.0280
; #@! TA.AperFunction,Plated,PTH,ComponentDrill
T6C0.0300
; #@! TA.AperFunction,Plated,PTH,ComponentDrill
T7C0.0394
%
G90
G05
T1
X3.913Y-2.556
X3.917Y-3.373
X3.935Y-3.409
X4.039Y-3.511
X4.103Y-3.51
X4.119Y-2.971
X4.122Y-3.039
X4.155Y-3.073
X4.158Y-3.001
X4.164Y-2.934
X4.19Y-2.965
X4.19Y-3.028
X4.227Y-3.001
X4.227Y-3.072
X4.23Y-2.934
X4.264Y-2.968
X4.267Y-3.039
X4.339Y-3.503
X4.401Y-3.503
X4.51Y-3.43
X4.6401Y-3.1826
X4.6877Y-3.0957
X4.714Y-3.238
X4.72Y-3.29
X4.723Y-2.607
X4.752Y-3.246
X4.752Y-3.302
X4.816Y-3.07
X4.8418Y-3.0339
X4.842Y-3.096
X4.8674Y-3.0496
X4.8819Y-3.1185
X4.9494Y-3.2388
X5.006Y-3.472
X5.0469Y-2.8086
X5.054Y-3.13
X5.055Y-3.0668
X5.082Y-2.992
X5.1159Y-2.797
X5.16Y-2.97
X5.18Y-3.495
X5.194Y-3.072
X5.228Y-2.964
X5.2382Y-3.138
X5.2852Y-2.9409
X5.288Y-3.022
X5.325Y-2.87
X5.3263Y-2.7843
X5.3339Y-3.2391
X5.3347Y-3.209
X5.3469Y-3.0967
X5.4466Y-3.4274
X5.4587Y-3.2382
X5.482Y-2.91
X5.498Y-3.463
X5.5818Y-3.3339
X5.585Y-3.3022
X5.586Y-3.23
X5.666Y-3.16
X5.694Y-3.132
X5.7178Y-3.1558
X5.723Y-3.464
X5.76Y-3.44
T2
X5.1181Y-3.1339
X5.1181Y-3.1969
X5.1811Y-3.1339
X5.1811Y-3.1969
T3
X4.13Y-2.7057
X4.135Y-2.7589
X4.4497Y-2.6897
X4.465Y-2.95
X4.47Y-2.7589
X4.511Y-3.0
X4.6475Y-2.9552
X4.66Y-3.005
X4.845Y-3.55
X5.2485Y-3.3415
X5.3969Y-3.3548
X5.4302Y-2.8592
X5.46Y-3.525
X5.61Y-2.86
T5
X5.4831Y-2.6205
X5.4831Y-2.7205
X5.4831Y-2.8205
T6
X5.222Y-2.609
X5.222Y-2.7429
T7
X5.7087Y-2.6783
X5.7087Y-2.7783
X5.7087Y-2.8783
X5.7087Y-2.9783
T4
G00X5.8375Y-3.0819
M15
G01X5.8808Y-3.0819
M16
G05
G00X5.8375Y-3.4221
M15
G01X5.8808Y-3.4221
M16
G05
G00X6.008Y-3.0819
M15
G01X6.0395Y-3.0819
M16
G05
G00X6.008Y-3.4221
M15
G01X6.0395Y-3.4221
M16
G05
T0
M30
