%TF.GenerationSoftware,KiCad,Pcbnew,6.0.7-f9a2dced07~116~ubuntu20.04.1*%
%TF.CreationDate,2022-11-29T22:38:19-05:00*%
%TF.ProjectId,Final_project_no_connector,46696e61-6c5f-4707-926f-6a6563745f6e,rev?*%
%TF.SameCoordinates,Original*%
%TF.FileFunction,Copper,L2,Bot*%
%TF.FilePolarity,Positive*%
%FSLAX46Y46*%
G04 Gerber Fmt 4.6, Leading zero omitted, Abs format (unit mm)*
G04 Created by KiCad (PCBNEW 6.0.7-f9a2dced07~116~ubuntu20.04.1) date 2022-11-29 22:38:19*
%MOMM*%
%LPD*%
G01*
G04 APERTURE LIST*
%TA.AperFunction,ComponentPad*%
%ADD10R,1.218000X1.218000*%
%TD*%
%TA.AperFunction,ComponentPad*%
%ADD11C,1.218000*%
%TD*%
%TA.AperFunction,ComponentPad*%
%ADD12O,2.100000X1.050000*%
%TD*%
%TA.AperFunction,ComponentPad*%
%ADD13O,2.000000X1.000000*%
%TD*%
%TA.AperFunction,ComponentPad*%
%ADD14R,1.270000X1.270000*%
%TD*%
%TA.AperFunction,ComponentPad*%
%ADD15C,1.270000*%
%TD*%
%TA.AperFunction,ComponentPad*%
%ADD16R,1.700000X1.700000*%
%TD*%
%TA.AperFunction,ComponentPad*%
%ADD17O,1.700000X1.700000*%
%TD*%
%TA.AperFunction,ComponentPad*%
%ADD18C,0.609600*%
%TD*%
%TA.AperFunction,ViaPad*%
%ADD19C,0.609600*%
%TD*%
%TA.AperFunction,ViaPad*%
%ADD20C,0.800000*%
%TD*%
%TA.AperFunction,Conductor*%
%ADD21C,0.200000*%
%TD*%
%TA.AperFunction,Conductor*%
%ADD22C,0.152400*%
%TD*%
G04 APERTURE END LIST*
D10*
%TO.P,RV1,1,1*%
%TO.N,+3V3*%
X139270000Y-71640000D03*
D11*
%TO.P,RV1,2,2*%
%TO.N,Net-(RV1-Pad2)*%
X139270000Y-69100000D03*
%TO.P,RV1,3,3*%
%TO.N,GND*%
X139270000Y-66560000D03*
%TD*%
D12*
%TO.P,J1,S1,SHELL*%
%TO.N,GND*%
X148823000Y-86920800D03*
D13*
%TO.P,J1,S2,SHELL*%
X153003000Y-86920800D03*
%TO.P,J1,S3,SHELL*%
X153003000Y-78280800D03*
D12*
%TO.P,J1,S4,SHELL*%
X148823000Y-78280800D03*
%TD*%
D14*
%TO.P,R18,1*%
%TO.N,/Light_Sensing/AO*%
X132638800Y-66268600D03*
D15*
%TO.P,R18,2*%
%TO.N,GND*%
X132638800Y-69668601D03*
%TD*%
D16*
%TO.P,J2,1,Pin_1*%
%TO.N,/GPIO3*%
X145000000Y-75650000D03*
D17*
%TO.P,J2,2,Pin_2*%
%TO.N,/GPIO2*%
X145000000Y-73110000D03*
%TO.P,J2,3,Pin_3*%
%TO.N,/VBUS*%
X145000000Y-70570000D03*
%TO.P,J2,4,Pin_4*%
%TO.N,GND*%
X145000000Y-68030000D03*
%TD*%
D18*
%TO.P,U1,57,GND*%
%TO.N,GND*%
X130000000Y-79600000D03*
X130000000Y-81200000D03*
X131600000Y-79600000D03*
X131600000Y-81200000D03*
%TD*%
D19*
%TO.N,GND*%
X105537000Y-78054200D03*
X138650000Y-82250000D03*
D20*
X138684000Y-89535000D03*
D19*
X104698800Y-77190600D03*
X144627600Y-79552800D03*
X145364200Y-87985600D03*
X99491800Y-85674200D03*
X104216200Y-89154000D03*
X135810034Y-78655423D03*
X125714852Y-82264852D03*
X145231486Y-80156686D03*
X105765600Y-74523600D03*
X139649200Y-87960200D03*
X128192397Y-71338058D03*
X128371600Y-79502000D03*
X124000071Y-79209429D03*
X111785400Y-88976200D03*
X102590600Y-89179400D03*
X108305600Y-75387200D03*
X143916400Y-80264000D03*
X131572000Y-88773000D03*
X106426000Y-75311000D03*
X131064000Y-75438000D03*
X110210600Y-88976200D03*
X114554000Y-87122000D03*
X107442000Y-74523600D03*
X141884400Y-82042000D03*
X119066700Y-78629900D03*
X108381800Y-77190600D03*
X146304000Y-87376000D03*
X119964200Y-66217800D03*
X106426000Y-76911200D03*
X127152400Y-88188800D03*
D20*
X123063000Y-90170000D03*
D19*
X104622600Y-75463400D03*
X139242800Y-73914000D03*
X117858100Y-80838426D03*
X99949000Y-86588600D03*
X135289098Y-70722298D03*
X135255000Y-72898000D03*
X105613200Y-76225400D03*
X107365800Y-76225400D03*
X129943800Y-71043800D03*
X99390200Y-64922400D03*
X138344000Y-87055600D03*
X107365800Y-78028800D03*
D20*
X137080885Y-85212219D03*
D19*
%TO.N,/GPIO15*%
X123631566Y-77458971D03*
X120700800Y-83870800D03*
X120700800Y-82448400D03*
X122986800Y-78638400D03*
D20*
%TO.N,/GPIO3*%
X142494000Y-72644000D03*
D19*
X131927600Y-78028800D03*
X134315200Y-76758800D03*
D20*
X137927017Y-72624656D03*
D19*
%TO.N,/GPIO2*%
X134242988Y-74698337D03*
X132791200Y-75285600D03*
D20*
%TO.N,/BOOT*%
X133311479Y-84873029D03*
D19*
X133049533Y-79706266D03*
%TO.N,Net-(R5-Pad2)*%
X141776757Y-84680599D03*
X135480282Y-82273876D03*
%TO.N,Net-(R6-Pad2)*%
X135502300Y-81508600D03*
X141857899Y-83875575D03*
%TO.N,/GPIO0*%
X129082800Y-75996800D03*
X128398196Y-77897483D03*
D20*
%TO.N,/GPIO12*%
X118047649Y-75062094D03*
X104902000Y-68724300D03*
X105029000Y-70075700D03*
X113411000Y-74930000D03*
%TO.N,/GPIO13*%
X113022302Y-68318302D03*
X113538000Y-70075700D03*
X118364000Y-76327000D03*
X114579400Y-76200000D03*
D19*
%TO.N,/GPIO14*%
X119888000Y-83566000D03*
X122326400Y-77978000D03*
X119735600Y-82245200D03*
X122982961Y-77059975D03*
%TD*%
D21*
%TO.N,/GPIO15*%
X120700800Y-82448400D02*
X120700800Y-83870800D01*
X123631566Y-77993634D02*
X123631566Y-77458971D01*
X122986800Y-78638400D02*
X123631566Y-77993634D01*
D22*
%TO.N,/GPIO3*%
X142474656Y-72624656D02*
X142494000Y-72644000D01*
X137927017Y-72624656D02*
X142474656Y-72624656D01*
X131927600Y-78028800D02*
X133045200Y-78028800D01*
X133045200Y-78028800D02*
X134315200Y-76758800D01*
%TO.N,/GPIO2*%
X133655725Y-75285600D02*
X132791200Y-75285600D01*
X134242988Y-74698337D02*
X133655725Y-75285600D01*
D21*
%TO.N,/BOOT*%
X133049533Y-79706266D02*
X133049533Y-84611083D01*
X133049533Y-84611083D02*
X133311479Y-84873029D01*
%TO.N,Net-(R5-Pad2)*%
X137980599Y-84680599D02*
X135573876Y-82273876D01*
X141776757Y-84680599D02*
X137980599Y-84680599D01*
X135573876Y-82273876D02*
X135480282Y-82273876D01*
%TO.N,Net-(R6-Pad2)*%
X137869275Y-83875575D02*
X135502300Y-81508600D01*
X141857899Y-83875575D02*
X137869275Y-83875575D01*
%TO.N,/GPIO0*%
X128398196Y-76681404D02*
X128398196Y-77897483D01*
X129082800Y-75996800D02*
X128398196Y-76681404D01*
%TO.N,/GPIO12*%
X113543094Y-75062094D02*
X113411000Y-74930000D01*
X105029000Y-70075700D02*
X105029000Y-68851300D01*
X105029000Y-68851300D02*
X104902000Y-68724300D01*
X118047649Y-75062094D02*
X113543094Y-75062094D01*
%TO.N,/GPIO13*%
X118364000Y-76327000D02*
X117096456Y-76327000D01*
X117096456Y-76327000D02*
X116893256Y-76123800D01*
X116893256Y-76123800D02*
X114655600Y-76123800D01*
X113538000Y-70075700D02*
X113538000Y-68834000D01*
X114655600Y-76123800D02*
X114579400Y-76200000D01*
X113538000Y-68834000D02*
X113022302Y-68318302D01*
%TO.N,/GPIO14*%
X119735600Y-83413600D02*
X119888000Y-83566000D01*
X122326400Y-77978000D02*
X122326400Y-77716536D01*
X122326400Y-77716536D02*
X122982961Y-77059975D01*
X119735600Y-82245200D02*
X119735600Y-83413600D01*
%TD*%
%TA.AperFunction,Conductor*%
%TO.N,GND*%
G36*
X154398562Y-63197566D02*
G01*
X154407709Y-63199158D01*
X154407711Y-63199158D01*
X154416553Y-63200697D01*
X154429250Y-63199267D01*
X154456564Y-63199170D01*
X154570425Y-63211183D01*
X154591978Y-63215381D01*
X154679480Y-63240511D01*
X154723943Y-63253280D01*
X154744442Y-63261159D01*
X154867819Y-63321394D01*
X154886641Y-63332714D01*
X154905714Y-63346582D01*
X154997680Y-63413456D01*
X155014249Y-63427870D01*
X155109593Y-63526681D01*
X155123395Y-63543739D01*
X155200135Y-63657609D01*
X155210771Y-63676817D01*
X155266561Y-63802259D01*
X155273703Y-63823029D01*
X155306866Y-63956265D01*
X155310293Y-63977954D01*
X155317754Y-64085261D01*
X155316905Y-64101724D01*
X155317313Y-64101736D01*
X155317043Y-64110706D01*
X155315503Y-64119553D01*
X155316508Y-64128475D01*
X155316508Y-64128476D01*
X155319708Y-64156884D01*
X155320500Y-64170988D01*
X155320500Y-90266505D01*
X155318848Y-90286842D01*
X155315372Y-90308096D01*
X155316467Y-90316999D01*
X155316467Y-90317003D01*
X155316728Y-90319121D01*
X155316966Y-90347812D01*
X155307036Y-90441300D01*
X155303647Y-90473201D01*
X155298643Y-90497390D01*
X155254814Y-90637990D01*
X155245187Y-90660738D01*
X155174765Y-90790093D01*
X155160886Y-90810523D01*
X155066586Y-90923644D01*
X155048987Y-90940974D01*
X154934427Y-91033528D01*
X154913787Y-91047091D01*
X154783367Y-91115517D01*
X154760479Y-91124791D01*
X154721343Y-91136334D01*
X154619218Y-91166456D01*
X154594956Y-91171088D01*
X154476137Y-91181866D01*
X154460087Y-91181291D01*
X154460073Y-91182002D01*
X154451101Y-91181823D01*
X154442241Y-91180373D01*
X154433332Y-91181468D01*
X154433331Y-91181468D01*
X154408186Y-91184559D01*
X154392814Y-91185500D01*
X91945985Y-91185500D01*
X91926827Y-91184035D01*
X91915347Y-91182269D01*
X91902535Y-91180298D01*
X91893639Y-91181478D01*
X91893638Y-91181478D01*
X91891521Y-91181759D01*
X91862832Y-91182269D01*
X91815957Y-91177739D01*
X91730801Y-91169509D01*
X91706575Y-91164736D01*
X91559282Y-91120351D01*
X91536455Y-91110944D01*
X91400662Y-91038683D01*
X91380101Y-91025000D01*
X91277329Y-90940974D01*
X91261008Y-90927630D01*
X91243512Y-90910198D01*
X91145708Y-90791472D01*
X91131947Y-90770959D01*
X91059185Y-90635434D01*
X91049691Y-90612633D01*
X91004765Y-90465517D01*
X90999901Y-90441300D01*
X90987333Y-90316076D01*
X90987755Y-90300016D01*
X90987045Y-90300009D01*
X90987138Y-90291033D01*
X90988502Y-90282163D01*
X90984394Y-90251196D01*
X90983300Y-90234627D01*
X90983300Y-87186568D01*
X147299363Y-87186568D01*
X147333846Y-87303732D01*
X147338439Y-87315100D01*
X147426586Y-87483711D01*
X147433302Y-87493973D01*
X147552515Y-87642243D01*
X147561103Y-87651013D01*
X147706838Y-87773299D01*
X147716969Y-87780237D01*
X147883692Y-87871894D01*
X147894962Y-87876724D01*
X148076315Y-87934252D01*
X148088309Y-87936802D01*
X148236350Y-87953407D01*
X148243374Y-87953800D01*
X148550885Y-87953800D01*
X148566124Y-87949325D01*
X148567329Y-87947935D01*
X148569000Y-87940252D01*
X148569000Y-87935685D01*
X149077000Y-87935685D01*
X149081475Y-87950924D01*
X149082865Y-87952129D01*
X149090548Y-87953800D01*
X149395890Y-87953800D01*
X149402035Y-87953500D01*
X149543481Y-87939630D01*
X149555519Y-87937247D01*
X149737651Y-87882258D01*
X149748993Y-87877583D01*
X149916977Y-87788265D01*
X149927193Y-87781478D01*
X150074634Y-87661228D01*
X150083338Y-87652584D01*
X150204610Y-87505991D01*
X150211470Y-87495820D01*
X150301962Y-87328458D01*
X150306714Y-87317153D01*
X150345422Y-87192108D01*
X150345503Y-87186568D01*
X151530425Y-87186568D01*
X151562138Y-87294321D01*
X151566731Y-87305689D01*
X151652607Y-87469954D01*
X151659321Y-87480215D01*
X151775468Y-87624673D01*
X151784046Y-87633432D01*
X151926039Y-87752578D01*
X151936159Y-87759508D01*
X152098585Y-87848802D01*
X152109858Y-87853634D01*
X152286538Y-87909680D01*
X152298532Y-87912230D01*
X152442761Y-87928407D01*
X152449785Y-87928800D01*
X152730885Y-87928800D01*
X152746124Y-87924325D01*
X152747329Y-87922935D01*
X152749000Y-87915252D01*
X152749000Y-87910685D01*
X153257000Y-87910685D01*
X153261475Y-87925924D01*
X153262865Y-87927129D01*
X153270548Y-87928800D01*
X153549657Y-87928800D01*
X153555805Y-87928499D01*
X153693603Y-87914988D01*
X153705638Y-87912605D01*
X153883076Y-87859033D01*
X153894416Y-87854359D01*
X154058077Y-87767340D01*
X154068294Y-87760551D01*
X154211933Y-87643403D01*
X154220637Y-87634759D01*
X154338784Y-87491944D01*
X154345644Y-87481773D01*
X154433804Y-87318724D01*
X154438556Y-87307419D01*
X154474250Y-87192108D01*
X154474456Y-87178005D01*
X154467701Y-87174800D01*
X153275115Y-87174800D01*
X153259876Y-87179275D01*
X153258671Y-87180665D01*
X153257000Y-87188348D01*
X153257000Y-87910685D01*
X152749000Y-87910685D01*
X152749000Y-87192915D01*
X152744525Y-87177676D01*
X152743135Y-87176471D01*
X152735452Y-87174800D01*
X151545076Y-87174800D01*
X151531545Y-87178773D01*
X151530425Y-87186568D01*
X150345503Y-87186568D01*
X150345628Y-87178005D01*
X150338873Y-87174800D01*
X149095115Y-87174800D01*
X149079876Y-87179275D01*
X149078671Y-87180665D01*
X149077000Y-87188348D01*
X149077000Y-87935685D01*
X148569000Y-87935685D01*
X148569000Y-87192915D01*
X148564525Y-87177676D01*
X148563135Y-87176471D01*
X148555452Y-87174800D01*
X147314014Y-87174800D01*
X147300483Y-87178773D01*
X147299363Y-87186568D01*
X90983300Y-87186568D01*
X90983300Y-86663595D01*
X147300372Y-86663595D01*
X147307127Y-86666800D01*
X150331986Y-86666800D01*
X150342901Y-86663595D01*
X151531544Y-86663595D01*
X151538299Y-86666800D01*
X152730885Y-86666800D01*
X152746124Y-86662325D01*
X152747329Y-86660935D01*
X152749000Y-86653252D01*
X152749000Y-86648685D01*
X153257000Y-86648685D01*
X153261475Y-86663924D01*
X153262865Y-86665129D01*
X153270548Y-86666800D01*
X154460924Y-86666800D01*
X154474455Y-86662827D01*
X154475575Y-86655032D01*
X154443862Y-86547279D01*
X154439269Y-86535911D01*
X154353393Y-86371646D01*
X154346679Y-86361385D01*
X154230532Y-86216927D01*
X154221954Y-86208168D01*
X154079961Y-86089022D01*
X154069841Y-86082092D01*
X153907415Y-85992798D01*
X153896142Y-85987966D01*
X153719462Y-85931920D01*
X153707468Y-85929370D01*
X153563239Y-85913193D01*
X153556215Y-85912800D01*
X153275115Y-85912800D01*
X153259876Y-85917275D01*
X153258671Y-85918665D01*
X153257000Y-85926348D01*
X153257000Y-86648685D01*
X152749000Y-86648685D01*
X152749000Y-85930915D01*
X152744525Y-85915676D01*
X152743135Y-85914471D01*
X152735452Y-85912800D01*
X152456343Y-85912800D01*
X152450195Y-85913101D01*
X152312397Y-85926612D01*
X152300362Y-85928995D01*
X152122924Y-85982567D01*
X152111584Y-85987241D01*
X151947923Y-86074260D01*
X151937706Y-86081049D01*
X151794067Y-86198197D01*
X151785363Y-86206841D01*
X151667216Y-86349656D01*
X151660356Y-86359827D01*
X151572196Y-86522876D01*
X151567444Y-86534181D01*
X151531750Y-86649492D01*
X151531544Y-86663595D01*
X150342901Y-86663595D01*
X150345517Y-86662827D01*
X150346637Y-86655032D01*
X150312154Y-86537868D01*
X150307561Y-86526500D01*
X150219414Y-86357889D01*
X150212698Y-86347627D01*
X150093485Y-86199357D01*
X150084901Y-86190591D01*
X150025830Y-86141024D01*
X149986504Y-86081914D01*
X149985378Y-86010926D01*
X150002610Y-85973680D01*
X150059442Y-85890055D01*
X150063277Y-85884412D01*
X150130530Y-85716266D01*
X150131644Y-85709538D01*
X150131645Y-85709534D01*
X150158993Y-85544339D01*
X150158993Y-85544336D01*
X150160108Y-85537602D01*
X150158045Y-85498228D01*
X150150987Y-85363566D01*
X150150630Y-85356753D01*
X150144949Y-85336126D01*
X150104352Y-85188741D01*
X150102539Y-85182159D01*
X150018078Y-85021964D01*
X150013673Y-85016751D01*
X150013670Y-85016747D01*
X149905594Y-84888857D01*
X149905590Y-84888853D01*
X149901187Y-84883643D01*
X149895762Y-84879495D01*
X149762743Y-84777794D01*
X149762739Y-84777791D01*
X149757322Y-84773650D01*
X149606780Y-84703451D01*
X149599369Y-84699995D01*
X149599366Y-84699994D01*
X149593192Y-84697115D01*
X149586544Y-84695629D01*
X149586541Y-84695628D01*
X149421494Y-84658736D01*
X149421495Y-84658736D01*
X149416457Y-84657610D01*
X149410912Y-84657300D01*
X149277756Y-84657300D01*
X149142963Y-84671943D01*
X149059609Y-84699995D01*
X148977796Y-84727528D01*
X148977794Y-84727529D01*
X148971325Y-84729706D01*
X148816095Y-84822977D01*
X148811138Y-84827665D01*
X148811135Y-84827667D01*
X148746429Y-84888857D01*
X148684515Y-84947407D01*
X148680683Y-84953045D01*
X148680680Y-84953049D01*
X148601720Y-85069235D01*
X148582723Y-85097188D01*
X148515470Y-85265334D01*
X148514356Y-85272062D01*
X148514355Y-85272066D01*
X148491525Y-85409973D01*
X148485892Y-85443998D01*
X148486249Y-85450815D01*
X148486249Y-85450819D01*
X148491151Y-85544339D01*
X148495370Y-85624847D01*
X148522297Y-85722603D01*
X148523877Y-85728340D01*
X148522683Y-85799326D01*
X148483301Y-85858398D01*
X148418233Y-85886801D01*
X148402401Y-85887800D01*
X148250110Y-85887800D01*
X148243965Y-85888100D01*
X148102519Y-85901970D01*
X148090481Y-85904353D01*
X147908349Y-85959342D01*
X147897007Y-85964017D01*
X147729023Y-86053335D01*
X147718807Y-86060122D01*
X147571366Y-86180372D01*
X147562662Y-86189016D01*
X147441390Y-86335609D01*
X147434530Y-86345780D01*
X147344038Y-86513142D01*
X147339286Y-86524447D01*
X147300578Y-86649492D01*
X147300372Y-86663595D01*
X90983300Y-86663595D01*
X90983300Y-84200000D01*
X91450000Y-84200000D01*
X97750000Y-84200000D01*
X97750000Y-82233773D01*
X118917234Y-82233773D01*
X118917921Y-82240780D01*
X118917921Y-82240783D01*
X118927567Y-82339157D01*
X118935039Y-82415364D01*
X118992633Y-82588499D01*
X119087154Y-82744571D01*
X119092046Y-82749636D01*
X119096345Y-82755219D01*
X119095263Y-82756052D01*
X119124670Y-82812216D01*
X119127100Y-82836844D01*
X119127100Y-83256275D01*
X119119501Y-83299370D01*
X119108614Y-83329283D01*
X119092502Y-83373549D01*
X119069634Y-83554573D01*
X119087439Y-83736164D01*
X119145033Y-83909299D01*
X119239554Y-84065371D01*
X119244445Y-84070436D01*
X119244446Y-84070437D01*
X119259274Y-84085792D01*
X119366303Y-84196623D01*
X119372195Y-84200478D01*
X119372199Y-84200482D01*
X119513085Y-84292675D01*
X119518981Y-84296533D01*
X119525585Y-84298989D01*
X119525587Y-84298990D01*
X119604490Y-84328334D01*
X119690000Y-84360135D01*
X119696985Y-84361067D01*
X119863879Y-84383336D01*
X119863883Y-84383336D01*
X119870860Y-84384267D01*
X119877871Y-84383629D01*
X119877875Y-84383629D01*
X119967129Y-84375505D01*
X119990082Y-84373416D01*
X120059736Y-84387161D01*
X120092138Y-84411369D01*
X120179103Y-84501423D01*
X120184995Y-84505278D01*
X120184999Y-84505282D01*
X120298253Y-84579393D01*
X120331781Y-84601333D01*
X120338385Y-84603789D01*
X120338387Y-84603790D01*
X120390708Y-84623248D01*
X120502800Y-84664935D01*
X120683660Y-84689067D01*
X120690671Y-84688429D01*
X120690675Y-84688429D01*
X120830380Y-84675714D01*
X120865371Y-84672529D01*
X120872073Y-84670351D01*
X120872075Y-84670351D01*
X121032205Y-84618322D01*
X121032208Y-84618321D01*
X121038904Y-84616145D01*
X121063752Y-84601333D01*
X121189577Y-84526327D01*
X121189580Y-84526325D01*
X121195632Y-84522717D01*
X121266939Y-84454812D01*
X121322662Y-84401748D01*
X121322664Y-84401745D01*
X121327766Y-84396887D01*
X121428739Y-84244910D01*
X121452680Y-84181885D01*
X121491033Y-84080922D01*
X121491034Y-84080917D01*
X121493533Y-84074339D01*
X121494687Y-84066129D01*
X121518376Y-83897575D01*
X121518376Y-83897570D01*
X121518927Y-83893652D01*
X121519124Y-83879538D01*
X121519191Y-83874763D01*
X121519191Y-83874758D01*
X121519246Y-83870800D01*
X121498907Y-83689475D01*
X121438901Y-83517161D01*
X121342211Y-83362424D01*
X121337248Y-83357426D01*
X121336555Y-83356552D01*
X121309917Y-83290742D01*
X121309300Y-83278287D01*
X121309300Y-83040322D01*
X121330352Y-82970595D01*
X121377633Y-82899431D01*
X121428739Y-82822510D01*
X121454301Y-82755219D01*
X121491033Y-82658522D01*
X121491034Y-82658517D01*
X121493533Y-82651939D01*
X121498419Y-82617175D01*
X121518376Y-82475175D01*
X121518376Y-82475170D01*
X121518927Y-82471252D01*
X121519246Y-82448400D01*
X121498907Y-82267075D01*
X121438901Y-82094761D01*
X121342211Y-81940024D01*
X121331093Y-81928828D01*
X129636002Y-81928828D01*
X129639155Y-81933039D01*
X129795516Y-81991190D01*
X129809107Y-81994579D01*
X129975889Y-82016832D01*
X129989885Y-82017126D01*
X130157449Y-82001876D01*
X130171174Y-81999059D01*
X130331197Y-81947064D01*
X130343945Y-81941281D01*
X130352271Y-81936318D01*
X130359216Y-81928828D01*
X131236002Y-81928828D01*
X131239155Y-81933039D01*
X131395516Y-81991190D01*
X131409107Y-81994579D01*
X131575889Y-82016832D01*
X131589885Y-82017126D01*
X131757449Y-82001876D01*
X131771174Y-81999059D01*
X131931197Y-81947064D01*
X131943945Y-81941281D01*
X131952271Y-81936318D01*
X131961859Y-81925977D01*
X131958354Y-81917564D01*
X131612812Y-81572022D01*
X131598868Y-81564408D01*
X131597035Y-81564539D01*
X131590420Y-81568790D01*
X131242762Y-81916448D01*
X131236002Y-81928828D01*
X130359216Y-81928828D01*
X130361859Y-81925977D01*
X130358354Y-81917564D01*
X130012812Y-81572022D01*
X129998868Y-81564408D01*
X129997035Y-81564539D01*
X129990420Y-81568790D01*
X129642762Y-81916448D01*
X129636002Y-81928828D01*
X121331093Y-81928828D01*
X121254699Y-81851899D01*
X121218604Y-81815551D01*
X121218600Y-81815548D01*
X121213641Y-81810554D01*
X121059583Y-81712786D01*
X120944356Y-81671755D01*
X120894327Y-81653940D01*
X120894325Y-81653939D01*
X120887693Y-81651578D01*
X120880707Y-81650745D01*
X120880703Y-81650744D01*
X120751126Y-81635294D01*
X120706514Y-81629974D01*
X120699511Y-81630710D01*
X120699510Y-81630710D01*
X120653275Y-81635570D01*
X120525051Y-81649046D01*
X120518383Y-81651316D01*
X120423802Y-81683514D01*
X120352869Y-81686532D01*
X120293791Y-81653021D01*
X120253404Y-81612352D01*
X120248441Y-81607354D01*
X120237257Y-81600256D01*
X120162219Y-81552636D01*
X120094383Y-81509586D01*
X119987690Y-81471594D01*
X119929127Y-81450740D01*
X119929125Y-81450739D01*
X119922493Y-81448378D01*
X119915507Y-81447545D01*
X119915503Y-81447544D01*
X119768930Y-81430067D01*
X119741314Y-81426774D01*
X119734311Y-81427510D01*
X119734310Y-81427510D01*
X119709982Y-81430067D01*
X119559851Y-81445846D01*
X119553183Y-81448116D01*
X119393790Y-81502378D01*
X119393787Y-81502379D01*
X119387123Y-81504648D01*
X119303430Y-81556136D01*
X119262293Y-81581444D01*
X119231714Y-81600256D01*
X119199659Y-81631647D01*
X119137998Y-81692030D01*
X119101350Y-81727918D01*
X119002508Y-81881290D01*
X119000099Y-81887910D01*
X119000097Y-81887913D01*
X118942510Y-82046132D01*
X118940102Y-82052749D01*
X118917234Y-82233773D01*
X97750000Y-82233773D01*
X97750000Y-81195590D01*
X129182824Y-81195590D01*
X129199244Y-81363051D01*
X129202155Y-81376745D01*
X129255267Y-81536405D01*
X129261138Y-81549113D01*
X129263272Y-81552636D01*
X129273680Y-81562153D01*
X129282299Y-81558491D01*
X129627978Y-81212812D01*
X129634356Y-81201132D01*
X130364408Y-81201132D01*
X130364539Y-81202965D01*
X130368790Y-81209580D01*
X130716221Y-81557011D01*
X130729739Y-81564393D01*
X130792334Y-81541045D01*
X130861708Y-81556136D01*
X130870813Y-81562639D01*
X130872040Y-81562849D01*
X130882299Y-81558491D01*
X131227978Y-81212812D01*
X131234356Y-81201132D01*
X131964408Y-81201132D01*
X131964539Y-81202965D01*
X131968790Y-81209580D01*
X132316221Y-81557011D01*
X132351391Y-81576216D01*
X132375421Y-81581444D01*
X132425622Y-81631647D01*
X132441033Y-81692030D01*
X132441033Y-84562947D01*
X132439955Y-84579390D01*
X132435783Y-84611083D01*
X132435828Y-84611425D01*
X132430695Y-84643836D01*
X132417937Y-84683101D01*
X132397975Y-84873029D01*
X132398665Y-84879594D01*
X132413629Y-85021964D01*
X132417937Y-85062957D01*
X132476952Y-85244585D01*
X132572439Y-85409973D01*
X132576857Y-85414880D01*
X132576858Y-85414881D01*
X132695804Y-85546984D01*
X132700226Y-85551895D01*
X132854727Y-85664147D01*
X132860755Y-85666831D01*
X132860757Y-85666832D01*
X133023160Y-85739138D01*
X133029191Y-85741823D01*
X133122591Y-85761676D01*
X133209535Y-85780157D01*
X133209540Y-85780157D01*
X133215992Y-85781529D01*
X133406966Y-85781529D01*
X133413418Y-85780157D01*
X133413423Y-85780157D01*
X133500366Y-85761676D01*
X133593767Y-85741823D01*
X133599798Y-85739138D01*
X133762201Y-85666832D01*
X133762203Y-85666831D01*
X133768231Y-85664147D01*
X133922732Y-85551895D01*
X133927154Y-85546984D01*
X134046100Y-85414881D01*
X134046101Y-85414880D01*
X134050519Y-85409973D01*
X134146006Y-85244585D01*
X134205021Y-85062957D01*
X134209330Y-85021964D01*
X134224293Y-84879594D01*
X134224983Y-84873029D01*
X134209919Y-84729706D01*
X134205711Y-84689664D01*
X134205711Y-84689662D01*
X134205021Y-84683101D01*
X134146006Y-84501473D01*
X134050519Y-84336085D01*
X133922732Y-84194163D01*
X133768231Y-84081911D01*
X133762203Y-84079227D01*
X133762201Y-84079226D01*
X133732784Y-84066129D01*
X133678688Y-84020149D01*
X133658033Y-83951022D01*
X133658033Y-82262449D01*
X134661916Y-82262449D01*
X134679721Y-82444040D01*
X134737315Y-82617175D01*
X134831836Y-82773247D01*
X134836727Y-82778312D01*
X134836728Y-82778313D01*
X134869468Y-82812216D01*
X134958585Y-82904499D01*
X134964477Y-82908354D01*
X134964481Y-82908358D01*
X135092410Y-82992072D01*
X135111263Y-83004409D01*
X135117867Y-83006865D01*
X135117869Y-83006866D01*
X135196772Y-83036210D01*
X135282282Y-83068011D01*
X135463142Y-83092143D01*
X135470159Y-83091504D01*
X135477200Y-83091652D01*
X135477156Y-83093768D01*
X135536745Y-83105521D01*
X135567619Y-83128168D01*
X137516284Y-85076833D01*
X137527151Y-85089224D01*
X137546612Y-85114586D01*
X137578524Y-85139073D01*
X137578527Y-85139076D01*
X137634674Y-85182159D01*
X137673724Y-85212123D01*
X137821749Y-85273437D01*
X137940714Y-85289099D01*
X137940719Y-85289099D01*
X137940728Y-85289100D01*
X137972411Y-85293271D01*
X137980599Y-85294349D01*
X138012292Y-85290177D01*
X138028735Y-85289099D01*
X141184187Y-85289099D01*
X141252308Y-85309101D01*
X141254700Y-85310849D01*
X141255060Y-85311222D01*
X141407738Y-85411132D01*
X141414342Y-85413588D01*
X141414344Y-85413589D01*
X141477996Y-85437261D01*
X141578757Y-85474734D01*
X141759617Y-85498866D01*
X141766628Y-85498228D01*
X141766632Y-85498228D01*
X141906337Y-85485513D01*
X141941328Y-85482328D01*
X141948030Y-85480150D01*
X141948032Y-85480150D01*
X142108162Y-85428121D01*
X142108165Y-85428120D01*
X142114861Y-85425944D01*
X142120912Y-85422337D01*
X142265534Y-85336126D01*
X142265537Y-85336124D01*
X142271589Y-85332516D01*
X142370525Y-85238300D01*
X142398619Y-85211547D01*
X142398621Y-85211544D01*
X142403723Y-85206686D01*
X142504696Y-85054709D01*
X142543313Y-84953049D01*
X142566990Y-84890721D01*
X142566991Y-84890716D01*
X142569490Y-84884138D01*
X142591194Y-84729706D01*
X142594333Y-84707374D01*
X142594333Y-84707369D01*
X142594884Y-84703451D01*
X142595039Y-84692365D01*
X142595148Y-84684562D01*
X142595148Y-84684557D01*
X142595203Y-84680599D01*
X142574864Y-84499274D01*
X142572549Y-84492627D01*
X142572547Y-84492617D01*
X142542182Y-84405421D01*
X142538668Y-84334511D01*
X142556224Y-84294258D01*
X142557276Y-84292675D01*
X142585838Y-84249685D01*
X142611593Y-84181885D01*
X142648132Y-84085697D01*
X142648133Y-84085692D01*
X142650632Y-84079114D01*
X142651612Y-84072142D01*
X142675475Y-83902350D01*
X142675475Y-83902345D01*
X142676026Y-83898427D01*
X142676345Y-83875575D01*
X142656006Y-83694250D01*
X142596000Y-83521936D01*
X142499310Y-83367199D01*
X142431953Y-83299370D01*
X142375703Y-83242726D01*
X142375699Y-83242723D01*
X142370740Y-83237729D01*
X142359556Y-83230631D01*
X142311350Y-83200039D01*
X142216682Y-83139961D01*
X142082395Y-83092143D01*
X142051426Y-83081115D01*
X142051424Y-83081114D01*
X142044792Y-83078753D01*
X142037806Y-83077920D01*
X142037802Y-83077919D01*
X141908225Y-83062469D01*
X141863613Y-83057149D01*
X141856610Y-83057885D01*
X141856609Y-83057885D01*
X141810374Y-83062745D01*
X141682150Y-83076221D01*
X141675482Y-83078491D01*
X141516089Y-83132753D01*
X141516086Y-83132754D01*
X141509422Y-83135023D01*
X141495253Y-83143740D01*
X141360012Y-83226940D01*
X141360010Y-83226942D01*
X141354013Y-83230631D01*
X141348981Y-83235559D01*
X141343430Y-83239896D01*
X141341547Y-83237486D01*
X141290856Y-83264472D01*
X141265378Y-83267075D01*
X138173514Y-83267075D01*
X138105393Y-83247073D01*
X138084419Y-83230170D01*
X136346628Y-81492379D01*
X136312602Y-81430067D01*
X136310508Y-81417329D01*
X136301192Y-81334274D01*
X136300407Y-81327275D01*
X136240401Y-81154961D01*
X136143711Y-81000224D01*
X136079147Y-80935208D01*
X136020104Y-80875751D01*
X136020100Y-80875748D01*
X136015141Y-80870754D01*
X136003957Y-80863656D01*
X135955751Y-80833064D01*
X135861083Y-80772986D01*
X135754390Y-80734994D01*
X135695827Y-80714140D01*
X135695825Y-80714139D01*
X135689193Y-80711778D01*
X135682207Y-80710945D01*
X135682203Y-80710944D01*
X135552626Y-80695494D01*
X135508014Y-80690174D01*
X135501011Y-80690910D01*
X135501010Y-80690910D01*
X135454775Y-80695770D01*
X135326551Y-80709246D01*
X135319883Y-80711516D01*
X135160490Y-80765778D01*
X135160487Y-80765779D01*
X135153823Y-80768048D01*
X135142697Y-80774893D01*
X135006511Y-80858675D01*
X134998414Y-80863656D01*
X134868050Y-80991318D01*
X134769208Y-81144690D01*
X134766799Y-81151310D01*
X134766797Y-81151313D01*
X134709210Y-81309532D01*
X134706802Y-81316149D01*
X134683934Y-81497173D01*
X134684621Y-81504180D01*
X134684621Y-81504183D01*
X134690525Y-81564393D01*
X134701739Y-81678764D01*
X134747242Y-81815551D01*
X134749986Y-81823800D01*
X134752508Y-81894752D01*
X134746900Y-81909861D01*
X134747190Y-81909966D01*
X134692680Y-82059732D01*
X134684784Y-82081425D01*
X134661916Y-82262449D01*
X133658033Y-82262449D01*
X133658033Y-80298188D01*
X133679085Y-80228461D01*
X133757753Y-80110055D01*
X133777472Y-80080376D01*
X133800619Y-80019441D01*
X133839766Y-79916388D01*
X133839767Y-79916383D01*
X133842266Y-79909805D01*
X133850471Y-79851423D01*
X133867109Y-79733041D01*
X133867109Y-79733036D01*
X133867660Y-79729118D01*
X133867979Y-79706266D01*
X133847640Y-79524941D01*
X133787634Y-79352627D01*
X133690944Y-79197890D01*
X133606225Y-79112578D01*
X133567337Y-79073417D01*
X133567333Y-79073414D01*
X133562374Y-79068420D01*
X133551190Y-79061322D01*
X133459923Y-79003403D01*
X133408316Y-78970652D01*
X133301623Y-78932660D01*
X133243060Y-78911806D01*
X133243058Y-78911805D01*
X133236426Y-78909444D01*
X133229440Y-78908611D01*
X133229436Y-78908610D01*
X133089656Y-78891943D01*
X133055247Y-78887840D01*
X133048244Y-78888576D01*
X133048243Y-78888576D01*
X133016208Y-78891943D01*
X132873784Y-78906912D01*
X132867116Y-78909182D01*
X132707723Y-78963444D01*
X132707720Y-78963445D01*
X132701056Y-78965714D01*
X132545647Y-79061322D01*
X132485164Y-79120551D01*
X132435335Y-79169348D01*
X132415599Y-79188675D01*
X132415597Y-79188676D01*
X132415283Y-79188984D01*
X132415229Y-79188929D01*
X132359200Y-79227349D01*
X132347166Y-79228314D01*
X132318041Y-79241169D01*
X131972022Y-79587188D01*
X131964408Y-79601132D01*
X131964539Y-79602965D01*
X131968790Y-79609580D01*
X132234555Y-79875345D01*
X132265018Y-79924669D01*
X132304340Y-80042875D01*
X132304342Y-80042879D01*
X132306566Y-80049565D01*
X132310214Y-80055588D01*
X132388500Y-80184853D01*
X132401087Y-80205637D01*
X132405979Y-80210702D01*
X132410278Y-80216285D01*
X132409196Y-80217118D01*
X132438603Y-80273282D01*
X132441033Y-80297910D01*
X132441033Y-80706772D01*
X132421031Y-80774893D01*
X132367375Y-80821386D01*
X132360823Y-80822286D01*
X132318041Y-80841169D01*
X131972022Y-81187188D01*
X131964408Y-81201132D01*
X131234356Y-81201132D01*
X131235592Y-81198868D01*
X131235461Y-81197035D01*
X131231210Y-81190420D01*
X130883990Y-80843200D01*
X130870204Y-80835672D01*
X130808530Y-80858675D01*
X130739156Y-80843583D01*
X130729121Y-80836520D01*
X130728717Y-80836457D01*
X130718041Y-80841169D01*
X130372022Y-81187188D01*
X130364408Y-81201132D01*
X129634356Y-81201132D01*
X129635592Y-81198868D01*
X129635461Y-81197035D01*
X129631210Y-81190420D01*
X129283990Y-80843200D01*
X129271610Y-80836440D01*
X129266141Y-80840534D01*
X129264949Y-80842935D01*
X129207399Y-81001050D01*
X129204109Y-81014650D01*
X129183020Y-81181593D01*
X129182824Y-81195590D01*
X97750000Y-81195590D01*
X97750000Y-80330084D01*
X129635316Y-80330084D01*
X129658512Y-80392277D01*
X129643420Y-80461651D01*
X129636971Y-80470747D01*
X129636818Y-80471676D01*
X129641351Y-80482141D01*
X129987188Y-80827978D01*
X130001132Y-80835592D01*
X130002965Y-80835461D01*
X130009580Y-80831210D01*
X130356389Y-80484401D01*
X130363718Y-80470980D01*
X130340245Y-80408050D01*
X130355336Y-80338676D01*
X130361518Y-80330084D01*
X131235316Y-80330084D01*
X131258512Y-80392277D01*
X131243420Y-80461651D01*
X131236971Y-80470747D01*
X131236818Y-80471676D01*
X131241351Y-80482141D01*
X131587188Y-80827978D01*
X131601132Y-80835592D01*
X131602965Y-80835461D01*
X131609580Y-80831210D01*
X131956389Y-80484401D01*
X131963718Y-80470980D01*
X131940245Y-80408050D01*
X131955336Y-80338676D01*
X131962298Y-80329000D01*
X131962544Y-80327621D01*
X131958354Y-80317564D01*
X131612812Y-79972022D01*
X131598868Y-79964408D01*
X131597035Y-79964539D01*
X131590420Y-79968790D01*
X131242762Y-80316448D01*
X131235316Y-80330084D01*
X130361518Y-80330084D01*
X130362298Y-80329000D01*
X130362544Y-80327621D01*
X130358354Y-80317564D01*
X130012812Y-79972022D01*
X129998868Y-79964408D01*
X129997035Y-79964539D01*
X129990420Y-79968790D01*
X129642762Y-80316448D01*
X129635316Y-80330084D01*
X97750000Y-80330084D01*
X97750000Y-79595590D01*
X129182824Y-79595590D01*
X129199244Y-79763051D01*
X129202155Y-79776745D01*
X129255267Y-79936405D01*
X129261138Y-79949113D01*
X129263272Y-79952636D01*
X129273680Y-79962153D01*
X129282299Y-79958491D01*
X129627978Y-79612812D01*
X129634356Y-79601132D01*
X130364408Y-79601132D01*
X130364539Y-79602965D01*
X130368790Y-79609580D01*
X130716221Y-79957011D01*
X130729739Y-79964393D01*
X130792334Y-79941045D01*
X130861708Y-79956136D01*
X130870813Y-79962639D01*
X130872040Y-79962849D01*
X130882299Y-79958491D01*
X131227978Y-79612812D01*
X131235592Y-79598868D01*
X131235461Y-79597035D01*
X131231210Y-79590420D01*
X130883990Y-79243200D01*
X130870204Y-79235672D01*
X130808530Y-79258675D01*
X130739156Y-79243583D01*
X130729121Y-79236520D01*
X130728717Y-79236457D01*
X130718041Y-79241169D01*
X130372022Y-79587188D01*
X130364408Y-79601132D01*
X129634356Y-79601132D01*
X129635592Y-79598868D01*
X129635461Y-79597035D01*
X129631210Y-79590420D01*
X129283990Y-79243200D01*
X129271610Y-79236440D01*
X129266141Y-79240534D01*
X129264949Y-79242935D01*
X129207399Y-79401050D01*
X129204109Y-79414650D01*
X129183020Y-79581593D01*
X129182824Y-79595590D01*
X97750000Y-79595590D01*
X97750000Y-77966573D01*
X121508034Y-77966573D01*
X121508721Y-77973580D01*
X121508721Y-77973583D01*
X121514598Y-78033519D01*
X121525839Y-78148164D01*
X121583433Y-78321299D01*
X121587082Y-78327324D01*
X121666192Y-78457949D01*
X121677954Y-78477371D01*
X121682845Y-78482436D01*
X121682846Y-78482437D01*
X121741036Y-78542694D01*
X121804703Y-78608623D01*
X121810595Y-78612478D01*
X121810599Y-78612482D01*
X121951485Y-78704675D01*
X121957381Y-78708533D01*
X121963985Y-78710989D01*
X121963987Y-78710990D01*
X122123993Y-78770496D01*
X122180869Y-78812988D01*
X122199629Y-78848817D01*
X122243833Y-78981699D01*
X122258504Y-79005923D01*
X122332037Y-79127340D01*
X122338354Y-79137771D01*
X122343245Y-79142836D01*
X122343246Y-79142837D01*
X122387757Y-79188929D01*
X122465103Y-79269023D01*
X122470995Y-79272878D01*
X122470999Y-79272882D01*
X122611885Y-79365075D01*
X122617781Y-79368933D01*
X122624385Y-79371389D01*
X122624387Y-79371390D01*
X122690884Y-79396120D01*
X122788800Y-79432535D01*
X122969660Y-79456667D01*
X122976671Y-79456029D01*
X122976675Y-79456029D01*
X123116380Y-79443314D01*
X123151371Y-79440129D01*
X123158073Y-79437951D01*
X123158075Y-79437951D01*
X123318205Y-79385922D01*
X123318208Y-79385921D01*
X123324904Y-79383745D01*
X123349752Y-79368933D01*
X123475577Y-79293927D01*
X123475580Y-79293925D01*
X123481632Y-79290317D01*
X123556487Y-79219033D01*
X123608662Y-79169348D01*
X123608664Y-79169345D01*
X123613766Y-79164487D01*
X123714739Y-79012510D01*
X123732515Y-78965714D01*
X123767617Y-78873310D01*
X129637526Y-78873310D01*
X129641351Y-78882141D01*
X129987188Y-79227978D01*
X130001132Y-79235592D01*
X130002965Y-79235461D01*
X130009580Y-79231210D01*
X130356389Y-78884401D01*
X130363149Y-78872021D01*
X130358346Y-78865605D01*
X130351930Y-78862476D01*
X130193412Y-78806030D01*
X130179788Y-78802834D01*
X130012703Y-78782911D01*
X129998706Y-78782813D01*
X129831359Y-78800402D01*
X129817695Y-78803407D01*
X129658408Y-78857632D01*
X129646690Y-78863146D01*
X129637526Y-78873310D01*
X123767617Y-78873310D01*
X123777033Y-78848522D01*
X123777034Y-78848517D01*
X123779533Y-78841939D01*
X123781137Y-78830529D01*
X123795860Y-78725769D01*
X123825148Y-78661095D01*
X123831539Y-78654210D01*
X124027800Y-78457949D01*
X124040191Y-78447082D01*
X124059003Y-78432647D01*
X124065553Y-78427621D01*
X124090040Y-78395709D01*
X124090044Y-78395705D01*
X124163090Y-78300510D01*
X124224404Y-78152485D01*
X124229880Y-78110888D01*
X124239648Y-78036698D01*
X124259620Y-77983420D01*
X124324308Y-77886056D01*
X127579830Y-77886056D01*
X127580517Y-77893063D01*
X127580517Y-77893066D01*
X127587040Y-77959586D01*
X127597635Y-78067647D01*
X127655229Y-78240782D01*
X127658878Y-78246807D01*
X127738407Y-78378124D01*
X127749750Y-78396854D01*
X127754641Y-78401919D01*
X127754642Y-78401920D01*
X127769881Y-78417700D01*
X127876499Y-78528106D01*
X127882391Y-78531961D01*
X127882395Y-78531965D01*
X128023281Y-78624158D01*
X128029177Y-78628016D01*
X128035781Y-78630472D01*
X128035783Y-78630473D01*
X128083595Y-78648254D01*
X128200196Y-78691618D01*
X128381056Y-78715750D01*
X128388067Y-78715112D01*
X128388071Y-78715112D01*
X128527776Y-78702397D01*
X128562767Y-78699212D01*
X128569469Y-78697034D01*
X128569471Y-78697034D01*
X128729601Y-78645005D01*
X128729604Y-78645004D01*
X128736300Y-78642828D01*
X128761201Y-78627984D01*
X128886973Y-78553010D01*
X128886976Y-78553008D01*
X128893028Y-78549400D01*
X128989061Y-78457949D01*
X129020058Y-78428431D01*
X129020060Y-78428428D01*
X129025162Y-78423570D01*
X129126135Y-78271593D01*
X129156387Y-78191955D01*
X129188429Y-78107605D01*
X129188430Y-78107600D01*
X129190929Y-78101022D01*
X129201700Y-78024383D01*
X129202685Y-78017373D01*
X131109234Y-78017373D01*
X131109921Y-78024380D01*
X131109921Y-78024383D01*
X131110817Y-78033519D01*
X131127039Y-78198964D01*
X131184633Y-78372099D01*
X131188282Y-78378124D01*
X131264569Y-78504088D01*
X131279154Y-78528171D01*
X131284045Y-78533236D01*
X131284046Y-78533237D01*
X131375542Y-78627984D01*
X131408474Y-78690881D01*
X131402174Y-78761597D01*
X131358642Y-78817682D01*
X131325510Y-78834789D01*
X131258407Y-78857632D01*
X131246690Y-78863146D01*
X131237526Y-78873310D01*
X131241351Y-78882141D01*
X131587188Y-79227978D01*
X131601132Y-79235592D01*
X131602965Y-79235461D01*
X131609580Y-79231210D01*
X131969201Y-78871589D01*
X131972678Y-78875066D01*
X131998271Y-78849493D01*
X132047191Y-78834623D01*
X132085150Y-78831168D01*
X132092171Y-78830529D01*
X132098873Y-78828351D01*
X132098875Y-78828351D01*
X132259005Y-78776322D01*
X132259008Y-78776321D01*
X132265704Y-78774145D01*
X132346856Y-78725769D01*
X132416380Y-78684325D01*
X132416382Y-78684324D01*
X132422432Y-78680717D01*
X132427538Y-78675855D01*
X132456523Y-78648254D01*
X132519648Y-78615762D01*
X132543414Y-78613500D01*
X132998622Y-78613500D01*
X133015069Y-78614578D01*
X133045200Y-78618545D01*
X133083519Y-78613500D01*
X133083524Y-78613500D01*
X133189649Y-78599528D01*
X133197837Y-78598450D01*
X133316254Y-78549400D01*
X133323091Y-78546568D01*
X147299363Y-78546568D01*
X147333846Y-78663732D01*
X147338439Y-78675100D01*
X147426586Y-78843711D01*
X147433302Y-78853973D01*
X147552515Y-79002243D01*
X147561103Y-79011013D01*
X147706838Y-79133299D01*
X147716969Y-79140237D01*
X147883692Y-79231894D01*
X147894962Y-79236724D01*
X148076315Y-79294252D01*
X148088309Y-79296802D01*
X148236350Y-79313407D01*
X148243374Y-79313800D01*
X148398130Y-79313800D01*
X148466251Y-79333802D01*
X148512744Y-79387458D01*
X148522848Y-79457732D01*
X148519488Y-79473686D01*
X148518006Y-79478993D01*
X148515470Y-79485334D01*
X148514355Y-79492069D01*
X148496300Y-79601132D01*
X148485892Y-79663998D01*
X148486249Y-79670815D01*
X148486249Y-79670819D01*
X148491083Y-79763051D01*
X148495370Y-79844847D01*
X148497181Y-79851420D01*
X148497181Y-79851423D01*
X148529509Y-79968790D01*
X148543461Y-80019441D01*
X148627922Y-80179636D01*
X148632327Y-80184849D01*
X148632330Y-80184853D01*
X148740406Y-80312743D01*
X148740410Y-80312747D01*
X148744813Y-80317957D01*
X148750237Y-80322104D01*
X148750238Y-80322105D01*
X148883257Y-80423806D01*
X148883261Y-80423809D01*
X148888678Y-80427950D01*
X148975372Y-80468376D01*
X149046631Y-80501605D01*
X149046634Y-80501606D01*
X149052808Y-80504485D01*
X149059456Y-80505971D01*
X149059459Y-80505972D01*
X149165421Y-80529657D01*
X149229543Y-80543990D01*
X149235088Y-80544300D01*
X149368244Y-80544300D01*
X149503037Y-80529657D01*
X149621190Y-80489894D01*
X149668204Y-80474072D01*
X149668206Y-80474071D01*
X149674675Y-80471894D01*
X149829905Y-80378623D01*
X149834862Y-80373935D01*
X149834865Y-80373933D01*
X149956527Y-80258882D01*
X149956529Y-80258880D01*
X149961485Y-80254193D01*
X149965317Y-80248555D01*
X149965320Y-80248551D01*
X150059442Y-80110055D01*
X150063277Y-80104412D01*
X150130530Y-79936266D01*
X150131644Y-79929538D01*
X150131645Y-79929534D01*
X150158993Y-79764339D01*
X150158993Y-79764336D01*
X150160108Y-79757602D01*
X150158616Y-79729118D01*
X150150987Y-79583566D01*
X150150630Y-79576753D01*
X150138287Y-79531940D01*
X150104352Y-79408741D01*
X150102539Y-79402159D01*
X150018078Y-79241964D01*
X150013485Y-79236529D01*
X150013414Y-79236369D01*
X150009857Y-79231095D01*
X150010802Y-79230457D01*
X149984794Y-79171588D01*
X149995767Y-79101444D01*
X150030087Y-79057560D01*
X150074632Y-79021229D01*
X150083338Y-79012584D01*
X150204610Y-78865991D01*
X150211470Y-78855820D01*
X150301962Y-78688458D01*
X150306714Y-78677153D01*
X150345422Y-78552108D01*
X150345503Y-78546568D01*
X151530425Y-78546568D01*
X151562138Y-78654321D01*
X151566731Y-78665689D01*
X151652607Y-78829954D01*
X151659321Y-78840215D01*
X151775468Y-78984673D01*
X151784046Y-78993432D01*
X151926039Y-79112578D01*
X151936159Y-79119508D01*
X152098585Y-79208802D01*
X152109858Y-79213634D01*
X152286538Y-79269680D01*
X152298532Y-79272230D01*
X152442761Y-79288407D01*
X152449785Y-79288800D01*
X152730885Y-79288800D01*
X152746124Y-79284325D01*
X152747329Y-79282935D01*
X152749000Y-79275252D01*
X152749000Y-79270685D01*
X153257000Y-79270685D01*
X153261475Y-79285924D01*
X153262865Y-79287129D01*
X153270548Y-79288800D01*
X153549657Y-79288800D01*
X153555805Y-79288499D01*
X153693603Y-79274988D01*
X153705638Y-79272605D01*
X153883076Y-79219033D01*
X153894416Y-79214359D01*
X154058077Y-79127340D01*
X154068294Y-79120551D01*
X154211933Y-79003403D01*
X154220637Y-78994759D01*
X154338784Y-78851944D01*
X154345644Y-78841773D01*
X154433804Y-78678724D01*
X154438556Y-78667419D01*
X154474250Y-78552108D01*
X154474456Y-78538005D01*
X154467701Y-78534800D01*
X153275115Y-78534800D01*
X153259876Y-78539275D01*
X153258671Y-78540665D01*
X153257000Y-78548348D01*
X153257000Y-79270685D01*
X152749000Y-79270685D01*
X152749000Y-78552915D01*
X152744525Y-78537676D01*
X152743135Y-78536471D01*
X152735452Y-78534800D01*
X151545076Y-78534800D01*
X151531545Y-78538773D01*
X151530425Y-78546568D01*
X150345503Y-78546568D01*
X150345628Y-78538005D01*
X150338873Y-78534800D01*
X147314014Y-78534800D01*
X147300483Y-78538773D01*
X147299363Y-78546568D01*
X133323091Y-78546568D01*
X133340073Y-78539534D01*
X133386268Y-78504087D01*
X133421086Y-78477371D01*
X133455659Y-78450842D01*
X133462213Y-78445813D01*
X133467239Y-78439263D01*
X133467243Y-78439259D01*
X133480723Y-78421691D01*
X133491591Y-78409299D01*
X133877295Y-78023595D01*
X147300372Y-78023595D01*
X147307127Y-78026800D01*
X148550885Y-78026800D01*
X148566124Y-78022325D01*
X148567329Y-78020935D01*
X148569000Y-78013252D01*
X148569000Y-78008685D01*
X149077000Y-78008685D01*
X149081475Y-78023924D01*
X149082865Y-78025129D01*
X149090548Y-78026800D01*
X150331986Y-78026800D01*
X150342901Y-78023595D01*
X151531544Y-78023595D01*
X151538299Y-78026800D01*
X152730885Y-78026800D01*
X152746124Y-78022325D01*
X152747329Y-78020935D01*
X152749000Y-78013252D01*
X152749000Y-78008685D01*
X153257000Y-78008685D01*
X153261475Y-78023924D01*
X153262865Y-78025129D01*
X153270548Y-78026800D01*
X154460924Y-78026800D01*
X154474455Y-78022827D01*
X154475575Y-78015032D01*
X154443862Y-77907279D01*
X154439269Y-77895911D01*
X154353393Y-77731646D01*
X154346679Y-77721385D01*
X154230532Y-77576927D01*
X154221954Y-77568168D01*
X154079961Y-77449022D01*
X154069841Y-77442092D01*
X153907415Y-77352798D01*
X153896142Y-77347966D01*
X153719462Y-77291920D01*
X153707468Y-77289370D01*
X153563239Y-77273193D01*
X153556215Y-77272800D01*
X153275115Y-77272800D01*
X153259876Y-77277275D01*
X153258671Y-77278665D01*
X153257000Y-77286348D01*
X153257000Y-78008685D01*
X152749000Y-78008685D01*
X152749000Y-77290915D01*
X152744525Y-77275676D01*
X152743135Y-77274471D01*
X152735452Y-77272800D01*
X152456343Y-77272800D01*
X152450195Y-77273101D01*
X152312397Y-77286612D01*
X152300362Y-77288995D01*
X152122924Y-77342567D01*
X152111584Y-77347241D01*
X151947923Y-77434260D01*
X151937706Y-77441049D01*
X151794067Y-77558197D01*
X151785363Y-77566841D01*
X151667216Y-77709656D01*
X151660356Y-77719827D01*
X151572196Y-77882876D01*
X151567444Y-77894181D01*
X151531750Y-78009492D01*
X151531544Y-78023595D01*
X150342901Y-78023595D01*
X150345517Y-78022827D01*
X150346637Y-78015032D01*
X150312154Y-77897868D01*
X150307561Y-77886500D01*
X150219414Y-77717889D01*
X150212698Y-77707627D01*
X150093485Y-77559357D01*
X150084897Y-77550587D01*
X149939162Y-77428301D01*
X149929031Y-77421363D01*
X149762308Y-77329706D01*
X149751038Y-77324876D01*
X149569685Y-77267348D01*
X149557691Y-77264798D01*
X149409650Y-77248193D01*
X149402626Y-77247800D01*
X149095115Y-77247800D01*
X149079876Y-77252275D01*
X149078671Y-77253665D01*
X149077000Y-77261348D01*
X149077000Y-78008685D01*
X148569000Y-78008685D01*
X148569000Y-77265915D01*
X148564525Y-77250676D01*
X148563135Y-77249471D01*
X148555452Y-77247800D01*
X148250110Y-77247800D01*
X148243965Y-77248100D01*
X148102519Y-77261970D01*
X148090481Y-77264353D01*
X147908349Y-77319342D01*
X147897007Y-77324017D01*
X147729023Y-77413335D01*
X147718807Y-77420122D01*
X147571366Y-77540372D01*
X147562662Y-77549016D01*
X147441390Y-77695609D01*
X147434530Y-77705780D01*
X147344038Y-77873142D01*
X147339286Y-77884447D01*
X147300578Y-78009492D01*
X147300372Y-78023595D01*
X133877295Y-78023595D01*
X134294151Y-77606739D01*
X134356463Y-77572713D01*
X134371825Y-77570353D01*
X134479771Y-77560529D01*
X134486473Y-77558351D01*
X134486475Y-77558351D01*
X134646605Y-77506322D01*
X134646608Y-77506321D01*
X134653304Y-77504145D01*
X134690750Y-77481823D01*
X134803977Y-77414327D01*
X134803980Y-77414325D01*
X134810032Y-77410717D01*
X134929693Y-77296765D01*
X134937062Y-77289748D01*
X134937064Y-77289745D01*
X134942166Y-77284887D01*
X135043139Y-77132910D01*
X135066973Y-77070166D01*
X135105433Y-76968922D01*
X135105434Y-76968917D01*
X135107933Y-76962339D01*
X135111119Y-76939672D01*
X135132776Y-76785575D01*
X135132776Y-76785570D01*
X135133327Y-76781652D01*
X135133646Y-76758800D01*
X135113307Y-76577475D01*
X135103090Y-76548134D01*
X135059210Y-76422129D01*
X135053301Y-76405161D01*
X134956611Y-76250424D01*
X134892047Y-76185408D01*
X134833004Y-76125951D01*
X134833000Y-76125948D01*
X134828041Y-76120954D01*
X134816857Y-76113856D01*
X134763090Y-76079735D01*
X134673983Y-76023186D01*
X134567290Y-75985194D01*
X134508727Y-75964340D01*
X134508725Y-75964339D01*
X134502093Y-75961978D01*
X134495107Y-75961145D01*
X134495103Y-75961144D01*
X134360112Y-75945048D01*
X134320914Y-75940374D01*
X134313911Y-75941110D01*
X134313910Y-75941110D01*
X134146453Y-75958710D01*
X134146452Y-75958710D01*
X134139451Y-75959446D01*
X134132785Y-75961715D01*
X134128152Y-75962734D01*
X134057325Y-75957828D01*
X134000395Y-75915408D01*
X133975435Y-75848943D01*
X133990372Y-75779536D01*
X134024390Y-75739712D01*
X134066184Y-75707642D01*
X134072738Y-75702613D01*
X134077764Y-75696063D01*
X134077768Y-75696059D01*
X134091248Y-75678491D01*
X134102116Y-75666099D01*
X134221939Y-75546276D01*
X134284251Y-75512250D01*
X134299613Y-75509890D01*
X134407559Y-75500066D01*
X134414261Y-75497888D01*
X134414263Y-75497888D01*
X134574393Y-75445859D01*
X134574396Y-75445858D01*
X134581092Y-75443682D01*
X134608464Y-75427365D01*
X134731765Y-75353864D01*
X134731768Y-75353862D01*
X134737820Y-75350254D01*
X134836536Y-75256248D01*
X134864850Y-75229285D01*
X134864852Y-75229282D01*
X134869954Y-75224424D01*
X134970927Y-75072447D01*
X135025679Y-74928313D01*
X135033221Y-74908459D01*
X135033222Y-74908454D01*
X135035721Y-74901876D01*
X135038974Y-74878729D01*
X135060564Y-74725112D01*
X135060564Y-74725107D01*
X135061115Y-74721189D01*
X135061434Y-74698337D01*
X135041095Y-74517012D01*
X135032086Y-74491140D01*
X134996214Y-74388131D01*
X134981089Y-74344698D01*
X134884399Y-74189961D01*
X134786312Y-74091187D01*
X134760792Y-74065488D01*
X134760788Y-74065485D01*
X134755829Y-74060491D01*
X134744645Y-74053393D01*
X134655999Y-73997137D01*
X134601771Y-73962723D01*
X134467998Y-73915088D01*
X134436515Y-73903877D01*
X134436513Y-73903876D01*
X134429881Y-73901515D01*
X134422895Y-73900682D01*
X134422891Y-73900681D01*
X134293314Y-73885231D01*
X134248702Y-73879911D01*
X134241699Y-73880647D01*
X134241698Y-73880647D01*
X134195463Y-73885507D01*
X134067239Y-73898983D01*
X134060571Y-73901253D01*
X133901178Y-73955515D01*
X133901175Y-73955516D01*
X133894511Y-73957785D01*
X133739102Y-74053393D01*
X133608738Y-74181055D01*
X133509896Y-74334427D01*
X133507487Y-74341047D01*
X133507485Y-74341050D01*
X133452857Y-74491140D01*
X133447490Y-74505886D01*
X133446608Y-74512867D01*
X133446606Y-74512876D01*
X133445134Y-74524527D01*
X133416751Y-74589603D01*
X133357690Y-74629004D01*
X133286704Y-74630219D01*
X133252617Y-74615119D01*
X133204736Y-74584733D01*
X133155937Y-74553764D01*
X133155933Y-74553762D01*
X133149983Y-74549986D01*
X133038696Y-74510358D01*
X132984727Y-74491140D01*
X132984725Y-74491139D01*
X132978093Y-74488778D01*
X132971107Y-74487945D01*
X132971103Y-74487944D01*
X132841526Y-74472494D01*
X132796914Y-74467174D01*
X132789911Y-74467910D01*
X132789910Y-74467910D01*
X132743675Y-74472770D01*
X132615451Y-74486246D01*
X132608783Y-74488516D01*
X132449390Y-74542778D01*
X132449387Y-74542779D01*
X132442723Y-74545048D01*
X132415651Y-74561703D01*
X132328826Y-74615118D01*
X132287314Y-74640656D01*
X132156950Y-74768318D01*
X132058108Y-74921690D01*
X132055699Y-74928310D01*
X132055697Y-74928313D01*
X132003237Y-75072447D01*
X131995702Y-75093149D01*
X131972834Y-75274173D01*
X131973521Y-75281180D01*
X131973521Y-75281183D01*
X131975519Y-75301556D01*
X131990639Y-75455764D01*
X132048233Y-75628899D01*
X132057531Y-75644251D01*
X132125003Y-75755660D01*
X132142754Y-75784971D01*
X132147645Y-75790036D01*
X132147646Y-75790037D01*
X132204531Y-75848943D01*
X132269503Y-75916223D01*
X132275395Y-75920078D01*
X132275399Y-75920082D01*
X132416285Y-76012275D01*
X132422181Y-76016133D01*
X132428785Y-76018589D01*
X132428787Y-76018590D01*
X132507690Y-76047934D01*
X132593200Y-76079735D01*
X132774060Y-76103867D01*
X132781071Y-76103229D01*
X132781075Y-76103229D01*
X132920780Y-76090514D01*
X132955771Y-76087329D01*
X132962473Y-76085151D01*
X132962475Y-76085151D01*
X133122605Y-76033122D01*
X133122608Y-76033121D01*
X133129304Y-76030945D01*
X133135981Y-76026965D01*
X133279980Y-75941125D01*
X133279982Y-75941124D01*
X133286032Y-75937517D01*
X133304341Y-75920082D01*
X133320123Y-75905054D01*
X133383248Y-75872562D01*
X133407014Y-75870300D01*
X133609147Y-75870300D01*
X133625594Y-75871378D01*
X133655725Y-75875345D01*
X133694044Y-75870300D01*
X133694047Y-75870300D01*
X133715805Y-75867435D01*
X133761723Y-75861390D01*
X133831871Y-75872329D01*
X133884970Y-75919457D01*
X133904160Y-75987811D01*
X133883349Y-76055689D01*
X133844191Y-76093630D01*
X133811314Y-76113856D01*
X133806281Y-76118785D01*
X133723001Y-76200339D01*
X133680950Y-76241518D01*
X133656575Y-76279340D01*
X133593779Y-76376781D01*
X133582108Y-76394890D01*
X133579699Y-76401510D01*
X133579697Y-76401513D01*
X133522110Y-76559732D01*
X133519702Y-76566349D01*
X133507600Y-76662149D01*
X133501821Y-76707897D01*
X133473439Y-76772974D01*
X133465909Y-76781201D01*
X132839915Y-77407195D01*
X132777603Y-77441221D01*
X132750820Y-77444100D01*
X132545666Y-77444100D01*
X132477545Y-77424098D01*
X132456260Y-77406883D01*
X132445407Y-77395954D01*
X132445403Y-77395951D01*
X132440441Y-77390954D01*
X132432837Y-77386128D01*
X132343929Y-77329706D01*
X132286383Y-77293186D01*
X132179690Y-77255194D01*
X132121127Y-77234340D01*
X132121125Y-77234339D01*
X132114493Y-77231978D01*
X132107507Y-77231145D01*
X132107503Y-77231144D01*
X131977926Y-77215694D01*
X131933314Y-77210374D01*
X131926311Y-77211110D01*
X131926310Y-77211110D01*
X131880075Y-77215970D01*
X131751851Y-77229446D01*
X131745183Y-77231716D01*
X131585790Y-77285978D01*
X131585787Y-77285979D01*
X131579123Y-77288248D01*
X131423714Y-77383856D01*
X131365135Y-77441221D01*
X131323674Y-77481823D01*
X131293350Y-77511518D01*
X131194508Y-77664890D01*
X131192099Y-77671510D01*
X131192097Y-77671513D01*
X131148050Y-77792532D01*
X131132102Y-77836349D01*
X131109234Y-78017373D01*
X129202685Y-78017373D01*
X129215772Y-77924258D01*
X129215772Y-77924253D01*
X129216323Y-77920335D01*
X129216642Y-77897483D01*
X129196303Y-77716158D01*
X129136297Y-77543844D01*
X129039607Y-77389107D01*
X129034644Y-77384109D01*
X129033951Y-77383235D01*
X129007313Y-77317425D01*
X129006696Y-77304970D01*
X129006696Y-76985643D01*
X129026698Y-76917522D01*
X129043601Y-76896548D01*
X129098780Y-76841369D01*
X129161092Y-76807343D01*
X129176454Y-76804983D01*
X129247371Y-76798529D01*
X129254073Y-76796351D01*
X129254075Y-76796351D01*
X129414205Y-76744322D01*
X129414208Y-76744321D01*
X129420904Y-76742145D01*
X129446082Y-76727136D01*
X129571577Y-76652327D01*
X129571580Y-76652325D01*
X129577632Y-76648717D01*
X129684864Y-76546601D01*
X129704662Y-76527748D01*
X129704664Y-76527745D01*
X129709766Y-76522887D01*
X129810739Y-76370910D01*
X129831159Y-76317153D01*
X129873033Y-76206922D01*
X129873034Y-76206917D01*
X129875533Y-76200339D01*
X129886995Y-76118785D01*
X129900376Y-76023575D01*
X129900376Y-76023570D01*
X129900927Y-76019652D01*
X129901246Y-75996800D01*
X129880907Y-75815475D01*
X129874242Y-75796334D01*
X129823219Y-75649818D01*
X129820901Y-75643161D01*
X129724211Y-75488424D01*
X129659647Y-75423408D01*
X129600604Y-75363951D01*
X129600600Y-75363948D01*
X129595641Y-75358954D01*
X129587621Y-75353864D01*
X129462047Y-75274173D01*
X129441583Y-75261186D01*
X129321860Y-75218554D01*
X129276327Y-75202340D01*
X129276325Y-75202339D01*
X129269693Y-75199978D01*
X129262707Y-75199145D01*
X129262703Y-75199144D01*
X129133126Y-75183694D01*
X129088514Y-75178374D01*
X129081511Y-75179110D01*
X129081510Y-75179110D01*
X129035275Y-75183970D01*
X128907051Y-75197446D01*
X128900383Y-75199716D01*
X128740990Y-75253978D01*
X128740987Y-75253979D01*
X128734323Y-75256248D01*
X128693792Y-75281183D01*
X128589423Y-75345391D01*
X128578914Y-75351856D01*
X128448550Y-75479518D01*
X128349708Y-75632890D01*
X128347299Y-75639510D01*
X128347297Y-75639513D01*
X128292511Y-75790037D01*
X128287302Y-75804349D01*
X128286420Y-75811333D01*
X128286418Y-75811340D01*
X128274286Y-75907373D01*
X128245904Y-75972450D01*
X128238375Y-75980676D01*
X128001962Y-76217089D01*
X127989571Y-76227956D01*
X127964209Y-76247417D01*
X127939722Y-76279329D01*
X127939719Y-76279332D01*
X127939713Y-76279340D01*
X127874503Y-76364323D01*
X127866672Y-76374528D01*
X127805358Y-76522553D01*
X127803706Y-76535103D01*
X127789696Y-76641519D01*
X127789696Y-76641524D01*
X127784446Y-76681404D01*
X127787458Y-76704279D01*
X127788618Y-76713094D01*
X127789696Y-76729540D01*
X127789696Y-77305005D01*
X127769694Y-77373126D01*
X127766069Y-77378122D01*
X127763946Y-77380201D01*
X127665104Y-77533573D01*
X127662695Y-77540193D01*
X127662693Y-77540196D01*
X127605106Y-77698415D01*
X127602698Y-77705032D01*
X127579830Y-77886056D01*
X124324308Y-77886056D01*
X124359505Y-77833081D01*
X124398037Y-77731646D01*
X124421799Y-77669093D01*
X124421800Y-77669088D01*
X124424299Y-77662510D01*
X124437558Y-77568168D01*
X124449142Y-77485746D01*
X124449142Y-77485741D01*
X124449693Y-77481823D01*
X124450012Y-77458971D01*
X124429673Y-77277646D01*
X124424604Y-77263088D01*
X124376977Y-77126323D01*
X124369667Y-77105332D01*
X124272977Y-76950595D01*
X124190590Y-76867631D01*
X124149370Y-76826122D01*
X124149366Y-76826119D01*
X124144407Y-76821125D01*
X124125486Y-76809117D01*
X124050002Y-76761214D01*
X123990349Y-76723357D01*
X123849536Y-76673215D01*
X123825093Y-76664511D01*
X123825091Y-76664510D01*
X123818459Y-76662149D01*
X123811471Y-76661316D01*
X123811468Y-76661315D01*
X123762326Y-76655456D01*
X123743332Y-76653191D01*
X123678058Y-76625264D01*
X123651396Y-76594846D01*
X123628108Y-76557577D01*
X123628105Y-76557574D01*
X123624372Y-76551599D01*
X123559808Y-76486583D01*
X123500765Y-76427126D01*
X123500761Y-76427123D01*
X123495802Y-76422129D01*
X123484618Y-76415031D01*
X123420795Y-76374528D01*
X123341744Y-76324361D01*
X123215312Y-76279340D01*
X123176488Y-76265515D01*
X123176486Y-76265514D01*
X123169854Y-76263153D01*
X123162868Y-76262320D01*
X123162864Y-76262319D01*
X123021189Y-76245426D01*
X122988675Y-76241549D01*
X122981672Y-76242285D01*
X122981671Y-76242285D01*
X122935436Y-76247145D01*
X122807212Y-76260621D01*
X122800544Y-76262891D01*
X122641151Y-76317153D01*
X122641148Y-76317154D01*
X122634484Y-76319423D01*
X122479075Y-76415031D01*
X122474042Y-76419960D01*
X122356461Y-76535104D01*
X122348711Y-76542693D01*
X122249869Y-76696065D01*
X122247460Y-76702685D01*
X122247458Y-76702688D01*
X122189871Y-76860907D01*
X122187463Y-76867524D01*
X122186581Y-76874508D01*
X122186579Y-76874515D01*
X122174447Y-76970548D01*
X122146065Y-77035625D01*
X122138536Y-77043851D01*
X121930166Y-77252221D01*
X121917775Y-77263088D01*
X121892413Y-77282549D01*
X121887388Y-77289098D01*
X121887334Y-77289152D01*
X121864263Y-77307372D01*
X121835811Y-77324876D01*
X121822514Y-77333056D01*
X121765277Y-77389107D01*
X121704094Y-77449022D01*
X121692150Y-77460718D01*
X121593308Y-77614090D01*
X121590899Y-77620710D01*
X121590897Y-77620713D01*
X121550521Y-77731646D01*
X121530902Y-77785549D01*
X121508034Y-77966573D01*
X97750000Y-77966573D01*
X97750000Y-74930000D01*
X112497496Y-74930000D01*
X112498186Y-74936565D01*
X112513085Y-75078318D01*
X112517458Y-75119928D01*
X112576473Y-75301556D01*
X112671960Y-75466944D01*
X112676378Y-75471851D01*
X112676379Y-75471852D01*
X112743391Y-75546276D01*
X112799747Y-75608866D01*
X112860554Y-75653045D01*
X112911161Y-75689813D01*
X112954248Y-75721118D01*
X112960276Y-75723802D01*
X112960278Y-75723803D01*
X113098062Y-75785148D01*
X113128712Y-75798794D01*
X113222112Y-75818647D01*
X113309056Y-75837128D01*
X113309061Y-75837128D01*
X113315513Y-75838500D01*
X113506487Y-75838500D01*
X113520159Y-75835594D01*
X113545580Y-75830191D01*
X113616371Y-75835594D01*
X113673003Y-75878411D01*
X113697496Y-75945048D01*
X113691609Y-75992374D01*
X113685858Y-76010072D01*
X113685168Y-76016633D01*
X113685168Y-76016635D01*
X113678794Y-76077278D01*
X113665896Y-76200000D01*
X113666586Y-76206565D01*
X113683551Y-76367975D01*
X113685858Y-76389928D01*
X113744873Y-76571556D01*
X113748176Y-76577278D01*
X113748177Y-76577279D01*
X113762715Y-76602460D01*
X113840360Y-76736944D01*
X113844778Y-76741851D01*
X113844779Y-76741852D01*
X113945304Y-76853496D01*
X113968147Y-76878866D01*
X114122648Y-76991118D01*
X114128676Y-76993802D01*
X114128678Y-76993803D01*
X114291081Y-77066109D01*
X114297112Y-77068794D01*
X114390513Y-77088647D01*
X114477456Y-77107128D01*
X114477461Y-77107128D01*
X114483913Y-77108500D01*
X114674887Y-77108500D01*
X114681339Y-77107128D01*
X114681344Y-77107128D01*
X114768287Y-77088647D01*
X114861688Y-77068794D01*
X114867719Y-77066109D01*
X115030122Y-76993803D01*
X115030124Y-76993802D01*
X115036152Y-76991118D01*
X115190653Y-76878866D01*
X115285085Y-76773988D01*
X115345530Y-76736750D01*
X115378720Y-76732300D01*
X116583116Y-76732300D01*
X116651237Y-76752302D01*
X116662295Y-76761214D01*
X116662469Y-76760987D01*
X116694381Y-76785474D01*
X116694384Y-76785477D01*
X116719805Y-76804983D01*
X116789580Y-76858524D01*
X116811567Y-76867631D01*
X116937606Y-76919838D01*
X117056571Y-76935500D01*
X117056576Y-76935500D01*
X117056585Y-76935501D01*
X117088268Y-76939672D01*
X117096456Y-76940750D01*
X117128149Y-76936578D01*
X117144592Y-76935500D01*
X117633290Y-76935500D01*
X117701411Y-76955502D01*
X117726926Y-76977189D01*
X117746539Y-76998971D01*
X117752747Y-77005866D01*
X117763041Y-77013345D01*
X117892122Y-77107128D01*
X117907248Y-77118118D01*
X117913276Y-77120802D01*
X117913278Y-77120803D01*
X117953658Y-77138781D01*
X118081712Y-77195794D01*
X118153768Y-77211110D01*
X118262056Y-77234128D01*
X118262061Y-77234128D01*
X118268513Y-77235500D01*
X118459487Y-77235500D01*
X118465939Y-77234128D01*
X118465944Y-77234128D01*
X118574232Y-77211110D01*
X118646288Y-77195794D01*
X118774342Y-77138781D01*
X118814722Y-77120803D01*
X118814724Y-77120802D01*
X118820752Y-77118118D01*
X118835879Y-77107128D01*
X118964959Y-77013345D01*
X118975253Y-77005866D01*
X119001074Y-76977189D01*
X119098621Y-76868852D01*
X119098622Y-76868851D01*
X119103040Y-76863944D01*
X119175443Y-76738538D01*
X119195223Y-76704279D01*
X119195224Y-76704278D01*
X119198527Y-76698556D01*
X119257542Y-76516928D01*
X119266981Y-76427126D01*
X119276814Y-76333565D01*
X119277504Y-76327000D01*
X119271042Y-76265515D01*
X119258232Y-76143635D01*
X119258232Y-76143633D01*
X119257542Y-76137072D01*
X119198527Y-75955444D01*
X119103040Y-75790056D01*
X119098462Y-75784971D01*
X118979675Y-75653045D01*
X118979674Y-75653044D01*
X118975253Y-75648134D01*
X118926550Y-75612749D01*
X118914226Y-75603795D01*
X118870872Y-75547572D01*
X118864797Y-75476836D01*
X118876621Y-75445594D01*
X118876188Y-75445401D01*
X118878872Y-75439373D01*
X118882176Y-75433650D01*
X118941191Y-75252022D01*
X118947005Y-75196710D01*
X118960463Y-75068659D01*
X118961153Y-75062094D01*
X118941191Y-74872166D01*
X118882176Y-74690538D01*
X118786689Y-74525150D01*
X118775638Y-74512876D01*
X118663324Y-74388139D01*
X118663323Y-74388138D01*
X118658902Y-74383228D01*
X118504401Y-74270976D01*
X118498373Y-74268292D01*
X118498371Y-74268291D01*
X118335968Y-74195985D01*
X118335967Y-74195985D01*
X118329937Y-74193300D01*
X118236537Y-74173447D01*
X118149593Y-74154966D01*
X118149588Y-74154966D01*
X118143136Y-74153594D01*
X117952162Y-74153594D01*
X117945710Y-74154966D01*
X117945705Y-74154966D01*
X117858761Y-74173447D01*
X117765361Y-74193300D01*
X117759331Y-74195985D01*
X117759330Y-74195985D01*
X117596927Y-74268291D01*
X117596925Y-74268292D01*
X117590897Y-74270976D01*
X117585556Y-74274856D01*
X117585555Y-74274857D01*
X117497654Y-74338721D01*
X117436396Y-74383228D01*
X117431983Y-74388130D01*
X117431981Y-74388131D01*
X117410575Y-74411905D01*
X117350129Y-74449144D01*
X117316939Y-74453594D01*
X114257370Y-74453594D01*
X114189249Y-74433592D01*
X114155434Y-74401655D01*
X114153341Y-74398774D01*
X114150040Y-74393056D01*
X114112492Y-74351355D01*
X114026675Y-74256045D01*
X114026674Y-74256044D01*
X114022253Y-74251134D01*
X113884669Y-74151173D01*
X113873094Y-74142763D01*
X113873093Y-74142762D01*
X113867752Y-74138882D01*
X113861724Y-74136198D01*
X113861722Y-74136197D01*
X113699319Y-74063891D01*
X113699318Y-74063891D01*
X113693288Y-74061206D01*
X113599887Y-74041353D01*
X113512944Y-74022872D01*
X113512939Y-74022872D01*
X113506487Y-74021500D01*
X113315513Y-74021500D01*
X113309061Y-74022872D01*
X113309056Y-74022872D01*
X113222113Y-74041353D01*
X113128712Y-74061206D01*
X113122682Y-74063891D01*
X113122681Y-74063891D01*
X112960278Y-74136197D01*
X112960276Y-74136198D01*
X112954248Y-74138882D01*
X112948907Y-74142762D01*
X112948906Y-74142763D01*
X112937331Y-74151173D01*
X112799747Y-74251134D01*
X112795326Y-74256044D01*
X112795325Y-74256045D01*
X112711282Y-74349385D01*
X112671960Y-74393056D01*
X112646740Y-74436739D01*
X112583595Y-74546109D01*
X112576473Y-74558444D01*
X112517458Y-74740072D01*
X112516768Y-74746633D01*
X112516768Y-74746635D01*
X112502885Y-74878729D01*
X112497496Y-74930000D01*
X97750000Y-74930000D01*
X97750000Y-72624656D01*
X137013513Y-72624656D01*
X137033475Y-72814584D01*
X137092490Y-72996212D01*
X137095793Y-73001934D01*
X137095794Y-73001935D01*
X137103658Y-73015556D01*
X137187977Y-73161600D01*
X137192395Y-73166507D01*
X137192396Y-73166508D01*
X137268514Y-73251046D01*
X137315764Y-73303522D01*
X137470265Y-73415774D01*
X137476293Y-73418458D01*
X137476295Y-73418459D01*
X137519743Y-73437803D01*
X137644729Y-73493450D01*
X137723103Y-73510109D01*
X137825073Y-73531784D01*
X137825078Y-73531784D01*
X137831530Y-73533156D01*
X138022504Y-73533156D01*
X138028956Y-73531784D01*
X138028961Y-73531784D01*
X138130931Y-73510109D01*
X138209305Y-73493450D01*
X138334291Y-73437803D01*
X138377739Y-73418459D01*
X138377741Y-73418458D01*
X138383769Y-73415774D01*
X138538270Y-73303522D01*
X138585521Y-73251044D01*
X138645964Y-73213806D01*
X138679155Y-73209356D01*
X141724443Y-73209356D01*
X141792564Y-73229358D01*
X141818079Y-73251045D01*
X141866451Y-73304767D01*
X141882747Y-73322866D01*
X141904329Y-73338546D01*
X142005282Y-73411893D01*
X142037248Y-73435118D01*
X142043276Y-73437802D01*
X142043278Y-73437803D01*
X142168264Y-73493450D01*
X142211712Y-73512794D01*
X142305112Y-73532647D01*
X142392056Y-73551128D01*
X142392061Y-73551128D01*
X142398513Y-73552500D01*
X142589487Y-73552500D01*
X142595939Y-73551128D01*
X142595944Y-73551128D01*
X142682888Y-73532647D01*
X142776288Y-73512794D01*
X142819736Y-73493450D01*
X142944722Y-73437803D01*
X142944724Y-73437802D01*
X142950752Y-73435118D01*
X143105253Y-73322866D01*
X143119174Y-73307405D01*
X143228621Y-73185852D01*
X143228622Y-73185851D01*
X143233040Y-73180944D01*
X143293228Y-73076695D01*
X143637251Y-73076695D01*
X143637548Y-73081848D01*
X143637548Y-73081851D01*
X143646053Y-73229358D01*
X143650110Y-73299715D01*
X143651247Y-73304761D01*
X143651248Y-73304767D01*
X143656202Y-73326749D01*
X143699222Y-73517639D01*
X143783266Y-73724616D01*
X143785965Y-73729020D01*
X143878942Y-73880745D01*
X143899987Y-73915088D01*
X144046250Y-74083938D01*
X144050230Y-74087242D01*
X144054981Y-74091187D01*
X144094616Y-74150090D01*
X144096113Y-74221071D01*
X144058997Y-74281593D01*
X144018724Y-74306112D01*
X143903295Y-74349385D01*
X143786739Y-74436739D01*
X143699385Y-74553295D01*
X143648255Y-74689684D01*
X143641500Y-74751866D01*
X143641500Y-76548134D01*
X143648255Y-76610316D01*
X143699385Y-76746705D01*
X143786739Y-76863261D01*
X143903295Y-76950615D01*
X144039684Y-77001745D01*
X144101866Y-77008500D01*
X145898134Y-77008500D01*
X145960316Y-77001745D01*
X146096705Y-76950615D01*
X146213261Y-76863261D01*
X146300615Y-76746705D01*
X146351745Y-76610316D01*
X146358500Y-76548134D01*
X146358500Y-74751866D01*
X146351745Y-74689684D01*
X146300615Y-74553295D01*
X146213261Y-74436739D01*
X146096705Y-74349385D01*
X146084132Y-74344672D01*
X145978203Y-74304960D01*
X145921439Y-74262318D01*
X145896739Y-74195756D01*
X145911947Y-74126408D01*
X145933493Y-74097727D01*
X145965845Y-74065488D01*
X146038096Y-73993489D01*
X146060204Y-73962723D01*
X146165435Y-73816277D01*
X146168453Y-73812077D01*
X146267430Y-73611811D01*
X146332370Y-73398069D01*
X146361529Y-73176590D01*
X146363156Y-73110000D01*
X146344852Y-72887361D01*
X146290431Y-72670702D01*
X146201354Y-72465840D01*
X146080014Y-72278277D01*
X145929670Y-72113051D01*
X145925619Y-72109852D01*
X145925615Y-72109848D01*
X145758414Y-71977800D01*
X145758410Y-71977798D01*
X145754359Y-71974598D01*
X145713053Y-71951796D01*
X145663084Y-71901364D01*
X145648312Y-71831921D01*
X145673428Y-71765516D01*
X145700780Y-71738909D01*
X145748052Y-71705190D01*
X145879860Y-71611173D01*
X146038096Y-71453489D01*
X146097594Y-71370689D01*
X146165435Y-71276277D01*
X146168453Y-71272077D01*
X146267430Y-71071811D01*
X146332370Y-70858069D01*
X146361529Y-70636590D01*
X146363156Y-70570000D01*
X146344852Y-70347361D01*
X146290431Y-70130702D01*
X146201354Y-69925840D01*
X146080014Y-69738277D01*
X145929670Y-69573051D01*
X145925619Y-69569852D01*
X145925615Y-69569848D01*
X145758414Y-69437800D01*
X145758410Y-69437798D01*
X145754359Y-69434598D01*
X145745523Y-69429720D01*
X145712569Y-69411529D01*
X145662598Y-69361097D01*
X145647826Y-69291654D01*
X145672942Y-69225248D01*
X145700294Y-69198641D01*
X145875328Y-69073792D01*
X145883200Y-69067139D01*
X146034052Y-68916812D01*
X146040730Y-68908965D01*
X146165003Y-68736020D01*
X146170313Y-68727183D01*
X146264670Y-68536267D01*
X146268469Y-68526672D01*
X146330377Y-68322910D01*
X146332555Y-68312837D01*
X146333986Y-68301962D01*
X146331775Y-68287778D01*
X146318617Y-68284000D01*
X143683225Y-68284000D01*
X143669694Y-68287973D01*
X143668257Y-68297966D01*
X143698565Y-68432446D01*
X143701645Y-68442275D01*
X143781770Y-68639603D01*
X143786413Y-68648794D01*
X143897694Y-68830388D01*
X143903777Y-68838699D01*
X144043213Y-68999667D01*
X144050580Y-69006883D01*
X144214434Y-69142916D01*
X144222881Y-69148831D01*
X144291969Y-69189203D01*
X144340693Y-69240842D01*
X144353764Y-69310625D01*
X144327033Y-69376396D01*
X144286584Y-69409752D01*
X144273607Y-69416507D01*
X144269474Y-69419610D01*
X144269471Y-69419612D01*
X144099100Y-69547530D01*
X144094965Y-69550635D01*
X144091393Y-69554373D01*
X143969991Y-69681413D01*
X143940629Y-69712138D01*
X143937715Y-69716410D01*
X143937714Y-69716411D01*
X143922798Y-69738277D01*
X143814743Y-69896680D01*
X143793685Y-69942046D01*
X143726732Y-70086285D01*
X143720688Y-70099305D01*
X143660989Y-70314570D01*
X143637251Y-70536695D01*
X143637548Y-70541848D01*
X143637548Y-70541851D01*
X143645221Y-70674919D01*
X143650110Y-70759715D01*
X143651247Y-70764761D01*
X143651248Y-70764767D01*
X143655340Y-70782924D01*
X143699222Y-70977639D01*
X143783266Y-71184616D01*
X143899987Y-71375088D01*
X144046250Y-71543938D01*
X144218126Y-71686632D01*
X144288595Y-71727811D01*
X144291445Y-71729476D01*
X144340169Y-71781114D01*
X144353240Y-71850897D01*
X144326509Y-71916669D01*
X144286055Y-71950027D01*
X144273607Y-71956507D01*
X144269474Y-71959610D01*
X144269471Y-71959612D01*
X144099100Y-72087530D01*
X144094965Y-72090635D01*
X143940629Y-72252138D01*
X143814743Y-72436680D01*
X143720688Y-72639305D01*
X143660989Y-72854570D01*
X143637251Y-73076695D01*
X143293228Y-73076695D01*
X143328527Y-73015556D01*
X143387542Y-72833928D01*
X143407504Y-72644000D01*
X143387542Y-72454072D01*
X143328527Y-72272444D01*
X143320988Y-72259385D01*
X143236341Y-72112774D01*
X143233040Y-72107056D01*
X143218255Y-72090635D01*
X143109675Y-71970045D01*
X143109674Y-71970044D01*
X143105253Y-71965134D01*
X143006157Y-71893136D01*
X142956094Y-71856763D01*
X142956093Y-71856762D01*
X142950752Y-71852882D01*
X142944724Y-71850198D01*
X142944722Y-71850197D01*
X142782319Y-71777891D01*
X142782318Y-71777891D01*
X142776288Y-71775206D01*
X142682887Y-71755353D01*
X142595944Y-71736872D01*
X142595939Y-71736872D01*
X142589487Y-71735500D01*
X142398513Y-71735500D01*
X142392061Y-71736872D01*
X142392056Y-71736872D01*
X142305113Y-71755353D01*
X142211712Y-71775206D01*
X142205682Y-71777891D01*
X142205681Y-71777891D01*
X142043278Y-71850197D01*
X142043276Y-71850198D01*
X142037248Y-71852882D01*
X142031907Y-71856762D01*
X142031906Y-71856763D01*
X141981843Y-71893136D01*
X141882747Y-71965134D01*
X141852913Y-71998268D01*
X141792470Y-72035506D01*
X141759279Y-72039956D01*
X140513500Y-72039956D01*
X140445379Y-72019954D01*
X140398886Y-71966298D01*
X140387500Y-71913956D01*
X140387500Y-70982866D01*
X140380745Y-70920684D01*
X140329615Y-70784295D01*
X140242261Y-70667739D01*
X140125705Y-70580385D01*
X139989316Y-70529255D01*
X139927134Y-70522500D01*
X138612866Y-70522500D01*
X138550684Y-70529255D01*
X138414295Y-70580385D01*
X138297739Y-70667739D01*
X138210385Y-70784295D01*
X138159255Y-70920684D01*
X138152500Y-70982866D01*
X138152500Y-71590576D01*
X138132498Y-71658697D01*
X138078842Y-71705190D01*
X138022504Y-71714388D01*
X138022504Y-71716156D01*
X137831530Y-71716156D01*
X137825078Y-71717528D01*
X137825073Y-71717528D01*
X137740524Y-71735500D01*
X137644729Y-71755862D01*
X137638699Y-71758547D01*
X137638698Y-71758547D01*
X137476295Y-71830853D01*
X137476293Y-71830854D01*
X137470265Y-71833538D01*
X137464924Y-71837418D01*
X137464923Y-71837419D01*
X137438299Y-71856763D01*
X137315764Y-71945790D01*
X137311343Y-71950700D01*
X137311342Y-71950701D01*
X137230977Y-72039956D01*
X137187977Y-72087712D01*
X137092490Y-72253100D01*
X137033475Y-72434728D01*
X137013513Y-72624656D01*
X97750000Y-72624656D01*
X97750000Y-68724300D01*
X103988496Y-68724300D01*
X103989186Y-68730865D01*
X104003357Y-68865690D01*
X104008458Y-68914228D01*
X104067473Y-69095856D01*
X104162960Y-69261244D01*
X104167378Y-69266151D01*
X104167379Y-69266152D01*
X104277030Y-69387932D01*
X104307748Y-69451939D01*
X104298983Y-69522393D01*
X104289719Y-69538617D01*
X104289960Y-69538756D01*
X104280944Y-69554373D01*
X104194473Y-69704144D01*
X104135458Y-69885772D01*
X104134768Y-69892333D01*
X104134768Y-69892335D01*
X104120835Y-70024906D01*
X104115496Y-70075700D01*
X104116186Y-70082265D01*
X104133528Y-70247262D01*
X104135458Y-70265628D01*
X104194473Y-70447256D01*
X104289960Y-70612644D01*
X104294378Y-70617551D01*
X104294379Y-70617552D01*
X104350312Y-70679672D01*
X104417747Y-70754566D01*
X104572248Y-70866818D01*
X104578276Y-70869502D01*
X104578278Y-70869503D01*
X104740681Y-70941809D01*
X104746712Y-70944494D01*
X104840112Y-70964347D01*
X104927056Y-70982828D01*
X104927061Y-70982828D01*
X104933513Y-70984200D01*
X105124487Y-70984200D01*
X105130939Y-70982828D01*
X105130944Y-70982828D01*
X105217888Y-70964347D01*
X105311288Y-70944494D01*
X105317319Y-70941809D01*
X105479722Y-70869503D01*
X105479724Y-70869502D01*
X105485752Y-70866818D01*
X105640253Y-70754566D01*
X105707688Y-70679672D01*
X105763621Y-70617552D01*
X105763622Y-70617551D01*
X105768040Y-70612644D01*
X105863527Y-70447256D01*
X105922542Y-70265628D01*
X105924473Y-70247262D01*
X105941814Y-70082265D01*
X105942504Y-70075700D01*
X105937165Y-70024906D01*
X105923232Y-69892335D01*
X105923232Y-69892333D01*
X105922542Y-69885772D01*
X105863527Y-69704144D01*
X105768040Y-69538756D01*
X105710298Y-69474627D01*
X105669864Y-69429720D01*
X105639146Y-69365713D01*
X105637500Y-69345410D01*
X105637500Y-69301137D01*
X105654381Y-69238137D01*
X105733223Y-69101579D01*
X105733224Y-69101578D01*
X105736527Y-69095856D01*
X105795542Y-68914228D01*
X105800644Y-68865690D01*
X105814814Y-68730865D01*
X105815504Y-68724300D01*
X105811884Y-68689858D01*
X105796232Y-68540935D01*
X105796232Y-68540933D01*
X105795542Y-68534372D01*
X105736527Y-68352744D01*
X105728742Y-68339259D01*
X105716642Y-68318302D01*
X112108798Y-68318302D01*
X112109488Y-68324867D01*
X112126714Y-68488759D01*
X112128760Y-68508230D01*
X112187775Y-68689858D01*
X112283262Y-68855246D01*
X112287680Y-68860153D01*
X112287681Y-68860154D01*
X112338696Y-68916812D01*
X112411049Y-68997168D01*
X112502458Y-69063581D01*
X112557683Y-69103704D01*
X112565550Y-69109420D01*
X112571578Y-69112104D01*
X112571580Y-69112105D01*
X112667985Y-69155027D01*
X112740014Y-69187096D01*
X112794329Y-69198641D01*
X112829697Y-69206159D01*
X112892171Y-69239888D01*
X112926492Y-69302037D01*
X112929500Y-69329406D01*
X112929500Y-69345410D01*
X112909498Y-69413531D01*
X112897136Y-69429720D01*
X112856702Y-69474627D01*
X112798960Y-69538756D01*
X112703473Y-69704144D01*
X112644458Y-69885772D01*
X112643768Y-69892333D01*
X112643768Y-69892335D01*
X112629835Y-70024906D01*
X112624496Y-70075700D01*
X112625186Y-70082265D01*
X112642528Y-70247262D01*
X112644458Y-70265628D01*
X112703473Y-70447256D01*
X112798960Y-70612644D01*
X112803378Y-70617551D01*
X112803379Y-70617552D01*
X112859312Y-70679672D01*
X112926747Y-70754566D01*
X113081248Y-70866818D01*
X113087276Y-70869502D01*
X113087278Y-70869503D01*
X113249681Y-70941809D01*
X113255712Y-70944494D01*
X113349112Y-70964347D01*
X113436056Y-70982828D01*
X113436061Y-70982828D01*
X113442513Y-70984200D01*
X113633487Y-70984200D01*
X113639939Y-70982828D01*
X113639944Y-70982828D01*
X113726888Y-70964347D01*
X113820288Y-70944494D01*
X113826319Y-70941809D01*
X113988722Y-70869503D01*
X113988724Y-70869502D01*
X113994752Y-70866818D01*
X114149253Y-70754566D01*
X114216688Y-70679672D01*
X114256793Y-70635131D01*
X132036630Y-70635131D01*
X132046510Y-70647618D01*
X132086272Y-70674186D01*
X132096375Y-70679672D01*
X132278773Y-70758036D01*
X132289716Y-70761591D01*
X132483333Y-70805403D01*
X132494742Y-70806905D01*
X132693108Y-70814698D01*
X132704590Y-70814096D01*
X132901050Y-70785612D01*
X132912245Y-70782924D01*
X133100224Y-70719113D01*
X133110731Y-70714435D01*
X133232545Y-70646215D01*
X133242410Y-70636137D01*
X133239454Y-70628465D01*
X132651612Y-70040623D01*
X132637668Y-70033009D01*
X132635835Y-70033140D01*
X132629220Y-70037391D01*
X132042827Y-70623784D01*
X132036630Y-70635131D01*
X114256793Y-70635131D01*
X114272621Y-70617552D01*
X114272622Y-70617551D01*
X114277040Y-70612644D01*
X114372527Y-70447256D01*
X114431542Y-70265628D01*
X114433473Y-70247262D01*
X114450814Y-70082265D01*
X114451504Y-70075700D01*
X114446165Y-70024906D01*
X114432232Y-69892335D01*
X114432232Y-69892333D01*
X114431542Y-69885772D01*
X114372527Y-69704144D01*
X114337987Y-69644319D01*
X131491674Y-69644319D01*
X131504658Y-69842404D01*
X131506459Y-69853774D01*
X131555323Y-70046177D01*
X131559164Y-70057024D01*
X131642275Y-70237306D01*
X131648023Y-70247262D01*
X131659475Y-70263468D01*
X131670063Y-70271855D01*
X131683364Y-70264827D01*
X132266778Y-69681413D01*
X132273156Y-69669733D01*
X133003208Y-69669733D01*
X133003339Y-69671566D01*
X133007590Y-69678181D01*
X133594750Y-70265341D01*
X133607130Y-70272101D01*
X133613710Y-70267175D01*
X133684634Y-70140532D01*
X133689312Y-70130025D01*
X133753123Y-69942046D01*
X133755811Y-69930851D01*
X133784591Y-69732351D01*
X133785221Y-69724968D01*
X133786600Y-69672305D01*
X133786357Y-69664906D01*
X133768004Y-69465167D01*
X133765907Y-69453852D01*
X133712022Y-69262791D01*
X133707900Y-69252052D01*
X133620099Y-69074010D01*
X133618023Y-69070622D01*
X138148098Y-69070622D01*
X138161530Y-69275564D01*
X138162952Y-69281162D01*
X138162952Y-69281164D01*
X138187138Y-69376396D01*
X138212086Y-69474627D01*
X138298071Y-69661143D01*
X138416606Y-69828867D01*
X138420740Y-69832894D01*
X138532788Y-69942046D01*
X138563722Y-69972181D01*
X138568518Y-69975386D01*
X138568521Y-69975388D01*
X138654954Y-70033140D01*
X138734491Y-70086285D01*
X138739794Y-70088563D01*
X138739797Y-70088565D01*
X138917887Y-70165078D01*
X138923194Y-70167358D01*
X139020693Y-70189420D01*
X139117876Y-70211411D01*
X139117879Y-70211411D01*
X139123512Y-70212686D01*
X139129283Y-70212913D01*
X139129285Y-70212913D01*
X139192647Y-70215402D01*
X139328736Y-70220749D01*
X139448384Y-70203401D01*
X139526271Y-70192108D01*
X139526275Y-70192107D01*
X139531993Y-70191278D01*
X139537465Y-70189420D01*
X139537467Y-70189420D01*
X139721011Y-70127115D01*
X139721013Y-70127114D01*
X139726475Y-70125260D01*
X139905670Y-70024906D01*
X140063577Y-69893577D01*
X140194906Y-69735670D01*
X140295260Y-69556475D01*
X140297243Y-69550635D01*
X140359420Y-69367467D01*
X140359420Y-69367465D01*
X140361278Y-69361993D01*
X140363683Y-69345410D01*
X140390216Y-69162410D01*
X140390749Y-69158736D01*
X140392287Y-69100000D01*
X140373494Y-68895479D01*
X140367403Y-68873880D01*
X140319313Y-68703367D01*
X140319312Y-68703365D01*
X140317745Y-68697808D01*
X140314589Y-68691407D01*
X140229462Y-68518788D01*
X140226907Y-68513607D01*
X140146973Y-68406561D01*
X140107475Y-68353667D01*
X140107474Y-68353666D01*
X140104022Y-68349043D01*
X140093438Y-68339259D01*
X139957446Y-68213550D01*
X139957444Y-68213548D01*
X139953205Y-68209630D01*
X139834824Y-68134937D01*
X139784388Y-68103114D01*
X139779508Y-68100035D01*
X139774148Y-68097897D01*
X139774145Y-68097895D01*
X139594111Y-68026069D01*
X139588747Y-68023929D01*
X139583087Y-68022803D01*
X139583083Y-68022802D01*
X139392978Y-67984988D01*
X139392976Y-67984988D01*
X139387311Y-67983861D01*
X139381536Y-67983785D01*
X139381532Y-67983785D01*
X139279029Y-67982444D01*
X139181946Y-67981173D01*
X139176249Y-67982152D01*
X139176248Y-67982152D01*
X138985228Y-68014975D01*
X138979531Y-68015954D01*
X138786843Y-68087040D01*
X138781882Y-68089992D01*
X138781881Y-68089992D01*
X138615304Y-68189095D01*
X138615301Y-68189097D01*
X138610336Y-68192051D01*
X138605996Y-68195857D01*
X138605992Y-68195860D01*
X138460263Y-68323662D01*
X138455922Y-68327469D01*
X138452347Y-68332004D01*
X138452346Y-68332005D01*
X138440508Y-68347021D01*
X138328771Y-68488759D01*
X138326082Y-68493870D01*
X138326080Y-68493873D01*
X138304773Y-68534372D01*
X138233142Y-68670519D01*
X138214404Y-68730865D01*
X138177559Y-68849528D01*
X138172238Y-68866663D01*
X138148098Y-69070622D01*
X133618023Y-69070622D01*
X133617992Y-69070571D01*
X133608676Y-69063581D01*
X133596259Y-69070352D01*
X133010822Y-69655789D01*
X133003208Y-69669733D01*
X132273156Y-69669733D01*
X132274392Y-69667469D01*
X132274261Y-69665636D01*
X132270010Y-69659021D01*
X131681426Y-69070437D01*
X131669046Y-69063677D01*
X131663080Y-69068143D01*
X131580973Y-69224203D01*
X131576568Y-69234837D01*
X131517700Y-69424423D01*
X131515308Y-69435677D01*
X131491975Y-69632818D01*
X131491674Y-69644319D01*
X114337987Y-69644319D01*
X114277040Y-69538756D01*
X114219298Y-69474627D01*
X114178864Y-69429720D01*
X114148146Y-69365713D01*
X114146500Y-69345410D01*
X114146500Y-68882136D01*
X114147578Y-68865690D01*
X114150672Y-68842188D01*
X114151750Y-68834000D01*
X114146500Y-68794120D01*
X114146500Y-68794115D01*
X114134339Y-68701740D01*
X132036051Y-68701740D01*
X132039538Y-68710129D01*
X132625988Y-69296579D01*
X132639932Y-69304193D01*
X132641765Y-69304062D01*
X132648380Y-69299811D01*
X133234457Y-68713734D01*
X133241217Y-68701354D01*
X133235187Y-68693299D01*
X133164820Y-68648900D01*
X133154569Y-68643677D01*
X132970189Y-68570117D01*
X132959152Y-68566848D01*
X132764454Y-68528119D01*
X132753010Y-68526916D01*
X132554519Y-68524319D01*
X132543039Y-68525222D01*
X132347399Y-68558839D01*
X132336279Y-68561819D01*
X132150034Y-68630528D01*
X132139656Y-68635478D01*
X132045649Y-68691407D01*
X132036051Y-68701740D01*
X114134339Y-68701740D01*
X114130838Y-68675150D01*
X114116447Y-68640406D01*
X114069524Y-68527124D01*
X114059844Y-68514508D01*
X113996483Y-68431936D01*
X113996477Y-68431928D01*
X113996474Y-68431925D01*
X113971987Y-68400013D01*
X113970581Y-68398934D01*
X113937995Y-68339259D01*
X113935774Y-68318602D01*
X113935806Y-68318302D01*
X113924384Y-68209630D01*
X113916534Y-68134937D01*
X113916534Y-68134935D01*
X113915844Y-68128374D01*
X113856829Y-67946746D01*
X113761342Y-67781358D01*
X113752941Y-67772027D01*
X113745878Y-67764183D01*
X143664389Y-67764183D01*
X143665912Y-67772607D01*
X143678292Y-67776000D01*
X144727885Y-67776000D01*
X144743124Y-67771525D01*
X144744329Y-67770135D01*
X144746000Y-67762452D01*
X144746000Y-67757885D01*
X145254000Y-67757885D01*
X145258475Y-67773124D01*
X145259865Y-67774329D01*
X145267548Y-67776000D01*
X146318344Y-67776000D01*
X146331875Y-67772027D01*
X146333180Y-67762947D01*
X146291214Y-67595875D01*
X146287894Y-67586124D01*
X146202972Y-67390814D01*
X146198105Y-67381739D01*
X146082426Y-67202926D01*
X146076136Y-67194757D01*
X145932806Y-67037240D01*
X145925273Y-67030215D01*
X145758139Y-66898222D01*
X145749552Y-66892517D01*
X145563117Y-66789599D01*
X145553705Y-66785369D01*
X145352959Y-66714280D01*
X145342988Y-66711646D01*
X145271837Y-66698972D01*
X145258540Y-66700432D01*
X145254000Y-66714989D01*
X145254000Y-67757885D01*
X144746000Y-67757885D01*
X144746000Y-66713102D01*
X144742082Y-66699758D01*
X144727806Y-66697771D01*
X144689324Y-66703660D01*
X144679288Y-66706051D01*
X144476868Y-66772212D01*
X144467359Y-66776209D01*
X144278463Y-66874542D01*
X144269738Y-66880036D01*
X144099433Y-67007905D01*
X144091726Y-67014748D01*
X143944590Y-67168717D01*
X143938104Y-67176727D01*
X143818098Y-67352649D01*
X143813000Y-67361623D01*
X143723338Y-67554783D01*
X143719775Y-67564470D01*
X143664389Y-67764183D01*
X113745878Y-67764183D01*
X113637977Y-67644347D01*
X113637976Y-67644346D01*
X113633555Y-67639436D01*
X113479054Y-67527184D01*
X113473026Y-67524500D01*
X113473024Y-67524499D01*
X113435479Y-67507783D01*
X138686577Y-67507783D01*
X138696459Y-67520272D01*
X138729926Y-67542634D01*
X138740036Y-67548124D01*
X138918042Y-67624601D01*
X138928985Y-67628156D01*
X139117941Y-67670913D01*
X139129351Y-67672415D01*
X139322942Y-67680021D01*
X139334424Y-67679419D01*
X139526162Y-67651619D01*
X139537345Y-67648934D01*
X139720799Y-67586660D01*
X139731314Y-67581978D01*
X139844642Y-67518511D01*
X139854506Y-67508433D01*
X139851551Y-67500762D01*
X139282811Y-66932021D01*
X139268868Y-66924408D01*
X139267034Y-66924539D01*
X139260420Y-66928790D01*
X138692770Y-67496441D01*
X138686577Y-67507783D01*
X113435479Y-67507783D01*
X113310621Y-67452193D01*
X113310620Y-67452193D01*
X113304590Y-67449508D01*
X113211190Y-67429655D01*
X113124246Y-67411174D01*
X113124241Y-67411174D01*
X113117789Y-67409802D01*
X112926815Y-67409802D01*
X112920363Y-67411174D01*
X112920358Y-67411174D01*
X112833414Y-67429655D01*
X112740014Y-67449508D01*
X112733984Y-67452193D01*
X112733983Y-67452193D01*
X112571580Y-67524499D01*
X112571578Y-67524500D01*
X112565550Y-67527184D01*
X112411049Y-67639436D01*
X112406628Y-67644346D01*
X112406627Y-67644347D01*
X112291664Y-67772027D01*
X112283262Y-67781358D01*
X112187775Y-67946746D01*
X112128760Y-68128374D01*
X112128070Y-68134935D01*
X112128070Y-68134937D01*
X112120220Y-68209630D01*
X112108798Y-68318302D01*
X105716642Y-68318302D01*
X105644341Y-68193074D01*
X105641040Y-68187356D01*
X105587933Y-68128374D01*
X105517675Y-68050345D01*
X105517674Y-68050344D01*
X105513253Y-68045434D01*
X105358752Y-67933182D01*
X105352724Y-67930498D01*
X105352722Y-67930497D01*
X105190319Y-67858191D01*
X105190318Y-67858191D01*
X105184288Y-67855506D01*
X105090888Y-67835653D01*
X105003944Y-67817172D01*
X105003939Y-67817172D01*
X104997487Y-67815800D01*
X104806513Y-67815800D01*
X104800061Y-67817172D01*
X104800056Y-67817172D01*
X104713112Y-67835653D01*
X104619712Y-67855506D01*
X104613682Y-67858191D01*
X104613681Y-67858191D01*
X104451278Y-67930497D01*
X104451276Y-67930498D01*
X104445248Y-67933182D01*
X104290747Y-68045434D01*
X104286326Y-68050344D01*
X104286325Y-68050345D01*
X104216068Y-68128374D01*
X104162960Y-68187356D01*
X104159659Y-68193074D01*
X104075259Y-68339259D01*
X104067473Y-68352744D01*
X104008458Y-68534372D01*
X104007768Y-68540933D01*
X104007768Y-68540935D01*
X103992116Y-68689858D01*
X103988496Y-68724300D01*
X97750000Y-68724300D01*
X97750000Y-66951734D01*
X131495300Y-66951734D01*
X131502055Y-67013916D01*
X131553185Y-67150305D01*
X131640539Y-67266861D01*
X131757095Y-67354215D01*
X131893484Y-67405345D01*
X131955666Y-67412100D01*
X133321934Y-67412100D01*
X133384116Y-67405345D01*
X133520505Y-67354215D01*
X133637061Y-67266861D01*
X133724415Y-67150305D01*
X133775545Y-67013916D01*
X133782300Y-66951734D01*
X133782300Y-66536401D01*
X138148977Y-66536401D01*
X138161648Y-66729718D01*
X138163449Y-66741088D01*
X138211137Y-66928860D01*
X138214978Y-66939706D01*
X138296087Y-67115644D01*
X138301843Y-67125613D01*
X138309329Y-67136206D01*
X138319920Y-67144597D01*
X138333219Y-67137570D01*
X138897979Y-66572811D01*
X138904356Y-66561132D01*
X139634408Y-66561132D01*
X139634539Y-66562966D01*
X139638790Y-66569580D01*
X140206851Y-67137640D01*
X140219226Y-67144397D01*
X140225806Y-67139471D01*
X140291978Y-67021314D01*
X140296660Y-67010799D01*
X140358934Y-66827345D01*
X140361619Y-66816162D01*
X140389715Y-66622383D01*
X140390345Y-66615002D01*
X140391688Y-66563704D01*
X140391445Y-66556305D01*
X140373530Y-66361328D01*
X140371432Y-66350007D01*
X140318847Y-66163553D01*
X140314722Y-66152806D01*
X140229281Y-65979551D01*
X140221298Y-65973559D01*
X140208882Y-65980329D01*
X139642021Y-66547189D01*
X139634408Y-66561132D01*
X138904356Y-66561132D01*
X138905592Y-66558868D01*
X138905461Y-66557034D01*
X138901210Y-66550420D01*
X138331874Y-65981085D01*
X138319499Y-65974328D01*
X138313533Y-65978794D01*
X138236295Y-66125601D01*
X138231894Y-66136225D01*
X138174442Y-66321251D01*
X138172050Y-66332505D01*
X138149278Y-66524900D01*
X138148977Y-66536401D01*
X133782300Y-66536401D01*
X133782300Y-65612108D01*
X138686221Y-65612108D01*
X138689707Y-65620496D01*
X139257189Y-66187979D01*
X139271132Y-66195592D01*
X139272966Y-66195461D01*
X139279580Y-66191210D01*
X139846810Y-65623979D01*
X139853567Y-65611604D01*
X139847537Y-65603548D01*
X139784164Y-65563563D01*
X139773916Y-65558342D01*
X139593968Y-65486550D01*
X139582940Y-65483283D01*
X139392925Y-65445487D01*
X139381479Y-65444284D01*
X139187768Y-65441749D01*
X139176288Y-65442652D01*
X138985351Y-65475461D01*
X138974243Y-65478438D01*
X138792478Y-65545494D01*
X138782096Y-65550446D01*
X138695819Y-65601775D01*
X138686221Y-65612108D01*
X133782300Y-65612108D01*
X133782300Y-65585466D01*
X133775545Y-65523284D01*
X133724415Y-65386895D01*
X133637061Y-65270339D01*
X133520505Y-65182985D01*
X133384116Y-65131855D01*
X133321934Y-65125100D01*
X131955666Y-65125100D01*
X131893484Y-65131855D01*
X131757095Y-65182985D01*
X131640539Y-65270339D01*
X131553185Y-65386895D01*
X131502055Y-65523284D01*
X131495300Y-65585466D01*
X131495300Y-66951734D01*
X97750000Y-66951734D01*
X97750000Y-66200000D01*
X91450000Y-66200000D01*
X91450000Y-84200000D01*
X90983300Y-84200000D01*
X90983300Y-64122226D01*
X90985101Y-64101001D01*
X90986829Y-64090887D01*
X90988342Y-64082036D01*
X90987064Y-64070995D01*
X90987031Y-64042312D01*
X91001588Y-63914000D01*
X91006764Y-63889853D01*
X91052517Y-63746684D01*
X91062305Y-63724007D01*
X91135110Y-63592511D01*
X91149135Y-63572178D01*
X91246195Y-63457413D01*
X91263917Y-63440208D01*
X91381502Y-63346582D01*
X91402239Y-63333165D01*
X91535830Y-63264277D01*
X91558785Y-63255163D01*
X91703249Y-63213660D01*
X91727543Y-63209200D01*
X91747935Y-63207495D01*
X91849447Y-63199008D01*
X91865498Y-63199698D01*
X91865517Y-63198987D01*
X91874489Y-63199230D01*
X91883339Y-63200742D01*
X91892254Y-63199710D01*
X91892258Y-63199710D01*
X91919670Y-63196536D01*
X91934160Y-63195700D01*
X154376958Y-63195700D01*
X154398562Y-63197566D01*
G37*
%TD.AperFunction*%
%TD*%
M02*
